<?xml version="1.0" encoding="utf-8"?>
<!-- Generator: Adobe Illustrator 22.1.0, SVG Export Plug-In . SVG Version: 6.00 Build 0)  -->
<svg version="1.1" xmlns="http://www.w3.org/2000/svg" xmlns:xlink="http://www.w3.org/1999/xlink" x="0px" y="0px"
	 viewBox="0 0 850 1366" style="enable-background:new 0 0 850 1366;" xml:space="preserve">
<style type="text/css">
	.st0{fill:none;stroke:#000000;stroke-miterlimit:10;}
	.st1{fill:#0B094C;}
	.st2{fill:#FFFFFF;}
	.st3{fill:#21191B;}
	.st4{fill:#6B7596;}
	.st5{fill:#999AC9;}
	.st6{fill:#D3B398;}
	.st7{fill:#BC8D69;}
	.st8{fill:#C9A185;}
	.st9{stroke:#000000;stroke-miterlimit:10;}
	.st10{fill:none;}
	.st11{fill:#D45A8D;}
	.st12{fill:#070707;}
	.st13{fill:#D5D2CA;}
	.st14{fill:#090808;}
	.st15{fill:#BE3A75;}
	.st16{fill:#E0C2AA;}
</style>
<g id="Layer_1">
	<g>
		<g>
			<path class="st0" d="M447,441.3"/>
		</g>
	</g>
</g>
<g id="Layer_3">
</g>
<g id="Layer_7">
	<circle class="st1" cx="444.7" cy="585.8" r="362.8"/>
	<path class="st2" d="M328.5,568.3c-3.4,1.8-6.4,4.8-7,8.6c-0.9,5.3,2.8,10.3,6.6,14.1c19,19.2,45.2,29.1,68.9,42.1
		c26.1,14.4,49.6,33,71.8,53c4.3,3.9,9.1,8.1,14.9,8.6c6.4,0.6,12.2-3.4,17.4-7.2c7.4-5.4,15.3-11.5,18-20.3
		c2-6.7,0.6-13.9-1.6-20.5c-2.8-8.1-6.8-15.6-10.9-23.1c-1.6-3-3.3-6-6-8c-3.1-2.3-7.1-2.9-11-3.3c-5.7-0.7-11.5-1.3-17.2-0.5
		c-6.2,0.9-12.1,3.4-18.4,4.2c-7.4,0.9-14.9-0.7-22.2-2.4c-16.5-3.7-34-7.9-45.9-20c-4.9-5-8.6-11.1-13.8-15.8
		c-3.3-2.9-7.3-5.2-11.6-5.9c-4.5-0.7-9.4,0.3-13.3-1.9c-2.7-1.5-5.5-5.7-8.9-5.4C335.3,565,330.9,567,328.5,568.3z"/>
	<g>
		<path class="st3" d="M634.4,649.2c15.7,11.6,29.1,26.1,39.6,42.5c27,42.6,32.5,96.2,60.5,138.2c4.1,6.2,8.8,13.8,5.4,20.3
			c-2.9,5.5-10,7-16.1,7.8c-28.5,3.8-57,7.6-85.5,11.4c-6.9,0.9-15,1.4-19.7-3.7c-3.2-3.4-3.8-8.5-4.1-13.1
			c-1-13.1-1.1-26.3-0.4-39.4c1.1-21.3,4.4-42.5,7.7-63.6c5.1-32.5,10.1-64.9,15.2-97.4"/>
		<g>
			<g>
				<path d="M637,652.3c-0.1,0-0.2,0.5-0.4,1.4c-0.2,1-0.5,2.4-0.8,4.3c-0.7,3.8-1.6,9.3-2.9,16.5c-2.4,14.3-5.8,35-9.9,60.6
					c-2,12.8-4.4,26.8-6.5,42c-2.1,15.1-3.9,31.4-4.2,48.7c-0.1,8.6,0.1,17.4,0.7,26.4c0.2,2.2,0.3,4.6,0.8,6.9
					c0.5,2.3,1.4,4.7,2.9,6.8c0.8,1,1.8,1.9,2.8,2.7c1.1,0.7,2.2,1.3,3.4,1.7c2.4,0.9,4.9,1.1,7.3,1.2c2.4,0,4.8-0.2,7.2-0.5
					c2.3-0.3,4.7-0.6,7-0.9c4.7-0.6,9.4-1.3,14.2-1.9c9.6-1.3,19.3-2.6,29.1-3.9c9.8-1.3,19.5-2.6,29.1-3.9c2.4-0.3,4.8-0.6,7.1-1
					c2.4-0.3,4.8-0.7,7.2-1.4c2.4-0.7,4.8-1.7,6.8-3.4c2.1-1.7,3.5-4.1,4.1-6.7c0.5-2.6,0.2-5.3-0.6-7.6c-0.8-2.4-1.8-4.5-3-6.5
					c-1.2-2-2.5-3.9-3.7-5.8c-1.2-1.9-2.4-3.8-3.6-5.7c-0.6-0.9-1.1-1.9-1.7-2.9c-0.5-1-1.1-1.9-1.6-2.9c-0.5-1-1.1-1.9-1.6-2.9
					c-0.5-1-1-2-1.5-2.9c-1-2-1.9-3.9-2.9-5.8c-0.9-2-1.8-3.9-2.6-5.9c-0.4-1-0.9-1.9-1.3-2.9c-0.4-1-0.8-2-1.2-2.9
					c-0.8-2-1.6-3.9-2.4-5.8c-1.5-3.9-3-7.7-4.3-11.6c-2.8-7.6-5.3-15.1-7.9-22.3c-5-14.4-10-27.8-15.5-39.6
					c-1.4-2.9-2.7-5.8-4.2-8.6c-0.7-1.4-1.4-2.7-2.2-4.1c-0.4-0.7-0.7-1.3-1.1-2c-0.4-0.6-0.8-1.3-1.1-1.9c-1.5-2.5-2.9-5-4.5-7.3
					c-0.8-1.2-1.5-2.3-2.3-3.4c-0.8-1.1-1.5-2.2-2.3-3.2c-6.1-8.4-12.2-14.9-17.4-20c-5.2-5.1-9.7-8.6-12.7-10.9
					c-1.5-1.2-2.7-2-3.5-2.6c-0.8-0.6-1.2-0.8-1.3-0.8c-0.1,0.1,1.5,1.3,4.4,3.8c2.9,2.5,7.2,6.1,12.3,11.3
					c5.1,5.1,11,11.8,16.9,20.1c0.7,1,1.5,2.1,2.2,3.2c0.7,1.1,1.5,2.2,2.2,3.4c1.5,2.3,2.8,4.8,4.3,7.3c0.4,0.6,0.7,1.3,1.1,1.9
					c0.4,0.6,0.7,1.3,1,2c0.7,1.3,1.4,2.7,2.1,4c1.5,2.7,2.7,5.6,4.1,8.5c5.4,11.8,10.2,25.1,15.1,39.5c2.5,7.2,5,14.7,7.7,22.4
					c1.3,3.8,2.8,7.7,4.3,11.6c0.8,1.9,1.6,3.9,2.4,5.9c0.4,1,0.8,2,1.2,3c0.4,1,0.9,2,1.3,3c0.9,2,1.7,4,2.6,6c1,2,1.9,3.9,2.9,5.9
					c0.5,1,0.9,2,1.5,3c0.5,1,1.1,2,1.6,2.9c0.5,1,1.1,2,1.6,3c0.5,1,1.1,2,1.7,2.9c1.2,1.9,2.4,3.9,3.6,5.8c1.2,2,2.5,3.8,3.6,5.7
					c1.1,1.9,2.1,3.9,2.8,6c0.7,2,0.9,4.2,0.5,6.1c-0.4,2-1.5,3.8-3.1,5.1c-1.6,1.3-3.6,2.2-5.8,2.8c-2.2,0.6-4.5,1-6.8,1.3
					c-2.4,0.3-4.7,0.6-7.1,0.9c-9.6,1.3-19.3,2.6-29.1,3.9c-9.8,1.3-19.5,2.6-29.1,3.9c-4.8,0.6-9.5,1.3-14.2,1.9
					c-4.7,0.6-9.4,1.4-13.8,1.4c-2.2,0-4.4-0.3-6.4-1c-1-0.3-1.9-0.8-2.7-1.4c-0.8-0.6-1.6-1.3-2.2-2.1c-1.2-1.6-2-3.6-2.4-5.6
					c-0.5-2.1-0.6-4.3-0.8-6.5c-0.7-8.9-0.9-17.7-0.8-26.2c0.2-17.1,1.9-33.3,3.9-48.4c2-15.1,4.3-29.1,6.2-42
					c3.9-25.7,6.9-46.4,9-60.8c1-7.2,1.8-12.8,2.3-16.6c0.2-1.9,0.4-3.3,0.5-4.3C637.1,652.8,637.1,652.3,637,652.3z"/>
			</g>
		</g>
	</g>
	<g>
		<path class="st3" d="M169.4,641.3c-9.9,8.3-19.8,16.6-29.7,25c-9.1,7.6-18.3,15.5-24.8,25.4c-12.4,19.3-12.8,43.7-12.7,66.6
			c0.1,40,0.2,80,0.4,120c0,5.8,0.2,12.1,4.1,16.4c4,4.5,10.6,5.3,16.6,5.7c40,2.7,80.4-0.2,119.7-8.4c5.4-1.1,11.5-2.9,14-7.9
			c1.2-2.4,1.3-5.1,1.3-7.8c1.8-68.6,3-139.9-25.1-202.6c-6-13.4-13.8-26.7-26.2-34.4c-12.4-7.7-30.6-7.9-40.3,3.1"/>
		<g>
			<g>
				<path d="M166.6,642.4c0,0,0.5-0.4,1.4-1.2c0.4-0.5,1.1-0.9,1.8-1.5c0.7-0.6,1.6-1.1,2.7-1.8c2.1-1.2,4.9-2.4,8.4-3
					c3.5-0.7,7.6-0.8,12.1-0.1c0.6,0.1,1.1,0.2,1.7,0.3c0.6,0.1,1.2,0.3,1.7,0.4c0.6,0.2,1.2,0.4,1.8,0.5c0.3,0.1,0.6,0.2,0.9,0.3
					c0.3,0.1,0.6,0.2,0.9,0.3c2.4,0.8,4.8,2.1,7.1,3.6c4.7,3,9.1,7.3,13.1,12.5c4,5.2,7.4,11.4,10.6,18.1c1.6,3.4,3,7,4.5,10.6
					c0.4,0.9,0.8,1.8,1.1,2.8c0.4,0.9,0.8,1.9,1.1,2.8c0.7,1.9,1.4,3.8,2,5.8c5.5,15.7,9.8,33.4,12.8,52.7c3,19.3,4.4,40.2,5,62.2
					c0.6,22,0,45.1-0.6,69.1c-0.1,2.9-0.4,5.7-2,7.8c-1.5,2.1-4.1,3.4-6.8,4.4c-2.7,0.9-5.7,1.5-8.7,2.1c-3,0.6-6,1.2-9.1,1.7
					c-12.1,2.2-24.6,3.9-37.2,5c-12.6,1.2-25.1,1.8-37.5,1.9c-3.1,0.1-6.2,0-9.2,0c-3.1-0.1-6.1-0.1-9.2-0.2c-3-0.1-6.1-0.2-9.1-0.4
					c-3-0.2-6-0.3-8.9-0.7c-2.9-0.4-5.7-1-8.1-2.3c-2.4-1.2-4.2-3.2-5.3-5.7c-1.1-2.4-1.5-5.2-1.6-8.1c-0.2-2.8-0.1-5.7-0.1-8.6
					c-0.1-11.5-0.1-22.8-0.2-33.9c-0.1-22-0.2-43-0.3-62.6c0-19.6-0.9-37.9,1.5-54.3c0.6-4.1,1.4-8,2.4-11.8
					c0.3-0.9,0.6-1.9,0.8-2.8l0.4-1.4l0.5-1.3c0.3-0.9,0.6-1.8,1-2.7c0.4-0.9,0.7-1.7,1.1-2.6c2.9-6.8,7-12.6,11.4-17.5
					c4.4-4.9,9-9,13.2-12.7c4.3-3.7,8.2-7.1,11.8-10.1c7.1-6.1,12.6-10.8,16.3-14c1.8-1.6,3.2-2.9,4.2-3.7c0.9-0.8,1.4-1.3,1.4-1.3
					s-0.6,0.3-1.6,1.1c-1,0.8-2.5,1.9-4.4,3.5c-3.8,3.1-9.4,7.7-16.6,13.6c-3.6,3-7.6,6.3-12,9.9c-4.3,3.7-9,7.7-13.5,12.7
					c-4.5,4.9-8.8,10.8-11.9,17.8c-0.4,0.9-0.8,1.8-1.2,2.6c-0.4,0.9-0.7,1.8-1,2.7l-0.5,1.4l-0.4,1.4c-0.3,0.9-0.6,1.9-0.9,2.9
					c-1,3.9-1.9,7.9-2.5,12.1c-1.3,8.3-1.7,17.1-1.8,26.2c-0.1,9.1,0,18.6-0.1,28.4c0,19.6,0,40.5,0,62.6c0,11,0,22.3,0.1,33.9
					c0,2.9,0,5.8,0.1,8.8c0.2,3,0.6,6.1,1.9,9.1c0.6,1.5,1.5,2.9,2.7,4.1c1.1,1.2,2.5,2.2,3.9,3c2.9,1.5,6,2.2,9.1,2.6
					c3.1,0.4,6.1,0.5,9.1,0.7c3,0.2,6.1,0.3,9.1,0.4c3.1,0.1,6.1,0.2,9.2,0.2c3.1,0,6.2,0.1,9.3,0c12.4-0.1,25-0.7,37.7-1.9
					c12.7-1.2,25.2-2.9,37.4-5.1c3.1-0.6,6.1-1.1,9.1-1.7c3-0.6,6.1-1.1,9.1-2.2c1.5-0.5,3-1.2,4.4-2c1.4-0.9,2.8-2,3.8-3.4
					c0.5-0.7,0.9-1.5,1.3-2.3c0.3-0.8,0.6-1.6,0.8-2.4c0.3-1.6,0.4-3.2,0.5-4.7c0.6-24,1.1-47.2,0.4-69.2
					c-0.6-22.1-2.2-43.1-5.3-62.5c-3.1-19.4-7.6-37.3-13.3-53c-0.7-2-1.4-3.9-2.1-5.8c-0.3-1-0.7-1.9-1.1-2.8
					c-0.4-0.9-0.8-1.9-1.2-2.8c-1.6-3.7-3-7.3-4.6-10.7c-3.3-6.8-6.8-13-11-18.3c-4.1-5.3-8.7-9.6-13.6-12.7
					c-2.5-1.5-4.9-2.8-7.4-3.6c-0.3-0.1-0.6-0.2-0.9-0.3c-0.3-0.1-0.6-0.2-0.9-0.3c-0.6-0.2-1.2-0.4-1.8-0.5
					c-0.6-0.1-1.2-0.3-1.8-0.4c-0.6-0.1-1.2-0.2-1.8-0.3c-4.7-0.7-8.9-0.4-12.5,0.3c-3.6,0.8-6.4,2.1-8.5,3.4c-1,0.7-2,1.3-2.7,1.9
					c-0.7,0.6-1.3,1.1-1.7,1.6C166.9,641.9,166.5,642.4,166.6,642.4z"/>
			</g>
		</g>
	</g>
	<g>
		<path class="st3" d="M218.7,621.5c-16.6,7.5-33.2,15-49.8,22.5c41.6,13.9,66.5,57.5,75.8,100.4c9.4,42.9,7.2,87.5,15.1,130.7
			c1.1,6.1,3,12.9,8.5,15.8c3.3,1.7,7.2,1.6,11,1.4c25.1-1.3,50.2-2.6,75.3-3.9c75.9-3.9,151.8-7.8,227.7-11.7
			c14.6-0.8,29.9-1.8,42.1-9.9c18.2-12.1,23.5-36,27.4-57.5c4.6-25.8,9.3-51.9,8.7-78.2c-0.6-26.3-6.8-53-22.2-74.4
			c-12.1-16.8-29.6-29.6-49.3-36c-6.3-2.1-13.7-3.3-19.1,0.6c-5.7,4.2-6.6,12.2-7.1,19.3c-4.2,57.3-22.1,113.6-51.7,162.9
			c-6.5,10.7-15.6,22.3-28.1,22.3c-9.9,0-18-7.5-24.4-15.1c-19-22.5-31.8-49.5-48-74C379.4,689.9,335,652,283.9,628.6
			c-22.3-10.2-47.6-17.7-71-10.6"/>
		<g>
			<g>
				<path d="M212.8,618c0,0,0.4,0,1-0.2c0.7-0.2,1.7-0.4,3-0.7c1.3-0.3,3-0.5,5-0.9c2-0.2,4.3-0.5,6.9-0.6
					c5.3-0.2,11.8,0.1,19.4,1.5c3.8,0.7,7.8,1.7,12.1,3c4.3,1.3,8.7,2.8,13.4,4.7c18.5,7.7,40.5,19.1,63.4,36.1
					c11.5,8.5,23.1,18.4,34.5,29.8c11.4,11.5,22.6,24.4,32.9,39.1c10.4,14.6,19.5,31.1,29.7,48c5.1,8.4,10.5,16.9,16.7,25.1
					c1.6,2,3.1,4.1,4.8,6.1c1.6,2,3.3,4,5.1,6c3.6,3.8,7.7,7.5,12.8,9.8c2.5,1.2,5.3,2,8.1,2.2c2.8,0.2,5.7-0.1,8.4-1.1
					c5.4-1.9,9.9-5.6,13.6-9.7c3.7-4.2,6.8-8.9,9.6-13.7c1.4-2.4,2.8-4.8,4.2-7.3c1.3-2.5,2.7-4.9,4-7.4c5.3-10,10.3-20.3,14.8-31.1
					c4.5-10.7,8.5-21.8,12.1-33.2c3.6-11.4,6.6-23.1,9.1-35.1c2.5-12,4.4-24.2,5.8-36.6c0.3-3.1,0.6-6.2,0.8-9.4
					c0.3-3.1,0.4-6.2,1-9.2c0.6-3,1.4-5.9,3.1-8.2c1.7-2.3,4.1-3.9,7-4.4c2.8-0.6,5.9-0.3,8.9,0.3c1.5,0.3,3,0.7,4.5,1.2
					c1.5,0.5,3,1,4.5,1.6c5.9,2.3,11.6,5.1,17,8.5c10.8,6.8,20.4,15.8,27.8,26.4c7.5,10.6,12.8,22.8,16.1,35.6
					c3.4,12.8,4.9,26.1,5.1,39.6c0.1,13.5-1.1,27-3,40.6c-1.4,10.4-3.2,20.7-5.1,31c-1.8,10.3-3.7,20.4-6.9,30.1
					c-1.6,4.8-3.5,9.5-6,13.9c-2.4,4.4-5.4,8.4-9,11.8c-0.9,0.8-1.8,1.7-2.8,2.4c-1,0.7-2,1.5-3,2.2c-2.1,1.3-4.2,2.5-6.5,3.5
					c-4.5,1.9-9.3,3.2-14.2,4.1c-9.8,1.7-19.8,1.8-29.8,2.4c-9.9,0.5-19.8,1-29.6,1.5c-19.6,1-38.9,2-58,3c-38,2-74.8,3.9-110.1,5.8
					c-17.7,0.9-34.9,1.8-51.8,2.7c-8.4,0.4-16.8,0.9-25,1.3c-4.1,0.2-8.2,0.4-12.3,0.6c-2,0.1-4.1,0.2-6.1,0.3c-2,0.1-4,0.2-5.9,0.1
					c-1.9-0.1-3.7-0.5-5.3-1.4c-1.6-0.8-2.9-2.1-3.9-3.6c-1-1.5-1.8-3.2-2.4-5c-0.6-1.8-1-3.7-1.4-5.6c-1.4-7.7-2.5-15.2-3.4-22.8
					c-1.8-15-2.8-29.7-3.8-43.9c-1.1-14.2-2.2-27.9-4-41c-0.9-6.6-1.9-13-3.3-19.2c-1.2-6.3-2.7-12.3-4.5-18.2
					c-7-23.4-17.8-43.3-30.9-58.2c-6.5-7.5-13.6-13.5-20.7-18.3c-3.6-2.4-7.2-4.4-10.8-6.2c-0.9-0.4-1.8-0.8-2.7-1.2
					c-0.9-0.4-1.8-0.7-2.7-1.1c-0.4-0.2-0.9-0.4-1.3-0.5c-0.3-0.1-0.6-0.2-0.9-0.3c-0.6-0.2-1.2-0.4-1.8-0.6
					c15.5-7.1,27.5-12.7,35.6-16.4c4.2-2,7.4-3.5,9.5-4.5c1.1-0.5,1.9-0.9,2.4-1.2c0.5-0.3,0.8-0.4,0.8-0.4c0,0-0.3,0.1-0.9,0.3
					c-0.6,0.2-1.4,0.6-2.5,1c-2.2,0.9-5.4,2.4-9.6,4.2c-8.7,3.9-21.6,9.6-38.3,17c1.1,0.4,2.3,0.8,3.4,1.2c0.6,0.2,1.2,0.4,1.7,0.6
					c0.4,0.2,0.9,0.4,1.3,0.5c0.9,0.4,1.8,0.7,2.6,1.1c0.9,0.4,1.7,0.8,2.6,1.3c3.5,1.8,7.1,3.8,10.6,6.2c7,4.8,14,10.8,20.3,18.2
					c12.8,14.8,23.4,34.5,30.2,57.7c1.7,5.8,3.2,11.8,4.4,18c1.3,6.2,2.2,12.6,3.2,19.1c1.7,13.1,2.8,26.7,3.9,40.9
					c1,14.2,2,28.9,3.7,44c0.8,7.6,2,15.2,3.4,23c0.4,1.9,0.8,3.9,1.4,5.9c0.6,1.9,1.4,3.9,2.6,5.7c1.2,1.8,2.8,3.4,4.7,4.4
					c2,1.1,4.2,1.5,6.3,1.7c2.1,0.1,4.2,0,6.2-0.1c2-0.1,4-0.2,6.1-0.3c4.1-0.2,8.2-0.4,12.3-0.6c8.2-0.4,16.6-0.8,25-1.3
					c16.9-0.9,34.2-1.7,51.8-2.6c35.3-1.8,72.1-3.7,110.1-5.6c19-1,38.3-2,58-3c9.8-0.5,19.7-1,29.6-1.5c9.9-0.6,20-0.7,30.1-2.4
					c5-0.9,10.1-2.2,14.9-4.3c2.4-1.1,4.7-2.3,6.9-3.7c1.1-0.7,2.1-1.6,3.2-2.3c1-0.8,2-1.7,3-2.6c3.8-3.6,7-7.9,9.6-12.5
					c2.6-4.6,4.6-9.4,6.2-14.4c3.3-9.9,5.2-20.3,7-30.5c1.8-10.3,3.6-20.6,5.1-31.1c1.9-13.6,3.1-27.3,3-41
					c-0.1-13.7-1.7-27.3-5.2-40.3c-3.5-13-8.9-25.6-16.6-36.5c-7.7-11-17.5-20.2-28.6-27.2c-5.5-3.5-11.4-6.4-17.5-8.8
					c-1.5-0.6-3.1-1.1-4.6-1.6c-1.6-0.5-3.1-1-4.8-1.3c-3.2-0.7-6.7-1-10.1-0.3c-1.7,0.4-3.4,1-4.9,2c-1.5,1-2.8,2.2-3.8,3.6
					c-2.1,2.8-3,6.2-3.6,9.3c-0.6,3.2-0.8,6.4-1,9.5c-0.3,3.1-0.6,6.2-0.8,9.3c-1.3,12.3-3.2,24.5-5.7,36.4
					c-2.5,11.9-5.4,23.5-9,34.8c-3.5,11.3-7.5,22.3-12,33c-4.5,10.7-9.4,20.9-14.6,30.9c-1.3,2.5-2.7,4.9-4,7.4
					c-1.4,2.4-2.8,4.8-4.2,7.2c-2.7,4.8-5.8,9.3-9.3,13.3c-3.5,4-7.7,7.4-12.5,9c-4.8,1.6-10.1,1.2-14.6-1c-4.6-2.1-8.5-5.6-12-9.3
					c-1.8-1.9-3.4-3.8-5-5.8c-1.6-2-3.2-4-4.7-6c-6.1-8.1-11.5-16.5-16.6-24.9c-10.2-16.7-19.4-33.3-29.9-48
					c-10.5-14.7-21.8-27.7-33.3-39.2c-11.5-11.5-23.3-21.4-34.9-29.8c-23.1-17-45.3-28.2-64-35.8c-9.4-3.7-18.1-6.1-25.7-7.5
					c-7.7-1.3-14.3-1.6-19.6-1.2c-2.7,0.1-5,0.5-7,0.7c-2,0.4-3.6,0.7-5,1c-1.3,0.4-2.3,0.7-3,0.9C213.2,617.9,212.8,618,212.8,618z
					"/>
			</g>
		</g>
	</g>
	<g>
		<g>
			<g>
				<path d="M157.8,814.8c0,0,0.1-0.3,0.2-1c0.1-0.6,0.3-1.6,0.4-2.8c0.3-2.4,0.5-6,0.3-10.4c-0.2-4.4-0.9-9.6-2.4-15.2
					c-0.8-2.8-1.7-5.7-2.9-8.6c-0.6-1.5-1.3-2.9-2-4.4c-0.8-1.4-1.5-2.9-2.3-4.4c-0.8-1.5-1.7-2.9-2.6-4.2c-0.9-1.4-1.8-2.6-2.6-4
					c-0.7-1.3-1.3-2.8-1.3-4.2c-0.1-1.4,0.3-2.8,0.9-4.1c0.6-1.3,1.3-2.5,2-3.6c0.7-1.2,1.4-2.3,2.1-3.4c1.3-2.2,2.6-4.2,3.7-6.1
					c2.3-3.7,4.1-6.8,5.3-8.9c0.6-1.1,1.1-1.9,1.4-2.4c0.3-0.6,0.5-0.9,0.4-0.9s-0.2,0.3-0.6,0.8c-0.4,0.5-0.9,1.3-1.6,2.3
					c-1.3,2-3.3,5-5.6,8.7c-1.2,1.8-2.5,3.9-3.8,6c-0.7,1.1-1.4,2.2-2.1,3.4c-0.7,1.2-1.5,2.4-2.1,3.7c-0.6,1.3-1.1,2.9-1,4.5
					c0.1,1.6,0.6,3.2,1.4,4.6c0.8,1.4,1.7,2.7,2.6,4.1c0.9,1.4,1.8,2.7,2.6,4.2c0.9,1.4,1.6,2.9,2.3,4.3c0.7,1.5,1.4,2.9,1.9,4.4
					c1.2,2.9,2.1,5.8,2.9,8.5c1.5,5.5,2.3,10.7,2.6,15c0.3,4.3,0.2,7.9,0,10.3C157.8,813.5,157.7,814.8,157.8,814.8z"/>
			</g>
		</g>
	</g>
	<g>
		<g>
			<g>
				<path d="M203.7,817.2c0.1,0,0.8-0.7,2.2-2.2c0.3-0.4,0.7-0.8,1.1-1.2c0.4-0.5,0.8-1,1.2-1.6c0.8-1.1,1.9-2.4,2.8-3.9
					c0.5-0.8,1-1.5,1.5-2.4c0.5-0.8,1-1.7,1.5-2.7c1.1-1.8,1.9-3.9,2.9-6.1c1.7-4.4,3.2-9.4,4.1-14.8c0.8-5.4,0.9-10.7,0.6-15.4
					c-0.2-2.4-0.4-4.6-0.9-6.7c-0.2-1-0.3-2-0.6-3c-0.3-0.9-0.5-1.9-0.7-2.7c-0.4-1.7-1-3.2-1.5-4.6c-0.2-0.7-0.5-1.3-0.7-1.9
					c-0.3-0.6-0.5-1.1-0.7-1.5c-0.8-1.8-1.3-2.8-1.4-2.8c-0.1,0,0.3,1.1,1,2.9c0.2,0.5,0.4,1,0.6,1.5c0.2,0.6,0.4,1.2,0.6,1.9
					c0.4,1.3,1,2.8,1.3,4.6c0.2,0.9,0.4,1.8,0.7,2.7c0.2,0.9,0.3,1.9,0.5,3c0.4,2,0.5,4.3,0.8,6.6c0.2,4.7,0.1,9.8-0.7,15.2
					c-0.9,5.3-2.3,10.3-4,14.7c-0.9,2.1-1.7,4.2-2.7,6c-0.5,0.9-0.9,1.8-1.4,2.7c-0.5,0.8-1,1.6-1.4,2.4c-0.9,1.5-1.9,2.8-2.7,4
					c-0.4,0.6-0.8,1.1-1.1,1.6c-0.4,0.5-0.7,0.9-1.1,1.3C204.4,816.3,203.7,817.2,203.7,817.2z"/>
			</g>
		</g>
	</g>
	<g>
		<g>
			<g>
				<path d="M488.1,860.3c0.1,0,0.8-1.1,1.9-3.2c1.2-2.2,2.9-5.4,5-9.5c4.3-8.3,10.5-20.3,18-35.2c7.5-14.9,16.5-32.7,26.4-52.4
					c0.3-0.6,0.6-1.2,0.9-1.9l0.7-1.5c0.3-0.6,0.5-1.2,0.8-1.8l0-0.1c0,0,0-0.1,0-0.1l-0.2-0.1l-0.5-0.2l-0.9-0.3
					c-0.6-0.2-1.2-0.3-1.9-0.5c-0.5-0.1-0.8-0.1-1.2-0.1c-0.4,0-0.8,0-1.2,0c-3.2,0.2-6.2,1.6-8.6,3.6c-1.2,1-2.3,2.2-3.2,3.5
					c-0.9,1.3-1.6,2.7-2.2,4.1c-1.2,2.8-2,5.8-2.8,8.7c-2.8,11.6-7.4,23.1-13.7,34c-3.2,5.4-6.7,10.6-10.5,15.4
					c-1.9,2.3-4,4.5-6.4,5.8c-2.4,1.3-5.2,1.9-7.6,1.2c-2.4-0.7-4.3-2.8-6-5.1c-1.8-2.3-3.6-4.6-5.4-6.9c-3.5-4.6-7-9-10.4-13.4
					c-6.8-8.7-13.2-17-19.3-24.7c-3-3.9-6-7.6-8.8-11.2c-2.8-3.6-5.6-7-8.4-10.1c-5.6-6.3-11.7-11.2-17.9-14.1
					c-6.2-2.9-12.1-3.7-16.8-3.4c-2.4,0.1-4.5,0.6-6.2,1.1c-1.7,0.6-3.2,1.2-4.3,1.8c-0.5,0.3-1,0.6-1.4,0.8
					c-0.4,0.3-0.7,0.5-0.9,0.7c-0.5,0.4-0.7,0.6-0.7,0.7c0,0,0.3-0.1,0.9-0.4c0.3-0.2,0.6-0.3,1-0.6c0.4-0.2,0.9-0.4,1.5-0.7
					c1.1-0.5,2.5-1,4.2-1.5c1.7-0.4,3.7-0.7,6-0.8c4.6-0.1,10.2,0.9,16.1,3.8c5.8,2.9,11.6,7.8,17,14c2.7,3.1,5.4,6.5,8.2,10.1
					c2.8,3.6,5.6,7.4,8.6,11.3c6,7.8,12.4,16.1,19.1,24.9c3.4,4.4,6.8,8.9,10.3,13.4c1.8,2.3,3.5,4.6,5.3,6.9
					c0.9,1.2,1.9,2.4,3.1,3.5c1.2,1.1,2.7,2.1,4.4,2.6c3.4,1,7,0.2,9.9-1.4c2.9-1.6,5.2-4.1,7.2-6.5c3.9-4.9,7.6-10.2,10.8-15.7
					c6.5-11.1,11.1-23,14-34.8c0.7-2.9,1.5-5.7,2.6-8.3c0.6-1.3,1.2-2.5,2-3.6c0.7-1.1,1.6-2.1,2.6-2.9c2-1.7,4.5-2.9,6.9-3l0.9,0
					l0.9,0.1c0.1,0,0.2,0,0.2,0.1l0,0.1l-0.2,0.4c-0.3,0.6-0.6,1.2-0.9,1.9c-9.7,19.8-18.5,37.7-25.8,52.7
					c-7.3,15-13.2,27.2-17.2,35.6c-2,4.2-3.5,7.5-4.5,9.8C488.4,859,488,860.2,488.1,860.3z"/>
			</g>
		</g>
	</g>
	<g>
		<path class="st4" d="M313.3,575.4c-34.9,9.6-68.2,24.8-98.3,44.8c35.9,4.9,64.5,31.5,90.5,56.9c58.6,57.1,117.4,114.5,167.7,179
			c3.9,5,9.3,10.7,15.5,9.3c5-1.1,7.8-6.2,10-10.8c28.8-60.3,57.7-121,74.7-185.6c3.5-13.5,6.4-28.4-0.1-40.8
			c-6.4-12.2-20.3-18.4-33.5-22.4c-13.2-3.9-27.4-6.7-38.2-15.2c-3.5,25.7-6.9,51.4-10.4,77.1c-0.8,5.6-2.4,12.3-7.9,13.9
			c-4.5,1.3-8.9-1.8-12.5-4.7c-29.7-23.9-59.4-47.8-89.1-71.7c-20.7-16.6-44.3-34.2-70.7-31.8"/>
		<g>
			<g>
				<path d="M310.9,573.5c0,0,0.2,0,0.7,0c0.5,0,1.2,0,2.2-0.1c1,0,2.1-0.1,3.6,0c1.4,0.1,3.1,0.1,4.9,0.4c0.9,0.1,1.9,0.3,2.9,0.4
					c1,0.2,2.1,0.4,3.2,0.7c0.6,0.1,1.1,0.2,1.7,0.4c0.6,0.2,1.2,0.3,1.8,0.5c0.6,0.2,1.2,0.4,1.9,0.5c0.6,0.2,1.3,0.4,1.9,0.6
					c5.2,1.7,10.9,4.4,17.1,8c6.1,3.6,12.6,8.1,19.5,13.4c6.9,5.3,14.1,11.3,22,17.6c15.7,12.7,33.6,27.1,53.4,43.1
					c5,4,10,8.1,15.2,12.3c2.6,2.1,5.2,4.2,7.9,6.3c1.3,1.1,2.7,2.1,4.2,3c1.5,0.9,3.2,1.6,5,1.8c1.8,0.2,3.7-0.1,5.3-1.1
					c1.6-1,2.8-2.4,3.6-4c1.7-3.2,2.3-6.9,2.8-10.4c1-7.2,2-14.4,3-21.8c2-14.8,4.1-30.1,6.2-45.9c0.3-2,0.5-4,0.8-5.9l0.2-1.4
					l0-0.1l0.1,0l1.2,0.9c0.4,0.3,0.8,0.6,1.3,0.9c3.4,2.2,7.1,4.1,10.9,5.6c7.7,3,15.8,5,23.8,7.3c4,1.2,8,2.5,11.9,4.2
					c3.9,1.7,7.7,3.7,11.1,6.2c3.5,2.5,6.6,5.5,9,9.1c2.4,3.5,4,7.7,4.8,11.9c0.8,4.3,0.8,8.7,0.5,13.1c-0.4,4.4-1.2,8.8-2.2,13.1
					c-1,4.4-2.3,8.7-3.5,13.1c-1.2,4.4-2.5,8.7-3.8,13.1c-10.6,35-25,70.1-41,105.5c-8,17.7-16.2,35-24.4,52.1c-1,2.1-2,4.3-3,6.4
					c-1,2.1-2,4.2-3.4,6.1c-1.3,1.9-2.9,3.5-5,4.4c-1,0.5-2.1,0.7-3.2,0.7c-1.1,0-2.2-0.2-3.2-0.6c-2.1-0.8-4-2.1-5.6-3.7
					c-1.7-1.6-3.1-3.3-4.6-5.1c-2.9-3.6-5.7-7.2-8.6-10.8c-23-28.5-46.7-54.7-69.9-79.1c-23.2-24.3-46-46.8-67.4-67.7
					c-10.7-10.4-21-20.6-31-30.2c-10.1-9.6-20.1-18.4-30.5-25.9c-0.6-0.5-1.3-0.9-1.9-1.4c-0.7-0.4-1.3-0.9-2-1.3
					c-1.3-0.9-2.6-1.7-3.9-2.6c-2.7-1.6-5.2-3.3-7.9-4.7c-5.3-3-10.7-5.3-16.1-7.4c-1.4-0.4-2.7-0.9-4.1-1.3c-0.7-0.2-1.3-0.4-2-0.7
					c-0.7-0.2-1.4-0.3-2-0.5c-1.4-0.3-2.7-0.7-4-1c-1.3-0.3-2.7-0.5-4-0.7c-0.6-0.1-1.3-0.2-1.9-0.3l-0.4-0.1c-0.1,0,0-0.1,0.1-0.1
					l0.2-0.1c1-0.7,2.1-1.4,3.1-2c2.2-1.4,4.4-2.8,6.5-4.1c17.2-10.6,32.9-18.2,46-23.7c13.1-5.6,23.6-9,30.7-11.3
					c1.8-0.6,3.4-1.1,4.7-1.5c1.4-0.4,2.5-0.7,3.4-1c0.9-0.3,1.6-0.5,2.1-0.6c0.5-0.1,0.7-0.2,0.7-0.2s-0.2,0.1-0.7,0.2
					c-0.5,0.1-1.2,0.3-2.1,0.6c-0.9,0.3-2.1,0.6-3.4,1c-1.4,0.4-2.9,0.9-4.7,1.4c-7.1,2.2-17.7,5.6-30.8,11.2
					c-13.1,5.5-28.9,13-46.2,23.6c-2.1,1.3-4.4,2.7-6.5,4.1c-1.2,0.8-2.3,1.5-3.5,2.3l-0.7,0.4l-0.3,0.2c0,0-0.2,0.1-0.1,0.1l0.2,0
					l1.6,0.3c0.7,0.1,1.4,0.2,2.1,0.4c1.3,0.2,2.7,0.4,4,0.7c1.3,0.3,2.7,0.7,4,1c0.7,0.2,1.3,0.3,2,0.5c0.7,0.2,1.3,0.4,2,0.7
					c1.3,0.4,2.7,0.9,4,1.3c5.3,2.1,10.7,4.4,16,7.4c2.7,1.4,5.2,3.1,7.9,4.7c1.3,0.9,2.6,1.7,3.9,2.6c0.6,0.4,1.3,0.9,2,1.3
					c0.6,0.5,1.3,0.9,1.9,1.4c10.3,7.4,20.3,16.3,30.3,25.8c10,9.6,20.3,19.8,31,30.2c21.3,20.9,44.1,43.4,67.3,67.8
					c23.2,24.3,46.9,50.5,69.8,79c2.8,3.6,5.7,7.2,8.6,10.8c1.4,1.8,2.9,3.6,4.7,5.2c1.7,1.6,3.7,3.1,6,3.9c2.3,0.9,4.9,0.9,7.2-0.2
					c2.3-1,4-2.8,5.4-4.8c1.4-2,2.4-4.1,3.4-6.2c1-2.1,2-4.3,3-6.4c8.1-17.1,16.4-34.4,24.4-52.1c16-35.4,30.4-70.5,41-105.6
					c1.3-4.4,2.7-8.7,3.8-13.1c1.2-4.4,2.5-8.7,3.5-13.1c1-4.4,1.9-8.8,2.3-13.3c0.4-4.5,0.4-9-0.5-13.4c-0.9-4.4-2.4-8.6-5-12.3
					c-2.5-3.7-5.7-6.8-9.2-9.3c-3.5-2.5-7.4-4.6-11.3-6.3c-3.9-1.7-8-3.1-12-4.2c-8.1-2.4-16.2-4.3-23.8-7.3
					c-3.8-1.5-7.4-3.3-10.8-5.5c-0.4-0.3-0.8-0.5-1.2-0.8l-1.3-0.9l-1.1-0.8c-0.1,0.4-0.1,0.9-0.2,1.4l-0.2,1.6
					c-0.3,2-0.5,4-0.8,5.9c-2.1,15.8-4.2,31.1-6.2,45.9c-1,7.4-2,14.7-2.9,21.8c-0.5,3.6-1,7.1-2.7,10.2c-0.8,1.5-1.9,2.9-3.3,3.7
					c-1.4,0.8-3.1,1.2-4.8,1c-1.7-0.2-3.2-0.9-4.7-1.7c-1.5-0.8-2.8-1.9-4.1-2.9c-2.7-2.1-5.3-4.2-7.9-6.3
					c-5.2-4.2-10.3-8.2-15.2-12.2c-19.8-15.9-37.8-30.3-53.5-43c-7.9-6.3-15.2-12.3-22-17.5c-6.9-5.2-13.4-9.8-19.6-13.3
					c-6.2-3.6-12-6.2-17.2-7.9c-0.6-0.2-1.3-0.4-1.9-0.6c-0.6-0.2-1.3-0.4-1.9-0.5c-0.6-0.2-1.2-0.3-1.8-0.5
					c-0.6-0.1-1.2-0.2-1.7-0.4c-1.1-0.2-2.2-0.5-3.2-0.7c-1-0.1-2-0.3-3-0.4c-1.9-0.3-3.5-0.2-4.9-0.3c-1.4-0.1-2.6,0-3.6,0
					c-1,0.1-1.7,0.1-2.2,0.1C311.1,573.4,310.9,573.5,310.9,573.5z"/>
			</g>
		</g>
	</g>
	<g>
		<path class="st5" d="M427.8,636.3c7.3,10.6,19,17.1,29.5,24.6c9.4,6.7,17.9,14.5,25.6,23.2c1.4-11.4,2.3-22.9,2.7-34.4
			c0.1-3.4,0.2-6.8-0.7-10.1c-2-7.7-9-13.2-16.6-15.6c-7.5-2.5-15.6-2.3-23.5-2.2c-3,0.1-6.1,0.1-8.7,1.5c-2.4,1.3-4.1,3.5-5.3,6
			c-1.1,2.4-1.7,5.1-2.3,7.7"/>
		<g>
			<g>
				<path d="M428.5,637.1c0,0,0.1-0.2,0.2-0.5c0.1-0.3,0.2-0.8,0.4-1.4c0.3-1.2,0.8-3,1.7-5.2c0.5-1.1,1.1-2.3,2-3.4
					c0.9-1.1,2-2.2,3.5-3c1.5-0.8,3.3-1.1,5.2-1.3c1.9-0.1,4-0.1,6.1-0.1c4.3,0,9,0,14,0.8c5,0.7,10.2,2.4,14.7,5.7
					c2.3,1.7,4.3,3.7,5.9,6.2c1.6,2.5,2.5,5.3,2.8,8.4c0.3,3,0.1,6.2,0,9.4c-0.1,3.2-0.3,6.4-0.5,9.7c-0.2,3.8-0.5,7.5-0.9,11.1
					c-0.2,1.8-0.4,3.6-0.5,5.4c-0.2,1.4-0.3,2.8-0.5,4.2c-0.6-0.7-1.3-1.4-1.9-2.1c-0.9-0.9-1.8-1.9-2.7-2.8
					c-1.8-1.8-3.6-3.6-5.4-5.2c-3.6-3.3-7.2-6.3-10.7-9c-7-5.4-13.7-9.5-19-13.4c-2.6-1.9-4.9-3.7-6.9-5.4c-1.9-1.7-3.5-3.2-4.7-4.6
					c-1.2-1.3-2.1-2.4-2.7-3.1c-0.6-0.7-0.9-1.1-0.9-1.1s0.2,0.4,0.8,1.2c0.5,0.8,1.4,1.9,2.5,3.2c1.2,1.4,2.7,3,4.6,4.7
					c1.9,1.7,4.2,3.6,6.8,5.6c5.2,4,11.9,8.1,18.8,13.5c3.5,2.7,7,5.7,10.6,9c1.8,1.7,3.5,3.4,5.3,5.2c0.9,0.9,1.8,1.8,2.6,2.8
					c0.4,0.5,0.9,1,1.3,1.4c0.7,0.8,1.3,1.5,2,2.3c0.2-2.1,0.5-4.2,0.7-6.4c0.2-1.8,0.4-3.6,0.5-5.4c0.3-3.7,0.6-7.4,0.9-11.2
					c0.2-3.3,0.4-6.5,0.5-9.7c0.1-3.2,0.3-6.4,0-9.5c-0.3-3.1-1.3-6.2-3-8.8c-1.6-2.6-3.8-4.7-6.1-6.4c-4.7-3.4-10.1-5.1-15.2-5.8
					c-5.1-0.7-9.8-0.7-14.1-0.6c-2.2,0.1-4.2,0-6.2,0.2c-2,0.2-3.8,0.6-5.4,1.4c-1.6,0.8-2.7,2-3.6,3.2c-0.9,1.2-1.5,2.4-2,3.5
					c-0.9,2.3-1.3,4.1-1.6,5.3c-0.1,0.6-0.2,1.1-0.3,1.4C428.5,636.9,428.4,637.1,428.5,637.1z"/>
			</g>
		</g>
	</g>
	<g>
		<path class="st2" d="M347.1,527.6c-4.8,4.7-7.3,11.1-9.3,17.5s-3.6,12.9-7.1,18.6s-9.2,10.5-15.8,10.9c10.6-2.1,21.7-1.3,31.9,2.2
			c15.1,5.3,27.5,16.2,39,27.4s22.7,23,36.7,30.7c1.5,0.8,3.3,1.6,4.8,0.9c1.1-0.5,1.8-1.7,2.4-2.8c2.3-4.2,4.7-8.4,7-12.6
			c1.7-3,3.4-6.6,1.9-9.8c-1.7-3.6-6.4-4.3-10.1-5.7c-8.6-3.2-13.8-11.8-19-19.3c-13.4-19.6-30.9-35.8-48.3-52
			c-4.3-4-10-8.3-15.5-6.3"/>
		<g>
			<g>
				<path d="M345.9,527.3c0,0,0.1,0,0.2,0c0.1,0,0.4-0.1,0.7-0.2c0.6-0.1,1.5-0.3,2.6-0.2c2.3,0.1,5.6,1.5,9,4.3
					c1.7,1.4,3.5,3.1,5.5,4.9c2,1.8,4.1,3.9,6.4,6c4.6,4.3,9.7,9.3,15.2,15c5.5,5.7,11.4,12.1,17.1,19.4c1.4,1.8,2.8,3.7,4.3,5.7
					c1.4,2,2.8,4,4.2,6c2.8,4.1,5.7,8.4,9.6,12c2,1.8,4.2,3.4,6.7,4.5c2.5,1.2,5.2,1.6,7.6,2.8c1.2,0.6,2.3,1.3,3,2.4
					c0.8,1,1,2.3,1,3.6c-0.2,2.7-1.7,5.1-3,7.6c-1.4,2.5-2.8,5-4.2,7.5c-0.7,1.3-1.4,2.5-2.1,3.8c-0.7,1.3-1.4,2.5-2.7,2.8
					c-1.2,0.3-2.6-0.3-3.8-0.9c-1.3-0.7-2.6-1.4-3.8-2.3c-2.5-1.6-5-3.3-7.4-5.1c-8.8-6.6-16.3-14.4-23.8-21.6
					c-7.5-7.3-14.9-14.3-23-19.8c-4-2.8-8.2-5.2-12.4-7.1c-4.3-1.9-8.6-3.4-12.9-4.3c-8.7-1.8-17.2-1.7-24.8-0.1l0.1,0.7
					c4.7-0.3,8.8-2.7,11.8-5.7c3-2.9,5-6.4,6.5-9.8c1.5-3.4,2.5-6.7,3.4-9.7c0.9-3,1.7-5.8,2.6-8.2c1.7-4.9,3.6-8.5,5.2-10.7
					c0.8-1.1,1.5-1.9,1.9-2.4c0.2-0.3,0.4-0.5,0.5-0.6c0.1-0.1,0.2-0.2,0.2-0.2c0,0-1.2,0.9-2.8,3.1c-1.7,2.2-3.7,5.8-5.5,10.7
					c-0.9,2.4-1.7,5.2-2.7,8.2c-0.9,3-2,6.3-3.4,9.6c-1.5,3.3-3.5,6.7-6.4,9.6c-2.9,2.8-6.9,5.1-11.4,5.4l0.1,0.7
					c7.5-1.5,15.9-1.6,24.4,0.2c4.3,0.9,8.6,2.3,12.8,4.2c4.2,1.9,8.3,4.3,12.3,7.1c8,5.5,15.4,12.4,22.8,19.7
					c7.5,7.3,15.1,15,23.9,21.7c2.4,1.8,4.9,3.6,7.4,5.1c1.3,0.8,2.6,1.5,3.9,2.3c0.7,0.4,1.4,0.7,2.1,0.9c0.8,0.2,1.6,0.3,2.4,0.1
					c0.8-0.2,1.5-0.8,2-1.4c0.5-0.6,0.9-1.3,1.2-1.9c0.7-1.3,1.4-2.5,2.1-3.8c1.4-2.5,2.8-5,4.2-7.5c1.4-2.5,2.9-5,3.1-8
					c0.1-1.5-0.2-3-1.1-4.3c-0.9-1.2-2.1-2.1-3.4-2.7c-2.6-1.2-5.3-1.7-7.7-2.8c-2.4-1-4.5-2.6-6.4-4.3c-3.8-3.5-6.7-7.8-9.5-11.9
					c-1.4-2.1-2.8-4.1-4.2-6c-1.4-1.9-2.8-3.8-4.3-5.7c-5.8-7.3-11.7-13.7-17.2-19.4c-5.6-5.7-10.8-10.6-15.4-14.9
					c-2.3-2.1-4.5-4.1-6.4-6c-2-1.8-3.8-3.5-5.5-4.9c-3.5-2.8-6.8-4.1-9.2-4.2c-1.2-0.1-2.1,0.1-2.6,0.3c-0.3,0.1-0.5,0.2-0.6,0.2
					C346,527.3,345.9,527.3,345.9,527.3z"/>
			</g>
		</g>
	</g>
	<g>
		<path class="st2" d="M435.4,621.2c12.2-1.1,25.3-2,36,3.9c10.7,5.9,16.9,17.3,22.5,28.1c1.9-12.9,3.9-25.8,5.8-38.7
			c1.2-7.7,2.3-15.4,2.6-23.1c0.2-6.3-0.2-12.7-1.3-18.9c-0.4-2.3-1.2-5.1-3.5-5.6c-2.5-0.6-4.6,1.9-6,4c-6.4,10.3-12,21.4-20.6,30
			c-8.6,8.6-21.1,14.5-32.9,11.4"/>
		<g>
			<g>
				<path d="M438.2,612.2c0,0,0.2,0.1,0.6,0.2c0.4,0.1,1,0.3,1.8,0.4c1.6,0.3,4,0.5,7.1,0.2c3.1-0.3,6.8-1.2,10.8-3
					c4-1.8,8.2-4.6,12.2-8.4c4-3.8,7.7-8.6,11.2-14c3.5-5.4,6.9-11.5,10.8-17.5c0.5-0.7,1.1-1.4,1.7-1.9c0.7-0.5,1.4-1,2.2-1
					c0.8-0.1,1.6,0.2,2.2,0.8c0.6,0.6,1,1.4,1.3,2.2c0.3,0.9,0.5,1.8,0.6,2.7c0.2,0.9,0.3,1.9,0.4,2.8c0.3,1.9,0.4,3.8,0.6,5.8
					c0.6,7.8,0,16-1.1,24.2c-2.4,16.3-4.7,31.8-6.8,45.8l0,0.1l0,0l-0.3-0.5c-0.4-0.8-0.8-1.6-1.3-2.4c-0.8-1.6-1.7-3.1-2.6-4.6
					c-1.7-3-3.6-5.8-5.6-8.4c-3.9-5.2-8.6-9.3-13.6-11.7c-2.5-1.2-5-2.1-7.4-2.7c-2.4-0.6-4.7-0.9-6.9-1.1
					c-4.4-0.4-8.1-0.3-11.2-0.1c-3.1,0.2-5.4,0.4-7,0.6c-0.8,0.1-1.4,0.2-1.8,0.2c-0.4,0.1-0.6,0.1-0.6,0.1s0.2,0,0.6,0
					c0.4,0,1-0.1,1.8-0.1c1.6-0.1,4-0.3,7-0.4c3.1-0.1,6.8-0.1,11.1,0.3c2.2,0.2,4.4,0.6,6.8,1.2c2.4,0.6,4.8,1.5,7.2,2.7
					c4.9,2.4,9.4,6.4,13.3,11.5c1.9,2.5,3.7,5.3,5.5,8.3c0.9,1.5,1.7,3,2.5,4.5c0.4,0.8,0.8,1.6,1.2,2.4c0.3,0.6,0.7,1.2,1,1.9
					l0.6,1.2c0.1-0.3,0.1-0.8,0.2-1.2c1.1-7.4,2.3-15.2,3.5-23.3c1.2-7.8,2.5-15.9,3.6-24.2c1.1-8.3,1.7-16.5,1.1-24.4
					c-0.1-2-0.3-3.9-0.6-5.9c-0.1-1-0.3-1.9-0.4-2.9c-0.1-1-0.3-1.9-0.7-2.9c-0.3-0.9-0.8-1.9-1.6-2.6c-0.8-0.7-1.8-1.1-2.9-1.1
					c-1.1,0.1-2,0.6-2.7,1.2c-0.7,0.6-1.4,1.4-1.9,2.1c-3.9,6.2-7.2,12.2-10.7,17.6c-3.5,5.4-7.1,10.2-11,14
					c-3.9,3.8-8.1,6.5-12,8.4c-3.9,1.9-7.6,2.8-10.6,3.1C441.5,613.3,438.2,612,438.2,612.2z"/>
			</g>
		</g>
	</g>
	<g>
		<g>
			<g>
				<path d="M377.9,681.1c0.3-0.3-2.5-4-7.6-9.5c-2.5-2.8-5.7-5.9-9.3-9.3c-3.6-3.4-7.7-7-12.1-10.6c-4.4-3.6-8.8-6.9-12.9-9.7
					c-4.1-2.8-7.8-5.3-11-7.2c-6.4-3.9-10.6-5.8-10.8-5.5c-0.5,0.8,15.3,10.4,32.9,24.7C364.7,668.2,377.2,681.7,377.9,681.1z"/>
			</g>
		</g>
	</g>
	<g>
		<g>
			<g>
				<path d="M555.2,646.7c0.2,0,0.5-0.5,0.7-1.7c0.1-1.1,0-2.8-0.6-4.7c-0.6-1.9-1.8-4-3.2-6.1c-1.4-2.1-2.9-4.3-4.1-6.7
					c-2.4-4.9-3.1-10-3.1-13.6c-0.1-3.6,0.4-6-0.1-6.1c-0.4-0.1-1.5,2.1-2,6c-0.5,3.9-0.1,9.5,2.5,15c1.3,2.8,3.1,5,4.5,7
					c1.5,2,2.7,3.7,3.5,5.3C554.9,644.3,554.8,646.6,555.2,646.7z"/>
			</g>
		</g>
	</g>
	<g>
		<g>
			<g>
				<path d="M547.1,686.9c0.4-0.1-1.1-5.2-3.9-13.2c-1.4-4-3.1-8.7-5-14c-1-2.6-2-5.4-3-8.2c-1.1-2.9-2.2-5.8-3.6-8.8
					c-2.7-6-6.1-11.5-10.4-15.5c-4.2-4-8.6-6.6-12-9c-3.4-2.4-5.9-4.6-7.5-6.3c-0.8-0.9-1.4-1.5-1.8-2c-0.4-0.5-0.7-0.7-0.8-0.6
					c-0.1,0.1,0,0.4,0.3,1c0.2,0.6,0.7,1.4,1.4,2.4c1.4,2,3.8,4.6,7.2,7.2c3.3,2.7,7.5,5.6,11.3,9.3c3.8,3.8,7,8.9,9.6,14.7
					c1.3,2.9,2.4,5.8,3.5,8.6c1.1,2.8,2.2,5.6,3.2,8.2c2.1,5.2,4,9.9,5.6,13.8C544.5,682.3,546.7,687,547.1,686.9z"/>
			</g>
		</g>
	</g>
	<g>
		<path class="st6" d="M345.6,486.5c0.9,14.8,1.7,29.7,2.6,44.5c0.3,4.5,0.5,9.1,2.2,13.4c3,7.6,10,12.7,16.7,17.3
			c7.3,5.2,14.7,10.3,22,15.5c14.3,10.1,28.5,20.1,42.8,30.2c6.7,4.7,13.8,9.6,21.9,9.9c7.8,0.4,15.4-3.6,21-9
			c5.6-5.5,9.7-12.3,13.6-19.1c5.3-9,10.6-18,15.9-27.1c-11.1-2.5-22.6-2.9-33.8-5c-30-5.6-56.4-22.8-81.8-39.7
			c-12.1-8-24.3-16.2-33.2-27.6c-3.5-4.5-7.2-9.9-12.9-10.3c-0.8,2.9,0.4,6.3,2.9,8.1"/>
		<g>
			<g>
				<path d="M345.4,487.6c0,0-0.3-0.2-0.9-0.8c-0.5-0.6-1.3-1.5-1.7-2.9c-0.2-0.7-0.4-1.6-0.4-2.5c0-0.5,0.1-1,0.2-1.4l0.1-0.3
					c0.1,0,0.2,0,0.3,0c0.2,0,0.5,0.1,0.8,0.1c2.2,0.4,4.4,1.8,6.4,3.9c2.1,2,3.9,4.7,6.1,7.5c2.2,2.8,4.9,5.6,7.9,8.4
					c6.1,5.7,13.8,11.2,22.4,16.9c8.7,5.8,18.1,12.2,28.6,18.4c10.5,6.3,22.1,12.5,35.1,17.2c6.5,2.3,13.3,4.3,20.4,5.6
					c7.1,1.3,14.5,1.9,21.9,2.9c1.9,0.2,3.7,0.5,5.6,0.8c0.9,0.2,1.9,0.3,2.8,0.5l1.4,0.3l1.1,0.2c-1.7,3-3.5,6-5.3,9
					c-3.9,6.7-7.9,13.4-11.9,20.3c-4,6.8-8.4,13.4-14.3,18.3c-3,2.4-6.3,4.3-9.8,5.5c-3.5,1.2-7.3,1.6-10.9,0.9
					c-3.6-0.6-7-2-10.2-3.8c-3.2-1.8-6.2-3.8-9.1-5.9c-5.9-4.1-11.7-8.2-17.3-12.2c-11.3-7.9-22-15.4-32-22.5
					c-5-3.5-9.8-6.9-14.5-10.2c-4.6-3.2-9.1-6.4-12.6-10.2c-1.7-1.9-3.2-4-4.3-6.2c-1.1-2.2-1.7-4.5-2.1-6.8
					c-0.4-2.3-0.6-4.6-0.7-6.8c-0.1-2.2-0.3-4.3-0.4-6.4c-0.5-8.3-1-15.4-1.3-21.2c-0.4-5.8-0.7-10.3-0.9-13.4
					c-0.1-1.5-0.2-2.7-0.3-3.5c0-0.4-0.1-0.7-0.1-0.9c0-0.2,0-0.3,0-0.3c0,0,0,0.1,0,0.3c0,0.2,0,0.5,0,0.9c0,0.8,0.1,2,0.2,3.5
					c0.2,3.1,0.4,7.6,0.7,13.4c0.3,5.8,0.7,12.9,1.2,21.2c0.1,2.1,0.2,4.2,0.4,6.4c0.1,2.2,0.3,4.5,0.7,6.8c0.4,2.3,1,4.7,2.1,7
					c1.1,2.3,2.6,4.4,4.3,6.3c3.5,3.9,8,7.1,12.7,10.4c4.6,3.3,9.5,6.7,14.5,10.2c10,7.1,20.7,14.6,31.9,22.5
					c5.6,4,11.4,8,17.3,12.2c2.9,2.1,5.9,4.2,9.2,6c3.2,1.8,6.8,3.3,10.5,3.9c3.8,0.7,7.7,0.3,11.4-1c3.7-1.2,7.1-3.2,10.1-5.7
					c6.1-5,10.5-11.7,14.5-18.6c4-6.9,8-13.6,11.9-20.3c1-1.7,1.9-3.3,2.9-5l1.5-2.5l0.7-1.2l0.5-0.9l0.2-0.3l0.1-0.2
					c0-0.1,0.1-0.1,0-0.1l-0.7-0.1l-1.7-0.4l-1.4-0.3c-0.9-0.2-1.9-0.3-2.8-0.5c-1.9-0.3-3.7-0.6-5.6-0.8c-7.4-1-14.8-1.6-21.8-2.9
					c-7.1-1.3-13.8-3.2-20.3-5.5c-12.9-4.7-24.5-10.8-35-17c-10.5-6.2-20-12.6-28.7-18.3c-8.7-5.7-16.4-11.2-22.5-16.7
					c-3-2.8-5.7-5.6-7.9-8.3c-2.2-2.7-4.1-5.4-6.2-7.4c-2.1-2.1-4.4-3.5-6.7-3.9c-0.3-0.1-0.5-0.1-0.9-0.1c-0.2,0-0.4-0.1-0.5,0
					l-0.1,0.5c-0.1,0.6-0.2,1-0.1,1.5c0,1,0.2,1.8,0.4,2.6c0.5,1.5,1.3,2.4,1.9,3C345,487.4,345.4,487.6,345.4,487.6z"/>
			</g>
		</g>
	</g>
	<path class="st7" d="M369.3,564.7c-2.1-6.8-2.5-14.2-1.4-21.2c2.8,1.1,4.2,4.1,6.2,6.3c3.6,4.2,9.3,6,14.4,8.4
		c10.3,4.8,18.9,12.6,29.2,17.2c4,1.8,8.2,3,12.3,4.3c13.6,4.1,27.9,8,41.7,5c5.8-1.2,11.2-3.6,16.6-6c3.8-1.7,7.8-3.6,9.7-7.2
		c2.5-5,0.1-11.3,2.5-16.4c-35.3,3.2-71.6-5-102.1-23.1c-4-2.4-7.9-4.9-11.3-8.1c-3.4-3.2-6.2-6.9-9-10.5
		c-4.1-5.5-8.3-10.9-12.4-16.4c-5.8-7.7-12.4-15.9-21.7-18.5c2.7,19.5,4.7,39.1,5.8,58.8c0.2,2.5,0.3,5.1,1.2,7.5
		c1.2,3.2,3.7,5.7,6.1,8.2c3.1,3.2,6.3,6.4,9.4,9.6"/>
	<g>
		<path class="st6" d="M344.1,480c11.6,26.7,28.6,51,49.6,71.1c10.1,9.7,21.4,18.5,34.5,23.6c22.7,8.8,49.2,5.3,70.1-7.2
			s36.2-33.3,44.3-56.2c9.1-25.6,9.6-53.3,10-80.4c0.3-17.2,0.6-34.5,0.8-51.7c0.1-6.8,0.2-13.8-2.4-20c-6-14.2-23-19.4-38-22.4
			c-24.8-5-49.9-8.5-75.2-10.6c-17.8-1.4-36.1-2.1-53,3.6s-32.4,18.8-36,36.2c-2.7,12.8,1.1,26.1,0.2,39.2
			c-1,13.2-6.7,25.4-9.9,38.3c-3.2,12.8-3.4,27.7,5.2,37.7"/>
		<g>
			<g>
				<path d="M344.3,481c0,0-0.1-0.1-0.3-0.4c-0.2-0.3-0.5-0.7-0.9-1.2c-0.4-0.5-0.8-1.2-1.3-2.1c-0.3-0.4-0.5-0.9-0.8-1.4
					c-0.3-0.5-0.6-1-0.8-1.6c-1.1-2.3-2-5.4-2.5-9.1c-0.5-3.7-0.6-8.1,0-13c0.5-4.9,1.9-10.2,3.6-15.9c1.7-5.7,4-11.8,5.7-18.6
					c0.9-3.4,1.6-6.9,2-10.7c0.4-3.7,0.4-7.6,0.2-11.6c-0.4-7.9-1.7-16.2-0.9-24.9c0.4-4.3,1.6-8.7,3.4-12.8
					c1.9-4.1,4.5-8.1,7.7-11.6c6.4-7,15-12.5,24.7-15.9c9.7-3.4,20.4-4.7,31.4-4.7c11-0.1,22.2,0.9,33.8,2.1
					c11.5,1.2,23.3,2.6,35.3,4.5c6,0.9,12,2,18.1,3.1c6.1,1.2,12.2,2.3,18.3,3.8c6.1,1.6,12.1,3.7,17.5,7.1c2.7,1.7,5.2,3.6,7.3,6
					c2.1,2.4,3.7,5.2,4.9,8.1c1.1,3,1.6,6.2,1.9,9.5c0.2,3.2,0.2,6.5,0.1,9.8c-0.1,6.6-0.2,13.3-0.3,20c-0.2,13.4-0.4,26.6-0.7,39.7
					c-0.3,13-0.8,25.9-2.3,38.4c-1.5,12.5-4.2,24.7-8.5,36c-4.3,11.3-10.2,21.7-17.4,30.8c-7.2,9-15.7,16.7-25.1,22.4
					c-9.3,5.7-19.5,9.4-29.6,11.2c-5.1,0.9-10.1,1.3-15.1,1.3c-5,0-9.8-0.6-14.5-1.5c-9.4-1.8-17.8-5.7-25.2-10.4
					c-7.4-4.7-13.8-10.1-19.5-15.5c-5.7-5.4-10.9-10.8-15.4-16.1c-4.6-5.3-8.5-10.4-12-15.2c-1.8-2.4-3.4-4.8-4.9-7
					c-1.5-2.3-2.9-4.4-4.2-6.5c-5.1-8.4-8.6-15.1-10.9-19.8c-1.2-2.3-1.9-4.1-2.5-5.3c-0.3-0.6-0.5-1.1-0.6-1.4
					c-0.1-0.3-0.2-0.5-0.2-0.5s0.1,0.2,0.2,0.5c0.1,0.3,0.3,0.8,0.6,1.4c0.5,1.2,1.3,3,2.4,5.4c2.2,4.7,5.6,11.5,10.7,19.9
					c1.2,2.1,2.7,4.3,4.1,6.6c1.5,2.3,3.1,4.6,4.9,7.1c3.5,4.9,7.5,10,12,15.3c4.5,5.3,9.7,10.7,15.4,16.2
					c5.7,5.4,12.2,10.9,19.6,15.6c7.4,4.7,16,8.7,25.4,10.5c4.7,1,9.6,1.6,14.6,1.6c5,0,10.1-0.4,15.2-1.3
					c10.2-1.8,20.4-5.6,29.9-11.3c9.5-5.7,18-13.4,25.3-22.5c7.3-9.1,13.3-19.6,17.6-31c4.3-11.4,7-23.7,8.5-36.2
					c1.6-12.6,2.1-25.4,2.3-38.5c0.2-13,0.4-26.3,0.7-39.7c0.1-6.7,0.2-13.4,0.3-20c0.1-3.3,0.1-6.6-0.1-9.9
					c-0.2-3.3-0.8-6.6-1.9-9.7c-1.2-3.1-2.9-6-5.1-8.4c-2.2-2.5-4.8-4.5-7.6-6.2c-5.5-3.4-11.7-5.5-17.8-7.2
					c-6.1-1.6-12.3-2.7-18.4-3.9c-6.1-1.1-12.2-2.2-18.2-3.1c-12-1.9-23.8-3.3-35.4-4.5c-11.6-1.1-22.9-2.1-33.9-2
					c-11,0.1-21.8,1.4-31.6,4.8c-9.8,3.4-18.5,9-25,16.2c-3.2,3.6-5.9,7.6-7.8,11.8c-1.9,4.2-3,8.7-3.5,13.1
					c-0.8,8.8,0.5,17.2,0.9,25c0.2,3.9,0.2,7.8-0.2,11.5c-0.4,3.7-1.1,7.2-2,10.6c-1.7,6.7-3.9,12.9-5.6,18.6
					c-1.7,5.7-3.1,11.1-3.6,16c-0.6,4.9-0.4,9.3,0.1,13.1c0.5,3.8,1.6,6.8,2.7,9.2c0.2,0.6,0.6,1.1,0.8,1.6c0.3,0.5,0.5,1,0.8,1.4
					c0.6,0.8,1,1.5,1.4,2c0.4,0.5,0.7,0.9,0.9,1.2C344.2,480.9,344.3,481,344.3,481z"/>
			</g>
		</g>
	</g>
	<g>
		<path class="st6" d="M548.5,460.4c4.3-8,7.4-16.7,9-25.7c0.6-3,1-6.1,0.1-9c-0.8-2.9-3.1-5.6-6.2-6c-2.3,12.9-4.6,26.1-2.7,39.1"
			/>
		<g>
			<g>
				<path d="M548.8,458.9c0.1,0,0-1.2-0.2-3.3c-0.2-2.1-0.3-5.2-0.1-9.1c0.2-3.8,0.6-8.4,1.3-13.4c0.4-2.5,0.8-5.1,1.3-7.9
					c0.2-1.4,0.5-2.7,0.7-4.1l0.1-0.8c0,0,0,0,0,0l0.3,0.1c0.6,0.2,1.3,0.5,1.8,0.9c1.1,0.8,2,1.9,2.6,3.1c0.6,1.2,0.9,2.6,1,3.9
					c0.2,2.7-0.3,5.3-0.8,7.8c-1,5-2.3,9.3-3.6,12.9c-1.3,3.6-2.5,6.5-3.4,8.4c-0.9,2-1.4,3-1.3,3.1c0,0,0.2-0.2,0.5-0.7
					c0.3-0.5,0.7-1.2,1.2-2.2c1-1.9,2.3-4.7,3.7-8.3c1.4-3.6,2.8-8,3.8-13c0.5-2.5,1.1-5.2,0.9-8c-0.1-1.4-0.4-2.9-1.1-4.2
					c-0.7-1.3-1.6-2.6-2.9-3.5c-0.6-0.4-1.4-0.8-2.1-1l-0.3-0.1l-0.5-0.1l-0.5-0.1c-0.1-0.1-0.1,0.1-0.1,0.2l0,0.3l-0.2,1.3
					c-0.2,1.4-0.5,2.8-0.7,4.2c-0.5,2.7-0.9,5.4-1.2,7.9c-0.7,5-1,9.6-1.1,13.5c-0.1,3.9,0.2,7,0.4,9.1c0.1,1.1,0.3,1.9,0.4,2.5
					C548.7,458.6,548.8,458.9,548.8,458.9z"/>
			</g>
		</g>
	</g>
	<g>
		<path class="st7" d="M551,442.2c1.1-2.1,2.1-4.1,3.2-6.2c0.8-1.6,1.6-3.2,1.9-4.9s0.1-3.7-1.1-5c-1,2.4-2.1,4.7-3.1,7.1
			c-0.4,0.9-0.8,1.9-1.1,2.8c-0.5,1.8-0.4,3.9,0.9,5.3"/>
		<g>
			<g>
				<path d="M551.7,441.3c0.1-0.1-0.3-0.4-0.6-1.2c-0.3-0.8-0.4-2-0.1-3.4c0.3-1.4,1.2-3,2-4.9c0.6-1.4,1.4-3,2.1-4.7l0,0
					c0.1,0.1,0.1,0.2,0.2,0.4c0.1,0.2,0.2,0.5,0.3,0.7c0.1,0.5,0.2,1,0.2,1.5c0,1-0.2,2-0.6,2.9c-0.7,1.8-1.6,3.5-2.2,4.8
					c-1.3,2.8-2.1,4.5-2,4.6c0.1,0.1,1.1-1.6,2.6-4.3c0.7-1.4,1.7-2.9,2.5-4.9c0.4-1,0.7-2.1,0.7-3.3c0-0.6-0.1-1.2-0.2-1.8
					c-0.1-0.3-0.2-0.6-0.3-0.9c-0.1-0.1-0.1-0.3-0.2-0.4c-0.1-0.2-0.3-0.5-0.4-0.7l-0.5-0.6l-0.1-0.2c0,0,0,0-0.1,0l0,0.1l-0.2,0.3
					c-0.2,0.4-0.5,1.2-0.6,1.3c-0.2,0.5-0.4,1-0.7,1.5c-0.4,1-0.9,2-1.3,2.9c-0.8,1.9-1.6,3.5-1.8,5.1c-0.3,1.6,0,2.9,0.5,3.7
					C551.2,441.1,551.7,441.3,551.7,441.3z"/>
			</g>
		</g>
	</g>
	<g>
		<path class="st7" d="M322.7,450c-1.4-5.8-2.9-11.6-3.2-17.5s0.5-12.1,3.4-17.3c0.5-1,1.2-2,2.2-2.5c1.5-0.7,3.4-0.1,4.8,0.8
			c3,2,4.9,5.2,6.4,8.4c2.1,4.3,3.8,8.8,5,13.4c1.7,6.5,2.6,13.2,2.5,19.8c0,1.3-0.3,2.9-1.5,3.2c-0.8,0.2-1.6-0.3-2.3-0.8
			c-7.1-5.2-11.1-14.2-10.3-22.9"/>
		<g>
			<g>
				<path d="M329.7,434.8c0,0-0.3,1.7-0.1,4.8c0.3,3,1.3,7.6,4.4,12.2c1.6,2.3,3.6,4.6,6.3,6.4c0.4,0.2,0.8,0.4,1.2,0.5
					c0.4,0.1,1,0,1.3-0.3c0.8-0.6,1-1.6,1.1-2.4c0.1-1.8,0-3.5-0.1-5.3c-0.4-7.3-1.9-15.3-5-23.1c-0.8-2-1.6-3.9-2.5-5.7
					c-0.9-1.8-1.9-3.6-3.1-5.2c-1.2-1.6-2.7-3-4.5-3.8c-0.9-0.4-1.9-0.7-2.9-0.5c-1,0.1-1.9,0.8-2.4,1.5c-1.1,1.5-1.8,3.2-2.4,4.8
					c-0.6,1.6-1,3.3-1.3,4.9c-0.6,3.2-0.6,6.3-0.5,9c0.4,5.5,1.5,9.9,2.2,12.9c0.4,1.5,0.7,2.6,0.9,3.4c0.1,0.4,0.2,0.7,0.2,0.9
					c0.1,0.2,0.1,0.3,0.1,0.3c0,0,0-0.1-0.1-0.3c0-0.2-0.1-0.5-0.2-0.9c-0.2-0.8-0.4-2-0.8-3.5c-0.6-3-1.7-7.4-2-12.8
					c-0.1-2.7-0.1-5.8,0.5-8.9c0.3-1.6,0.7-3.2,1.3-4.8c0.6-1.6,1.3-3.2,2.4-4.7c0.5-0.7,1.3-1.2,2.1-1.3c0.9-0.1,1.8,0.1,2.6,0.5
					c1.7,0.8,3.1,2.2,4.3,3.7c1.2,1.5,2.2,3.3,3.1,5.1c0.9,1.8,1.7,3.7,2.5,5.7c3.1,7.8,4.6,15.7,5,23c0.1,1.8,0.2,3.6,0.1,5.3
					c-0.1,0.8-0.3,1.7-0.9,2.1c-0.6,0.5-1.4,0.2-2.1-0.2c-2.6-1.8-4.7-4-6.3-6.3c-3.1-4.5-4.2-9-4.5-12c-0.2-1.5-0.2-2.7-0.1-3.5
					c0-0.4,0-0.7,0-0.9C329.7,434.9,329.7,434.8,329.7,434.8z"/>
			</g>
		</g>
	</g>
	<g>
		<path class="st6" d="M329.6,405c-3.5-0.6-7,1.3-9.1,4.1c-2.1,2.8-3.1,6.3-3.8,9.7c-1.4,7.1-1.6,14.4-0.7,21.5
			c0.5,4.1,1.4,8.2,2.3,12.3c1.4,6.4,2.7,12.7,4.1,19.1c1,4.7,2.1,9.5,5,13.2s8.3,6,12.6,3.9c4.7-2.3,5.9-8.4,5.8-13.7
			c-0.1-10.4-2.6-20.9-0.5-31.1c1.5-7.3,5.3-14,6-21.4c0.7-7-1.8-14.5-7.3-18.8s-14.3-4.5-19.3,0.4"/>
		<g>
			<g>
				<path d="M324.7,404.4c0,0,0.2-0.1,0.4-0.3c0.1-0.1,0.3-0.3,0.5-0.4c0.2-0.2,0.5-0.3,0.8-0.5c1.2-0.7,3.1-1.7,5.8-2
					c2.6-0.3,6.1,0,9.4,1.7c3.3,1.8,6.4,5.2,8,9.7c0.8,2.2,1.3,4.7,1.4,7.3c0.1,2.6-0.4,5.3-1.1,8c-1.4,5.5-4.2,11-5.3,17.4
					c-1.1,6.4-0.5,13.2,0.1,20.2c0.3,3.5,0.6,7,0.6,10.6c0,1.8-0.2,3.6-0.6,5.3c-0.4,1.7-1.1,3.4-2.1,4.8c-1.1,1.4-2.5,2.4-4.2,2.9
					c-0.8,0.2-1.7,0.3-2.5,0.2c-0.9-0.1-1.7-0.3-2.5-0.5c-1.6-0.6-3.1-1.5-4.4-2.7c-1.2-1.2-2.2-2.6-3-4.1c-1.5-3-2.3-6.4-3-9.6
					c-0.7-3.3-1.4-6.5-2.1-9.6c-1.3-6.3-2.7-12.2-3.8-17.8c-1-5.6-1.4-10.9-1.2-15.7c0.2-4.8,0.8-9.2,1.7-12.9
					c0.9-3.7,2.5-6.7,4.5-8.5c2-1.8,4-2.5,5.4-2.7c1.4-0.2,2.2,0,2.2,0c0,0-0.7-0.3-2.2-0.2c-1.4,0.1-3.6,0.8-5.7,2.6
					c-2.1,1.8-3.8,4.9-4.7,8.7c-0.9,3.8-1.6,8.1-1.9,13c-0.2,4.9,0.1,10.2,1.1,15.9c1,5.6,2.4,11.6,3.7,17.8
					c0.7,3.1,1.4,6.3,2.1,9.6c0.7,3.3,1.5,6.7,3.1,9.9c0.8,1.6,1.8,3.1,3.2,4.4c1.3,1.3,2.9,2.3,4.7,2.9c0.9,0.3,1.8,0.5,2.8,0.6
					c1,0.1,1.9,0,2.9-0.2c1.9-0.5,3.6-1.7,4.8-3.2c1.2-1.6,1.9-3.4,2.3-5.2c0.4-1.8,0.6-3.7,0.6-5.5c0-3.6-0.3-7.2-0.6-10.7
					c-0.6-6.9-1.3-13.7-0.2-19.9c1-6.3,3.8-11.8,5.2-17.4c0.7-2.8,1.2-5.6,1.1-8.3c-0.1-2.7-0.6-5.2-1.5-7.6
					c-1.7-4.6-4.9-8.1-8.4-9.9c-3.5-1.8-7-2-9.7-1.6c-2.7,0.4-4.7,1.4-5.8,2.3c-0.3,0.2-0.5,0.4-0.8,0.6c-0.2,0.2-0.4,0.3-0.5,0.5
					C324.8,404.2,324.7,404.4,324.7,404.4z"/>
			</g>
		</g>
	</g>
	<g>
		<path class="st7" d="M337.2,444.2c-2.1,1.6-4.1,3.2-6.2,4.9"/>
		<g>
			<g>
				<path d="M331.1,449.1c0.2,0.2,1.7-0.7,3.4-2c1.7-1.3,2.9-2.6,2.8-2.8c-0.2-0.2-1.7,0.7-3.4,2
					C332.2,447.6,330.9,448.9,331.1,449.1z"/>
			</g>
		</g>
	</g>
	<g>
		<path class="st7" d="M344.5,469c-4.9,0.4-10-2.5-12.2-6.9c-0.6-1.1-1-2.4-1.7-3.5c-0.7-1.1-1.6-2.1-2.9-2.4"/>
		<g>
			<g>
				<path d="M327.7,456.3c-0.1,0.1,1.3,0.4,2.3,2.1c0.5,0.8,0.9,1.9,1.5,3.2c0.5,1.3,1.4,2.6,2.5,3.8c2.3,2.3,5.1,3.4,7.2,3.7
					c2.1,0.3,3.4,0,3.3-0.1c0-0.2-1.3-0.1-3.2-0.6c-1.9-0.5-4.5-1.6-6.6-3.8c-1-1.1-1.8-2.3-2.4-3.5c-0.6-1.2-1.1-2.4-1.7-3.2
					c-0.7-0.9-1.4-1.4-2-1.6C328.1,456.2,327.7,456.2,327.7,456.3z"/>
			</g>
		</g>
	</g>
	<g>
		<path class="st7" d="M343.6,453.9c-3.4-0.7-5.2-4.4-5.5-7.9c-0.3-3.4,0.5-6.9,0.1-10.3c-0.4-3.2-1.7-6.3-3.9-8.7
			c-2.9-3.2-7.9-5-11.5-2.8c-3.5,2.2-4,7.6-1.4,10.7c2.7,3.1,7.8,3.4,11.1,1.1"/>
		<g>
			<g>
				<path d="M332.4,436c-0.1-0.1-0.8,0.5-2.4,1c-0.8,0.2-1.8,0.4-3,0.3c-1.2-0.1-2.5-0.4-3.7-1.2c-1.2-0.8-2.4-2-2.8-3.6
					c-0.5-1.6-0.5-3.5,0.3-5.3c0.4-0.9,1-1.6,1.7-2.2c0.8-0.6,1.7-1,2.7-1.1c2-0.3,4.2,0.3,6.1,1.4c1.9,1.1,3.4,2.9,4.4,4.7
					c1.1,1.8,1.7,3.8,1.9,5.8c0.2,1.9,0.1,3.8,0,5.6c-0.1,1.8-0.1,3.5,0.1,5c0.4,3.1,1.9,5.4,3.4,6.4c0.7,0.5,1.3,0.8,1.8,0.9
					c0.4,0.1,0.7,0.1,0.7,0.1c0-0.1-1-0.2-2.2-1.3c-1.2-1.1-2.6-3.2-2.9-6.2c-0.2-1.5-0.1-3.1,0.1-4.9c0.1-1.8,0.3-3.7,0.1-5.8
					c-0.2-2.1-0.9-4.2-2-6.2c-1.1-2-2.7-3.8-4.8-5.1c-2-1.3-4.5-1.9-6.8-1.6c-1.2,0.2-2.2,0.7-3.1,1.4c-0.9,0.7-1.6,1.6-2,2.6
					c-0.9,2-0.9,4.1-0.3,5.9c0.3,0.9,0.7,1.7,1.3,2.4c0.6,0.7,1.2,1.2,1.9,1.6c1.4,0.8,2.8,1.1,4.1,1.1c1.2,0,2.3-0.2,3.1-0.5
					c0.8-0.3,1.4-0.6,1.8-0.9C332.3,436.2,332.4,436.1,332.4,436z"/>
			</g>
		</g>
	</g>
	<path class="st8" d="M379,378.8c2.1-1,4.3-1.9,5.4-3.9c0.6-1.2,0.7-2.5,1-3.8c1.7-7.6,9.9-11.7,17.1-14.7c5.9-2.5,11.9-4.9,18.3-6
		c2.5-0.4,5.1-0.6,7.2-1.9c1.2-0.7,2.2-1.7,3.6-2s3.1,0.7,2.8,2.1c11.2-4.8,25-2.3,33.8,6.1c2.4,2.3,4.8,5.2,8.1,5.6
		c2.1,0.3,4.2-0.6,6.2-1.2c3.8-1.3,8.4-1.9,11.4,0.7c2.3,1.9,3,5.1,3.9,7.9c0.9,2.8,2.6,5.9,5.5,6.5c1.6-1,2.7-2.7,3-4.5
		c3.1,0.1,5.2,3.1,6.7,5.7c2.4,4.1,4.8,8.2,7.3,12.3c1.2-4.6,6.7-6.7,9.5-10.6c2.6-3.6,2.6-8.5,1.1-12.6c-1.5-4.1-4.5-7.6-7.6-10.7
		c-5.9-6-12.7-11.2-20-15.4c-21-12.2-45.9-15.8-70.2-16.6c-10.1-0.3-20.4-0.2-30,3c-10.5,3.4-19.5,10.2-28.3,16.9
		c-2.4,1.9-4.9,3.7-6.8,6.2c-4.8,6.3-4.9,14.9-4.7,22.8c0.1,2.9-1.3,15.2,1.9,16c2,0.5,4.5-2.4,6-3.4
		C373.8,381.5,376.3,380,379,378.8z"/>
	<path class="st9" d="M328.8,383.2c0.4,6.4,0.8,12.9,1.1,19.3c0.1,0.9,0.1,1.9,0.6,2.7c1,1.6,3.2,1.9,4.9,2.5c3.4,1.1,6,4,7.8,7
		c1.8,3.1,3,6.5,4.7,9.6c0.4,0.8,0.9,1.6,1.1,2.5c0.2,0.9,0.2,1.8,0.1,2.7c-0.1,2.3,0,4.5,0.1,6.8c1.2-2.2,2.3-3.9,3.5-6.1
		c0.8-1.4,1.6-2.8,1.9-4.4c0.3-1.4,0.3-2.9,0.4-4.3c0.1-2.6,0.3-5.2,0.5-7.9c0.2-2.5,0.4-5,1.3-7.3c0.8-2,2-3.8,3-5.7
		c1.5-3.1,2-6.5,3.5-9.6c0.9-1.8,2.2-3.5,2.9-5.4c1-2.6,1.1-6.1,3.7-7.2c-0.4,0.2-0.8-0.5-0.7-0.9c0.2-0.4,0.7-0.7,1.1-0.8
		c0.4-0.2,0.9-0.3,1.2-0.7c-1-0.4-2-0.9-3-1.3c0.7-1,1.4-2.1,2.1-3.1c-10.1-0.5-20.3,0.4-30.2,2.7c-2.1,0.5-4.2,1.1-6.1,2.2
		s-3.4,3-3.7,5.1c-0.1,0.5-0.1,0.9-0.3,1.3C329.9,383.8,329.8,383.1,328.8,383.2z"/>
	<path d="M328.4,377.8c-0.6-3.1-0.7-6.3-0.2-9.4c0.1-0.4,0.1-0.8-0.2-1.1c-0.2-0.2-0.5-0.2-0.7-0.4c-0.5-0.4-0.1-1.3,0.1-1.9
		c0.5-1.3-0.1-2.7-0.4-4.1c-0.3-1.4,0-3.1,1.4-3.5c-0.3-0.1-0.6-0.3-0.9-0.4c-0.2-1.6-0.4-3.3,0.5-4.6c0.2-0.4,0.6-0.7,0.7-1.1
		c0.5-1.2-0.7-2.5-0.7-3.8c0-0.5,0.2-1,0.1-1.4c-0.1-0.6-0.6-1.1-0.9-1.6c-1.2-2.2,1.1-5.3-0.4-7.3c-0.5-0.7-1.5-1.7-0.8-2.3
		c0.2-0.2,0.5-0.2,0.7-0.3c1.1-0.4,1.3-1.9,1.4-3c0.1-2.2-0.1-5-2.1-5.9c1.8-0.1,3.6-0.8,4.5-2.3c0.8-1.6,0.1-3.9-1.6-4.2
		c1.4-1.8,1.5-4.5,0.2-6.4c7,1,14-1.1,21-0.6c1.9,0.1,3.8,0.4,5.4,1.2c2.7,1.3,4.6,3.7,6.4,6c2,2.7,3.9,5.4,5.7,8.3
		c0.9,1.4,1.8,2.9,1.7,4.6c0,0.6-0.2,1.2-0.2,1.9c0,0.6,0.2,1.1,0.3,1.6c0.9,4.1,0.4,8.3,0,12.4c-0.1,0.8-0.1,1.7,0.4,2.4
		c0.2,0.3,0.6,0.5,0.8,0.8c0.3,0.4,0.3,1,0.2,1.5c-0.3,2.9-0.9,5.8-1.9,8.6c1.1,0.2,0.3,2.1,1,3c0.2,0.3,0.6,0.5,0.8,0.8
		c0.3,0.4,0.4,0.9,0.5,1.4c0.3,2.9-1,5.8-3.2,7.6c-2.2,1.7-5,2.3-7.7,3.1c-5.4,1.5-10.5,3.8-15.7,5.7c-4.2,1.5-8.6,2.7-13,2.9
		c-1.8,0.1-3.1,0.4-3.7-1.5C327.2,382.4,327.7,379.6,328.4,377.8z"/>
	<path d="M371.2,362.4c0.7-1,1.5-2,2.7-2c-1.4-0.1-2.8-0.1-4.1-0.2c1.4-1.8,2.8-3.6,3-5.8c0.1-1.2-0.1-2.5,0-3.7
		c0.1-1.2,0.5-2.6,1.6-3.1c-1.1,0-2.3-0.2-3.4-0.6c1-1.1,2-2.3,3-3.4c0.8-1,1.7-2.2,1.2-3.4c-0.2-0.4-0.6-0.8-0.8-1.2
		c-0.9-1.5,0.3-3.3,1.5-4.6c-0.7-0.4-1.4-0.8-2.1-1.3c1.3-1,2.6-2.1,4-3.1c0.1-2.4,0.2-4.8,0.3-7.1c-3.2-1.3-6.4-2.4-9.7-3.5
		c0.8-1.3,1.5-3,0.8-4.4c-0.9-1.6-3.3-1.6-4.9-2.5c-1.3-0.8-2-2.2-2.9-3.5c-1.2-1.7-2.8-3.2-4.7-4.3c0.7-0.1,1.4-0.3,2.1-0.4
		c-2.6-1.2-5.5-1.9-8.4-2c-0.9,0-1.8,0-2.7-0.2c-1-0.3-2-0.9-3-1.2c-1.4-0.5-2.8-0.5-4.3-0.6c-1.5,0-3.1,0-4.4,0.7
		c-1.2,0.7-2.1,2.2-3.6,2.4c0.8,0.7,1.2,1.9,0.9,2.9c-0.3,1-1.2,1.9-2.3,2.1c1.1,0.9,3.1,1.1,3.1,2.4c0,1.2-1.6,1.6-2.8,1.6
		c0.8,0.3,1.7,0.8,1.5,1.6c-0.1,0.3-0.3,0.4-0.4,0.7c-0.7,1.1,0.4,2.4,1,3.6c0.8,1.5,0.9,3.2,1,4.8c0.1,2.6,0.2,5.2,0.4,7.8
		c0.1,1.8,0.2,3.6,0.8,5.3c0.9,2.7,3,4.7,4.8,6.9c1.1,1.3,2,2.7,2.7,4.3c0.7,1.8,1.1,3.7,2.2,5.3c0.9,1.2,2.3,2,3.6,2.8
		c2.8,1.7,5.7,3.3,8.5,5c2.6,1.5,5.3,3.1,8,4.5c1,0.5,2.2,1.5,3.3,1C369.5,365.7,370.6,363.3,371.2,362.4z"/>
	<path d="M340.3,290.6c-1.6,0-1.6-2.4-1-3.9c2.2-4.9,5.5-9.4,9.6-13.1c5.8-5.3,13.4-9,17.2-15.9c0.5,0.4,1.1,0.8,1.6,1.2
		c5.5-4.1,13.9-3,18.8-7.8c1.3-1.3,2.4-3,4.1-3.8c1.7-0.8,3.6-0.5,5.5-0.6c4.2-0.2,7.9-2.7,11.9-4c3.3-1.1,7-1.5,10-3.3
		c3-1.8,5.2-5.8,3.5-8.9c3.6,3.2,9.3,3.8,13.6,1.6c0.8-1.4,1.6-2.7,2.4-4.1c-0.4,1.7,1.9,2.9,3.7,2.9c4.5,0.2,8.8-1.6,13.3-1.9
		s9.8,1.4,11,5.8c0.9-2,3.9-2,5.8-0.9s3.4,2.9,5.5,3.7c3.5,1.3,7.6-0.6,11,0.9c2.2,0.9,3.6,3,5.2,4.7c3.5,3.9,8.3,6.7,13.4,7.8
		c1.6-1.2,3.7-1.7,5.6-1.3c-1.8,1.1-3.8,1.9-5.9,2.3c2,1.1,4.3,1.7,6.5,1.8c-1.1,0.8-2.2,1.6-3.2,2.4c2.1,1.4,4.4,2.5,6.8,3.5
		c-1,0.2-1.9,0.5-2.9,0.7c2.7,1.8,5.8,3.1,8.9,3.9c-1.3,0.5-2.7,0.9-4,1.4c1.1-1,3.1,0,3.4,1.4c0.3,1.5-0.7,2.9-1.8,3.8
		s-2.5,1.5-3.7,2.5c-0.8,0.6-1.4,1.4-2,2.2c-1.3,2.2-1.6,4.9-2,7.4c-1.9,11.3-7.8,21.9-16.4,29.5c-2.3,2-5,4.4-4.7,7.4
		c0.2,1.6,1.2,2.9,2.1,4.1c2.4,3.1,4.8,6.2,7.1,9.3c-3.3,0.7-6.9,0-9.8-1.7c0.5,1,0.9,1.9,1.4,2.9c-1.2-0.4-2.3-1.1-3.3-2
		c-0.7,0.4-1.3,0.7-2,1.1c-1.2-1.8-2.4-3.7-3.6-5.5c-1.4,1.2-4.3,1.8-4.3,0c0.5,0.4-0.2,1.3-0.8,1.2s-1.2-0.6-1.8-0.9
		c-1.7-0.8-3.6,0.3-5.1,1.4c-0.3-0.8-0.7-1.6-1-2.4c-1-0.1-1.9,0.2-2.7,0.9c-1.3-1.9-2.6-3.8-3.9-5.8c-1.6,1.9-2.9,4.1-3.9,6.4
		c0-1.1,0.1-2.2,0.1-3.4c-0.7,0.1-1.4,0.3-2.2,0.4c-1.2-1.7-2.3-3.5-3.5-5.2c-2.9-0.3-5.6-2.4-6.7-5.1c-1,0.7-1.6,1.9-1.7,3.1
		c-0.6-1.1-1.2-2.3-1.7-3.4c-1.2,0.8-2.6-0.6-3.4-1.7c-1.9-2.4-4.4-4.2-7.2-5.3c-1-0.4-2.1-0.7-3.2-0.7c-1.2,0-2.3,0.3-3.5,0.5
		c-7.8,2-15.6,3.9-23.5,5.9c-2.4,0.6-4.8,1.2-6.8,2.7c-1.6,1.2-2.8,2.9-4.2,4.2c-3.8,3.4-9.1,4.4-14.1,5.3c-1.2,0.2-2.4,0.4-3.5,0.1
		c-1-0.3-1.9-1-2.8-1.7c-5.5-4.7-9.6-10.7-14.7-15.7c-5.2-5-12-9.1-19.2-8.3c-0.2,0.8-0.3,1.6-0.6,2.2c-1.6-1.7-1.6-4.9-1-7
		C336.5,294.7,338.4,290.6,340.3,290.6z"/>
	<path d="M409.5,327.9c1.4,0,2.9-0.1,4.3-0.6c2.2-0.8,3.8-2.8,6-3.4c2.7-0.8,5.6,0.4,8.1,1.7c3.4,1.7,6.9,3.3,10.3,5
		c3.3,1.6,6.7,3.3,8.7,6.3c0.1-1.8,2.7-1.9,4.4-1.4c7.6,2.2,15.2,4.4,22.8,6.6c3.2,0.9,6.5,2,8.6,4.5c1,1.2,1.6,2.8,2.9,3.7
		c3.8,2.8,9.4-2,13.8-0.3c4.3,1.6,4.9,7.9,9,10c4,1.9,8.4-1.2,11.7-4.2c3.5,6.9,8.9,12.8,15.3,17.1c0.7-0.5,1.5-0.9,2.2-1.4
		c1.2,1.1,2.1,2.4,2.8,3.9c1.2-0.5,2.4-1,3.6-1.4c1.7,3.7,4.5,6.9,8,9.1c-0.3-1.2,0.2-2.5,1.2-3.2c4-0.5,7.9-2,11.2-4.5
		c0.2,0.9,0.3,1.8,0.5,2.8c0.8-1.2,1.6-2.3,2.4-3.5c0.5,1.2,1.1,2.3,1.6,3.5c0.9-1,1.5-2.2,1.8-3.5c-0.7,0.4,0.8,0.6,1.2-0.1
		c1.7-3.3,2.4-7.2,2-10.9c0,2.1,0.4,4.2,1.1,6.2c2.2-3.5,3.2-7.7,2.8-11.8c-0.2,1.5-0.5,3.1-0.7,4.6c0-4.2,0-8.4,0.1-12.6
		c-0.1,1.8-0.5,3.6-1.3,5.3c0.1-3-0.3-6-1-9c-0.1,1.3-0.3,2.7-0.4,4c-0.2-3.9-0.3-7.8-0.5-11.6c-0.3,2.4-0.5,4.9-0.8,7.3
		c0.3-4.7-0.1-9.3-1.1-13.9c0,0.9-0.1,1.8-0.1,2.7c-1.1-9.4-4-18.7-8.6-27c-0.2,0.9-0.5,1.9-0.7,2.8c-2.9-4.3-5.3-9-7.2-14
		c-0.2,0.9-0.3,1.9-0.5,2.8c-0.3-1-0.7-2-1-3c-2.2-1.5-4.5-2.9-6.7-4.4c-0.6-1.8-1.2-3.6-1.8-5.3c-1.1,0.1-2.3,0.2-3.4,0.3
		c-0.1-3.2,0.5-6.5,1.9-9.5c0.4,0.8,0.9,1.7,1.7,2c0.8,0.3,2.1-0.3,1.9-1.2c-1,0-1.9,0.3-2.6,1c-2.7-3.3-6.1-6.1-9.8-8.3
		c0.7,1-1.3,1.6-2.5,1.1c-5.2-2-10.4-4-15.6-6.1c-3.9-1.5-7.8-3-11.8-4.3c-6.4-2-13.1-3.4-19.7-2.4c-4.7,0.7-9.2,2.6-13.6,4.5
		c-7.9,3.4-15.9,6.7-23.1,11.5c-7.1,4.7-13.3,10.7-20.3,15.5c-14.9,10.2-32.8,14.7-47.8,24.7c-4,2.6-8.4,5.8-11.3,9.6
		c2.8,0.5,4.8,1.5,7.3,2.6c3,1.2,6.3,0.7,9.5,0.6C393.9,328.2,401.7,328,409.5,327.9z"/>
	<path d="M571.7,324.5c-0.3-1.3-1-2.4-1.4-3.6c-1-2.6-1.1-5.4-1.7-8.1c-0.9-4.8-3.1-9.4-6.3-13.2c-0.2,1.2-1.9,1.7-3,1.1
		c-1.1-0.6-1.7-1.8-2.2-3c-1.9-4.6-3.2-9.4-3.7-14.4c-2-0.5-3.6-2.2-4.1-4.2c-0.8,0.5-1.3,1.4-1.6,2.3c-0.2-2.4-0.2-4.9,0.1-7.3
		c-1.8,1.1-4.2,0.6-5.8-0.6c-1.7-1.2-2.7-3.1-3.8-4.9c-1.8-3.2-3.7-6.3-5.5-9.5c0.4,0.2,0,1-0.4,0.9c-0.5,0-0.8-0.4-1.1-0.8
		c-2.4-3.1-4.7-6.3-6.9-9.6c0.5,1.6-2,2.9-3.5,2c-1.5-0.8-2.1-2.6-2.6-4.3c-1.1,0.3-2.3,0.5-3.4,0.8c-3.1,0.7-6.5,1.3-9.1-0.4
		c-2.4-1.7-4.3-5.3-7.1-4.4c-0.5,0.2-1,0.5-1.6,0.6c-1.5,0.1-2.2-1.9-3.6-2.7c-0.9-0.5-2-0.5-3-0.4c-4.9,0.4-9.9,0.8-14.6,2.3
		c-3.4,1.1-6.5,2.9-9.7,4.6c-3,1.7-6,3.3-9,5c-1.1,0.6-2.3,1.3-3,2.4c-0.6,0.9-0.8,2.1-0.9,3.2c-0.6,8.7,4,16.9,8.7,24.2
		c13,19.9,29,38.5,50.1,49.3c7,3.6,14.5,6.3,21.9,8.9c7.6,2.6,15.1,6.2,22.9,8.2c4.8,1.3,10,1,12.6-3.8c1.4-2.7,1.2-5.7,1.3-8.7
		C571,332.7,572.5,328.2,571.7,324.5z"/>
	<path d="M381.7,345.8c0.9-0.4,1.9-0.3,2.9-0.5c1.8-0.4,3.1-1.8,4.7-2.8c1.6-0.9,4-1,4.8,0.6c1.7-2.3,4.7-3.1,7.5-3.9
		c3.6-0.9,7.1-1.8,10.7-2.7c2.7-0.7,5.4-1.4,8.2-1.7c6.7-0.7,13.5,0.8,20,2.7c1.1,0.3,2.3,0.7,3.4,0.5c1.3-0.2,2.4-1,3.2-2
		c2.4-2.8,2.5-7.2,0.2-10.1c-1.3-1.7-3.2-2.8-5.1-3.7c-11.6-5.9-24.9-8.1-37.9-7.2c-13,0.9-25.7,5-37.2,11c-1.4,0.8-2.9,1.6-3.8,2.9
		c-1.1,1.6-1.3,3.7-1.4,5.6c-0.1,5.4-0.4,18.2,6.2,20.4c2.4,0.8,5.6-0.7,7.7-1.9C378.6,351.3,379,347,381.7,345.8z"/>
	<path d="M516.7,363.9c1.7,1.5,3.6,2.8,5.2,4.5c2.5,2.7,3.9,6.5,3.7,10.3c1.2-0.9,2.1-2.2,2.6-3.6c1.5,1,2.5,2.9,2.4,4.8
		c1.1-1.5,3.2-2,5-1.7c1.8,0.4,3.4,1.4,5,2.4c0.6,0.4,1.3,0.9,1.7,1.5c0.3,0.5,0.5,1.1,0.6,1.7c1.5,6.5,2.9,13.1,4.4,19.6
		c0.8,3.5,1.5,6.9,1.8,10.5c0.4,5.5-0.3,10.9-1.1,16.3c0.5-3,1.1-5.9,1.6-8.9c0.1-0.7,0.3-1.6,0.9-2c0.6-0.4,1.7,0,1.6,0.7
		c3.4-4.5,1.9-11.5,5.5-15.9c0,0.8,0,1.5-0.1,2.3c-1.9-4.3-0.1-9.2,1.6-13.6c1-2.5,2-5,3-7.5c0.1,1.1,1.7,1.4,2.6,0.8
		c0.9-0.6,1.2-1.8,1.5-2.8c0.9-3.4,1.7-6.7,2.6-10.1c0.5-1.8,0.9-3.6,0.5-5.4c-0.8-3.3-4.3-5-7.4-6.3c-11.8-4.8-23.7-9.2-36.1-12.1
		c-3.1-0.7-6.3-1.3-9.3-0.6c-2.7,0.7-6.3,3.2-5.9,6.4C511.1,358.2,514.6,362,516.7,363.9z"/>
	<path class="st10" d="M617,389.5c0.2,0.1,0.5,0.2,0.7,0.3"/>
	<g>
		<g>
			<g>
				<path d="M476.1,541.9c-0.1-0.1-0.3-0.1-0.6-0.1c-0.1,0-0.3,0-0.5,0.1c-0.2,0-0.5,0.2-0.8,0.4c-0.5,0.4-0.7,1-0.6,1.3
					c0,0.4,0.2,0.6,0.3,0.6c0.3-0.1,0.4-0.7,1-1.1c0.1-0.1,0.2-0.2,0.4-0.3c0.2-0.1,0.3-0.2,0.5-0.3
					C476.1,542.3,476.2,542,476.1,541.9z"/>
			</g>
		</g>
	</g>
	<g>
		<g>
			<g>
				<path d="M475.9,544.6c-0.1,0.2-0.1,0.7-0.5,1.4c-0.4,0.8-0.8,1.5-0.6,1.7c0.2,0.2,0.9-0.2,1.5-1.2c0.3-0.5,0.3-1.1,0.2-1.5
					C476.3,544.6,475.9,544.5,475.9,544.6z"/>
			</g>
		</g>
	</g>
	<g>
		<g>
			<g>
				<path d="M471.9,546.3c0,0.1,0.1,0.2,0.3,0.1c0.2-0.1,0.4-0.2,0.5-0.6c0-0.4-0.2-0.7-0.4-1c-0.2-0.3-0.3-0.4-0.3-0.6
					c0-0.4,0.3-1,0.3-1.6c0-0.6-0.3-0.9-0.4-0.8c-0.1,0.1-0.1,0.3-0.3,0.6c-0.1,0.2-0.2,0.4-0.3,0.6c-0.1,0.3-0.3,0.6-0.3,1.1
					c0,0.2,0.1,0.5,0.2,0.7c0.1,0.2,0.3,0.3,0.4,0.4c0.2,0.2,0.3,0.3,0.4,0.4C472.1,546,471.9,546.2,471.9,546.3z"/>
			</g>
		</g>
	</g>
	<g>
		<g>
			<g>
				<path d="M468.3,541.4c0-0.1-0.2-0.1-0.4,0c-0.2,0.1-0.4,0.3-0.6,0.7c-0.3,0.8,0.1,1.8,0.1,2.5c0,0.4-0.1,0.6-0.3,0.9
					c-0.2,0.3-0.5,0.6-0.7,0.8c-0.4,0.5-0.6,0.9-0.5,1c0.1,0.1,0.5-0.1,1-0.4c0.3-0.2,0.5-0.4,0.9-0.7c0.2-0.2,0.4-0.4,0.5-0.7
					c0.1-0.3,0.1-0.6,0.1-0.9c0-0.6-0.2-1-0.3-1.4c-0.1-0.4-0.1-0.7-0.1-0.9C468.1,541.8,468.4,541.5,468.3,541.4z"/>
			</g>
		</g>
	</g>
	<g>
		<g>
			<g>
				<path d="M464.7,545.8c0.2,0.2,0.7-0.2,1-0.8c0.2-0.7,0-1.2-0.3-1.2c-0.3,0-0.5,0.4-0.7,0.9C464.6,545.1,464.5,545.6,464.7,545.8
					z"/>
			</g>
		</g>
	</g>
	<g>
		<g>
			<g>
				<path d="M463.8,546.3c0.1-0.1,0.2-0.2,0.3-0.4c0.1-0.2,0.3-0.5,0.4-0.9c0.2-0.8,0.2-1.5-0.1-1.5s-0.7,0.5-0.9,1.3
					c-0.1,0.4-0.2,0.7-0.1,1.1C463.4,546.2,463.6,546.4,463.8,546.3z"/>
			</g>
		</g>
	</g>
	<g>
		<g>
			<g>
				<path d="M476.9,546.3c0,0.1,0.4,0.2,1.1-0.1c0.3-0.2,0.7-0.6,0.7-1.2c0-0.3-0.3-0.7-0.5-0.8c-0.2-0.2-0.3-0.3-0.4-0.3
					c-0.1-0.2-0.1-0.5,0-0.8c0.1-0.3,0.3-0.5,0.5-0.7c0.4-0.4,0.7-0.7,0.6-0.8c-0.1-0.1-0.5-0.1-1,0.3c-0.3,0.2-0.6,0.4-0.9,0.9
					c-0.2,0.4-0.3,1.1,0,1.7c0.2,0.3,0.5,0.5,0.6,0.6c0.1,0.1,0.1,0.1,0.2,0.2c0,0.1,0,0.4-0.2,0.5
					C477.2,546,476.9,546.2,476.9,546.3z"/>
			</g>
		</g>
	</g>
	<g>
		<g>
			<g>
				<path d="M471.5,546.7c0.1-0.1,0-0.3,0-0.6c0-0.3,0-0.7,0-1.3c0-0.6-0.1-1.3-0.5-1.7c-0.3-0.4-0.7-0.4-0.7-0.2
					c-0.1,0.1,0.1,0.3,0.1,0.6c0.1,0.3,0.1,0.7,0.1,1.3c0,0.6,0,1.2,0.3,1.6C471.1,546.7,471.4,546.8,471.5,546.7z"/>
			</g>
		</g>
	</g>
	<g>
		<g>
			<g>
				<path d="M472.2,546.9c0.1,0,0.2,0,0.3,0c0.2,0,0.4,0,0.8-0.1c0.2,0,0.4-0.1,0.7-0.3c0.3-0.2,0.4-0.6,0.4-1
					c0-0.2-0.1-0.3-0.1-0.5c-0.1-0.1-0.1-0.2-0.2-0.4c-0.1-0.1-0.1-0.2-0.2-0.4c-0.1-0.1-0.1-0.2-0.1-0.3c-0.2-0.4-0.2-0.8-0.1-1.1
					c0.1-0.3,0.4-0.5,0.7-0.7c0.5-0.3,1-0.5,1-0.6c0-0.1-0.5-0.2-1.2,0c-0.4,0.1-0.9,0.3-1.2,0.9c-0.3,0.6-0.3,1.3,0,1.9
					c0.1,0.1,0.1,0.3,0.2,0.4l0.2,0.3c0.1,0.1,0.1,0.2,0.2,0.3c0,0.1,0.1,0.1,0.1,0.2c0,0.1,0,0.2,0,0.2c0,0.1-0.2,0.1-0.3,0.2
					c-0.3,0.1-0.6,0.2-0.8,0.4C472.1,546.7,472.1,546.8,472.2,546.9z"/>
			</g>
		</g>
	</g>
	<g>
		<g>
			<g>
				<path d="M453.6,546.6c0.1-0.1-0.2-0.4-0.3-1c-0.1-0.6,0-1.3,0.2-2.3c0.1-0.5,0.2-1,0.2-1.5c0-0.5-0.1-0.9-0.3-1.3
					c-0.4-0.7-0.9-0.8-1-0.7c-0.1,0.1,0.2,0.4,0.3,1c0.1,0.6,0.1,1.3-0.2,2.3c-0.1,0.5-0.2,1-0.2,1.5c0,0.5,0.1,0.9,0.3,1.3
					C453,546.5,453.6,546.7,453.6,546.6z"/>
			</g>
		</g>
	</g>
	<g>
		<g>
			<g>
				<path d="M456.8,546.5c0.3-0.1,0.2-1.2-0.2-2.5c-0.4-1.3-0.9-2.2-1.2-2.2c-0.3,0.1-0.2,1.2,0.2,2.5S456.5,546.6,456.8,546.5z"/>
			</g>
		</g>
	</g>
	<g>
		<g>
			<g>
				<path d="M458.6,547.8c0.1-0.1-0.1-0.4-0.3-0.9c-0.1-0.2-0.3-0.5-0.3-0.8c-0.1-0.3,0-0.6,0.1-1c0.1-0.4,0.3-1,0.2-1.4
					c-0.1-0.5-0.2-0.8-0.4-1.1c-0.4-0.6-0.8-0.7-0.9-0.6c-0.2,0.2,0.8,1.3,0.1,2.9c-0.1,0.4-0.2,1.1,0,1.5c0.2,0.4,0.4,0.8,0.6,1
					C458.2,547.8,458.5,547.9,458.6,547.8z"/>
			</g>
		</g>
	</g>
	<g>
		<g>
			<g>
				<path d="M459.6,546.8c0.1,0,0.2-0.3,0.3-0.6c0.1-0.4,0.3-0.9,0.5-1.5c0.1-0.3,0.2-0.7,0.1-1.1c-0.1-0.4-0.3-0.7-0.5-0.9
					c-0.5-0.3-0.8-0.2-0.8-0.1c0,0.1,0.2,0.3,0.3,0.6c0.2,0.3,0.1,0.5-0.1,1.1c-0.2,0.6-0.3,1.2-0.2,1.7
					C459.3,546.5,459.5,546.8,459.6,546.8z"/>
			</g>
		</g>
	</g>
	<g>
		<g>
			<path class="st0" d="M457,543"/>
		</g>
	</g>
	<g>
		<g>
			<g>
				<path d="M462.2,547.1c0.3,0.1,0.7-0.8,1-1.9c0.3-1.1,0.3-2,0-2.1c-0.3-0.1-0.7,0.8-1,1.9C461.9,546.1,461.9,547.1,462.2,547.1z"
					/>
			</g>
		</g>
	</g>
	<g>
		<g>
			<g>
				<path d="M464.1,547.4c0,0.1,0.4,0.1,0.9-0.1c0.5-0.2,1.1-0.7,1.6-1.4c0.5-0.7,0.7-1.5,0.7-2c0-0.6-0.1-0.9-0.2-0.9
					c-0.3,0-0.5,1.2-1.3,2.3C465,546.5,464,547.1,464.1,547.4z"/>
			</g>
		</g>
	</g>
	<g>
		<g>
			<g>
				<path d="M473.1,548.5c0.1,0.1,0.6-0.1,1.1-0.8c0.5-0.6,1-1.7,1.4-2.7c0.4-1.1,0.9-1.9,1.3-2.5c0.4-0.6,0.8-0.8,0.7-1
					c0-0.1-0.6-0.1-1.3,0.5c-0.7,0.5-1.3,1.5-1.7,2.6c-0.4,1.1-0.7,2.1-1.1,2.7C473.3,548,473,548.4,473.1,548.5z"/>
			</g>
		</g>
	</g>
	<g>
		<g>
			<g>
				<path d="M466.2,548c0,0.1,0.5,0.1,1.3-0.1c0.4-0.1,0.8-0.2,1.3-0.4c0.2-0.1,0.5-0.2,0.8-0.2c0.5-0.2,1-0.4,1.5-0.5l0,0
					c-0.2-0.2-0.4-0.4-0.6-0.7c-0.1-0.1-0.2-0.2-0.3-0.3l-0.1-0.2c-0.1-0.2-0.3-0.4-0.4-0.6c-0.2-0.4-0.4-0.8-0.5-1.2
					c-0.2-0.7-0.2-1.2-0.4-1.2c-0.1,0-0.4,0.5-0.3,1.3c0,0.4,0.1,0.9,0.3,1.4c0.1,0.3,0.2,0.5,0.4,0.8l0.1,0.2l0,0l0,0l0,0
					c0,0,0.1,0-0.1,0.1c-0.3,0.1-0.5,0.2-0.7,0.3c-0.5,0.2-0.9,0.4-1.2,0.6C466.6,547.6,466.2,547.8,466.2,548z"/>
			</g>
		</g>
	</g>
	<g>
		<g>
			<g>
				<path d="M460.6,548.7c0.1,0,0.1-0.5,0.3-1.2c0.1-0.4,0.3-0.7,0.6-1.1c0.2-0.2,0.3-0.5,0.5-0.8c0.1-0.3,0.2-0.7,0.2-1.1
					c-0.1-0.8-0.4-1.4-0.8-1.8c-0.4-0.4-0.9-0.7-1.2-0.9c-0.8-0.4-1.3-0.5-1.3-0.3c-0.1,0.1,0.3,0.5,0.9,0.9
					c0.6,0.5,1.4,1.2,1.4,2.2c0,0.5-0.1,0.8-0.4,1.3c-0.3,0.4-0.5,1-0.6,1.5C460.2,548.3,460.5,548.8,460.6,548.7z"/>
			</g>
		</g>
	</g>
	<g>
		<g>
			<g>
				<path d="M455.8,546.3c0.1,0,0.2,0,0.3-0.3c0.1-0.2,0.1-0.6-0.1-1c-0.3-0.8-1.4-1.5-1.7-2.1c-0.3-0.6,0.3-1.8,0-2.6
					c-0.1-0.4-0.4-0.7-0.6-0.8c-0.2-0.1-0.4-0.1-0.4,0c0,0.1,0.3,0.3,0.3,1c0,0.3-0.1,0.6-0.2,1.1c-0.1,0.4-0.3,1.1,0,1.8
					c0.3,0.7,0.8,1,1.2,1.3c0.4,0.3,0.6,0.5,0.8,0.8C455.8,545.9,455.7,546.3,455.8,546.3z"/>
			</g>
		</g>
	</g>
	<g>
		<g>
			<g>
				<path d="M451.2,547.9c0.1-0.1-0.4-0.5-0.6-1.4c-0.1-0.4-0.2-0.9-0.1-1.5c0.1-0.5,0.4-1.1,0.8-1.5c0.2-0.2,0.6-0.5,0.8-0.9
					c0.3-0.5,0.2-1.1-0.1-1.4c-0.4-0.7-1-1-1.3-1.3c-0.3-0.3-0.5-0.6-0.6-0.8c-0.1-0.2,0-0.4-0.1-0.4c0,0-0.2,0.1-0.3,0.4
					c-0.1,0.3,0.1,0.8,0.4,1.2c0.3,0.4,0.8,0.8,1,1.2c0.1,0.2,0.1,0.4,0,0.5c-0.1,0.2-0.3,0.4-0.7,0.7c-0.6,0.6-1,1.4-1.1,2.1
					c-0.1,0.7,0.1,1.4,0.4,1.9C450.5,547.7,451.2,548,451.2,547.9z"/>
			</g>
		</g>
	</g>
	<g>
		<g>
			<g>
				<path d="M428.7,501.6c-0.3-0.1-0.9,1-1.5,2.6c-0.3,0.9-0.6,1.7-0.6,2.3l0.6,0c-0.2-0.3-0.3-0.5-0.4-0.5s-0.1,0.3-0.1,0.6l0,0.8
					l0.5-0.8c0.3-0.5,0.7-1.2,1-2.1C428.7,503,428.9,501.7,428.7,501.6z"/>
			</g>
		</g>
	</g>
	<g>
		<g>
			<g>
				<path d="M423.5,509.7c0-0.3-0.6-0.6-0.9-1.3c-0.3-0.7-0.6-1.5-0.9-1.5c-0.1,0-0.2,0.2-0.3,0.6c0,0.3,0,0.8,0.3,1.4
					c0.3,0.5,0.8,0.9,1.1,1C423.3,509.9,423.5,509.8,423.5,509.7z"/>
			</g>
		</g>
	</g>
	<g>
		<g>
			<g>
				<path d="M424.6,509.3c0.1,0,0.3-0.3,0.3-0.8c-0.1-0.5-0.4-1-0.7-1.4c-0.4-0.8-0.4-1.9-0.7-1.9c-0.1,0-0.3,0.2-0.4,0.6
					c-0.1,0.4-0.1,1.1,0.2,1.7c0.4,0.6,0.7,0.9,0.9,1.2C424.3,509.1,424.4,509.3,424.6,509.3z"/>
			</g>
		</g>
	</g>
	<g>
		<g>
			<g>
				<path d="M426.2,509.1c0-0.1-0.2-0.2-0.2-0.5c0-0.2,0-0.7-0.1-1.3c-0.2-1.1-0.6-1.9-0.8-1.9c-0.3,0-0.3,1-0.1,2.1
					c0,0.3,0.1,0.5,0.2,0.8c0.1,0.2,0.2,0.5,0.4,0.7c0.2,0.2,0.4,0.3,0.6,0.2C426.2,509.2,426.3,509.1,426.2,509.1z"/>
			</g>
		</g>
	</g>
	<g>
		<g>
			<g>
				<path d="M439.7,505.8c0.3,0,0.3-1.6,0-3.4c-0.3-1.8-0.9-3.3-1.2-3.2c-0.3,0.1-0.1,1.6,0.2,3.4
					C439.1,504.4,439.5,505.8,439.7,505.8z"/>
			</g>
		</g>
	</g>
	<g>
		<g>
			<g>
				<path d="M443.7,503.9c0.2-0.2-0.3-1.4-0.4-2.9c-0.2-1.6,0.1-2.8-0.1-3c-0.2-0.1-1,1.2-0.9,3.1
					C442.4,502.9,443.5,504.1,443.7,503.9z"/>
			</g>
		</g>
	</g>
	<g>
		<g>
			<g>
				<path d="M471.2,504.7c0.3,0,0.3-1.6,0.6-3.3c0.1-0.8,0.5-1.7,0.5-2.4c0-0.8-0.4-1.1-0.5-1c-0.1,0.1,0,0.4-0.2,0.9
					c-0.2,0.5-0.6,1.3-0.8,2.3c-0.2,1-0.1,1.9,0,2.5C470.9,504.3,471.1,504.7,471.2,504.7z"/>
			</g>
		</g>
	</g>
	<g>
		<g>
			<g>
				<path d="M432.9,507.3c0-0.1-0.2-0.3-0.3-0.7c-0.1-0.4,0-1.1,0-2c0-1.6,0-3-0.3-3c-0.3,0-0.7,1.3-0.7,3c0,0.4,0,0.8,0.1,1.2
					c0,0.4,0.1,0.8,0.3,1.1C432.3,507.5,432.9,507.5,432.9,507.3z"/>
			</g>
		</g>
	</g>
	<g>
		<g>
			<g>
				<path d="M421.8,511.3c0.1-0.1-0.3-0.4-0.8-1c-0.4-0.6-0.9-1.5-0.8-2.5c0.1-1,0.6-1.9,1.1-2.4c0.5-0.5,0.9-0.8,0.8-0.9
					c0-0.1-0.6-0.1-1.3,0.4c-0.7,0.5-1.5,1.5-1.6,2.9c-0.1,1.4,0.7,2.5,1.3,3C421.2,511.4,421.7,511.5,421.8,511.3z"/>
			</g>
		</g>
	</g>
	<g>
		<g>
			<g>
				<path d="M423.3,510.5c0.1-0.1-0.3-0.4-0.8-1c-0.4-0.6-0.9-1.5-0.8-2.5c0.1-1,0.6-1.9,1.1-2.4c0.5-0.5,0.9-0.8,0.8-0.9
					c0-0.1-0.6-0.1-1.3,0.4c-0.7,0.5-1.5,1.5-1.6,2.9c-0.1,1.4,0.7,2.5,1.3,3C422.7,510.6,423.2,510.7,423.3,510.5z"/>
			</g>
		</g>
	</g>
	<g>
		<g>
			<g>
				<path d="M424.7,509.9c0.1-0.1-0.3-0.4-0.8-1c-0.4-0.6-0.9-1.5-0.8-2.5c0.1-1,0.6-1.9,1.1-2.4c0.5-0.5,0.9-0.8,0.8-0.9
					c0-0.1-0.6-0.1-1.3,0.4c-0.7,0.5-1.5,1.5-1.6,2.9c-0.1,1.4,0.7,2.5,1.3,3C424.1,510,424.7,510.1,424.7,509.9z"/>
			</g>
		</g>
	</g>
	<g>
		<g>
			<g>
				<path d="M426.4,509.6c0.1-0.1-0.3-0.4-0.8-1c-0.4-0.6-0.9-1.5-0.8-2.5c0.1-1,0.6-1.9,1.1-2.4c0.5-0.5,0.9-0.8,0.8-0.9
					c0-0.1-0.6-0.1-1.3,0.4c-0.7,0.5-1.5,1.5-1.6,2.9c-0.1,1.4,0.7,2.5,1.3,3C425.8,509.7,426.4,509.7,426.4,509.6z"/>
			</g>
		</g>
	</g>
	<g>
		<g>
			<g>
				<path d="M427.7,509.8c0,0.1,0.2,0.1,0.4,0c0.2-0.1,0.6-0.5,0.5-1c0-0.3-0.2-0.6-0.4-0.8c-0.2-0.2-0.5-0.3-0.6-0.4
					c-0.3-0.2-0.7-0.6-0.9-1c-0.4-0.9-0.1-1.9,0.1-2.6c0.2-0.7,0.3-1.2,0.2-1.3c-0.1-0.1-0.5,0.3-0.9,1c-0.2,0.4-0.4,0.8-0.5,1.4
					c-0.1,0.6-0.1,1.2,0.2,1.9c0.3,0.6,0.8,1.1,1.3,1.4c0.3,0.1,0.5,0.2,0.6,0.3c0.1,0.1,0.2,0.1,0.2,0.2c0.1,0.2,0,0.5-0.1,0.6
					C427.8,509.6,427.7,509.7,427.7,509.8z"/>
			</g>
		</g>
	</g>
	<g>
		<g>
			<g>
				<path d="M430.4,508.4c0.2-0.2-0.7-1.4-0.8-3.1c-0.1-1.7,0.6-3,0.4-3.2c-0.1-0.1-0.5,0.2-0.8,0.7c-0.3,0.6-0.7,1.5-0.6,2.5
					c0.1,1,0.5,1.9,0.9,2.4C429.9,508.3,430.3,508.5,430.4,508.4z"/>
			</g>
		</g>
	</g>
	<g>
		<g>
			<g>
				<path d="M428.8,508.8c0.1,0,0.2-0.3,0.1-0.8c-0.1-0.5-0.2-1-0.3-1.6c-0.2-1.2,0.2-2.2-0.1-2.4c-0.1-0.1-0.4,0.1-0.6,0.6
					c-0.2,0.4-0.4,1.1-0.3,1.9c0.1,0.8,0.4,1.4,0.6,1.7C428.4,508.6,428.6,508.9,428.8,508.8z"/>
			</g>
		</g>
	</g>
	<g>
		<g>
			<g>
				<path d="M430.9,507.5c0,0.1,0.1,0.2,0.3,0.2c0.2,0,0.6-0.2,0.7-0.7c0.1-0.5-0.1-0.9-0.3-1.3c-0.2-0.3-0.3-0.7-0.4-1
					c-0.4-1.6,0.4-2.8,0.2-3c-0.1-0.1-0.5,0.1-0.8,0.7c-0.3,0.6-0.6,1.5-0.3,2.5c0.1,0.5,0.3,1,0.6,1.3c0.2,0.3,0.3,0.5,0.4,0.7
					C431.2,507.3,430.9,507.4,430.9,507.5z"/>
			</g>
		</g>
	</g>
	<g>
		<g>
			<g>
				<path d="M437.2,505.5c0.3,0,0.6-1,0.8-2.4c0.1-0.7,0.1-1.4-0.2-1.9c-0.3-0.5-0.7-0.6-0.7-0.5c-0.1,0.1,0,0.3,0.1,0.7
					c0.1,0.4,0,0.8-0.1,1.5C436.8,504.3,436.9,505.5,437.2,505.5z"/>
			</g>
		</g>
	</g>
	<g>
		<g>
			<g>
				<path d="M434,504.9c0.3,0.1,0.7-0.7,0.8-1.7c0.1-1-0.2-1.9-0.4-1.9c-0.3,0-0.5,0.8-0.6,1.8C433.7,504,433.8,504.8,434,504.9z"/>
			</g>
		</g>
	</g>
	<g>
		<g>
			<g>
				<path d="M435.5,507.5c0-0.1-0.4-0.3-0.9-0.8c-0.5-0.4-1-1.2-1.1-2.1c-0.1-1,0.1-2,0.1-2.7c0-0.7,0-1.2-0.2-1.2
					c-0.1,0-0.3,0.4-0.5,1.1c-0.2,0.7-0.5,1.7-0.4,2.9c0.1,1.3,1,2.3,1.7,2.6C434.9,507.7,435.5,507.6,435.5,507.5z"/>
			</g>
		</g>
	</g>
	<g>
		<g>
			<g>
				<path d="M434.7,506.2c0.1,0,0.2-0.3,0.4-0.8c0.2-0.5,0.6-1.1,0.8-2c0.3-0.9,0.2-1.9-0.2-2.4c-0.4-0.6-0.9-0.6-0.9-0.5
					c-0.1,0.1,0.2,0.4,0.3,0.8c0.1,0.5,0.1,1.1-0.1,1.8c-0.2,0.7-0.5,1.5-0.6,2.1C434.4,505.9,434.5,506.2,434.7,506.2z"/>
			</g>
		</g>
	</g>
	<g>
		<g>
			<g>
				<path d="M436.3,505c0,0.1,0.1,0.1,0.3,0.1c0.2-0.1,0.4-0.3,0.6-0.6c0.1-0.3,0.1-0.8,0-1.2c-0.1-0.4-0.3-0.7-0.4-1.1
					c-0.2-0.6-0.1-1.3,0-1.7c0.1-0.5,0.3-0.7,0.2-0.9c-0.1-0.1-0.5,0-0.8,0.5c-0.4,0.5-0.7,1.4-0.3,2.4c0.2,0.5,0.4,0.8,0.5,1.1
					c0.1,0.3,0.2,0.5,0.2,0.7C436.5,504.7,436.3,504.9,436.3,505z"/>
			</g>
		</g>
	</g>
	<g>
		<g>
			<g>
				<path d="M439.3,506.8c0.1-0.1-0.3-0.4-0.4-1c-0.2-0.6,0.1-1.4,0.3-2.4c0.1-0.5,0.2-1.2,0-1.7c-0.1-0.5-0.4-1-0.7-1.2
					c-0.6-0.6-1.1-0.6-1.2-0.5c-0.1,0.1,0.3,0.4,0.6,0.9c0.2,0.3,0.3,0.6,0.3,1c0.1,0.4,0,0.8-0.1,1.3c-0.1,0.5-0.3,1-0.3,1.5
					c0,0.5,0.1,1,0.3,1.4C438.7,506.9,439.3,506.9,439.3,506.8z"/>
			</g>
		</g>
	</g>
	<g>
		<g>
			<g>
				<path d="M439.6,504.2c0.1,0.1,0.5-0.1,0.9-0.5c0.2-0.2,0.5-0.6,0.6-1.1c0.1-0.5,0-1.1-0.2-1.5c-0.4-0.7-0.4-1.4-0.3-1.9
					c0.1-0.5,0.3-0.8,0.2-0.9c-0.1-0.1-0.5,0.1-0.8,0.7c-0.2,0.3-0.3,0.7-0.3,1.2c0,0.4,0.1,1,0.3,1.4c0.2,0.4,0.3,0.7,0.2,0.9
					c0,0.3-0.1,0.6-0.3,0.8C439.7,503.8,439.5,504.2,439.6,504.2z"/>
			</g>
		</g>
	</g>
	<g>
		<g>
			<g>
				<path d="M458.7,503.3c0.2-0.2-0.4-1.1-0.6-2.3c-0.2-1.2,0.2-2.2,0-2.4c-0.1-0.1-0.4,0.1-0.6,0.6c-0.3,0.4-0.4,1.2-0.3,1.9
					c0.1,0.8,0.4,1.4,0.8,1.8C458.3,503.3,458.6,503.4,458.7,503.3z"/>
			</g>
		</g>
	</g>
	<g>
		<g>
			<g>
				<path d="M447.1,504c0.1-0.1-0.3-0.4-0.8-1c-0.4-0.6-0.9-1.5-0.8-2.5c0.1-1,0.6-1.9,1.1-2.4c0.5-0.5,0.9-0.8,0.8-0.9
					c0-0.1-0.6-0.1-1.3,0.4c-0.7,0.5-1.5,1.5-1.6,2.9c-0.1,1.4,0.7,2.5,1.3,3C446.5,504.1,447.1,504.1,447.1,504z"/>
			</g>
		</g>
	</g>
	<g>
		<g>
			<g>
				<path d="M442.3,504.7c0,0.1,0.2,0.1,0.4-0.1c0.2-0.1,0.4-0.4,0.4-0.8c0.1-0.4-0.1-0.9-0.3-1.3c-0.2-0.4-0.5-0.8-0.7-1.2
					c-0.2-0.4-0.2-0.7-0.1-1c0.1-0.3,0.4-0.7,0.5-1c0.1-0.3,0.2-0.7,0.1-0.9c-0.1-0.2-0.2-0.3-0.2-0.3c-0.1,0.1-0.1,0.4-0.5,0.9
					c-0.2,0.2-0.4,0.5-0.7,1c-0.1,0.2-0.2,0.5-0.2,0.9c0,0.3,0.1,0.6,0.2,0.9c0.2,0.5,0.6,0.9,0.8,1.2c0.2,0.3,0.3,0.6,0.4,0.8
					C442.5,504.3,442.2,504.5,442.3,504.7z"/>
			</g>
		</g>
	</g>
	<g>
		<g>
			<g>
				<path d="M445.6,503.8c0.1-0.1-0.3-0.4-0.8-1c-0.4-0.6-0.9-1.5-0.8-2.5c0.1-1,0.6-1.9,1.1-2.4c0.5-0.5,0.9-0.8,0.8-0.9
					c0-0.1-0.6-0.1-1.3,0.4c-0.7,0.5-1.5,1.5-1.6,2.9c-0.1,1.4,0.7,2.5,1.3,3C445,503.9,445.5,503.9,445.6,503.8z"/>
			</g>
		</g>
	</g>
	<g>
		<g>
			<g>
				<path d="M448.1,503.4c0.1-0.1-0.3-0.4-0.8-1c-0.4-0.6-0.9-1.5-0.8-2.5c0.1-1,0.6-1.9,1.1-2.4c0.5-0.5,0.9-0.8,0.8-0.9
					c0-0.1-0.6-0.1-1.3,0.4c-0.7,0.5-1.5,1.5-1.6,2.9c-0.1,1.4,0.7,2.5,1.3,3C447.5,503.5,448,503.5,448.1,503.4z"/>
			</g>
		</g>
	</g>
	<g>
		<g>
			<g>
				<path d="M449.3,503.3c0.1-0.1-0.3-0.4-0.8-1c-0.4-0.6-0.9-1.5-0.8-2.5c0.1-1,0.6-1.9,1.1-2.4c0.5-0.5,0.9-0.8,0.8-0.9
					c0-0.1-0.6-0.1-1.3,0.4c-0.7,0.5-1.5,1.5-1.6,2.9c-0.1,1.4,0.7,2.5,1.3,3C448.7,503.4,449.2,503.4,449.3,503.3z"/>
			</g>
		</g>
	</g>
	<g>
		<g>
			<g>
				<path d="M450.5,503.3c0.1-0.1-0.3-0.4-0.8-1c-0.4-0.6-0.9-1.5-0.8-2.5c0.1-1,0.6-1.9,1.1-2.4c0.5-0.5,0.9-0.8,0.8-0.9
					c0-0.1-0.6-0.1-1.3,0.4c-0.7,0.5-1.5,1.5-1.6,2.9c-0.1,1.4,0.7,2.5,1.3,3C449.9,503.4,450.4,503.4,450.5,503.3z"/>
			</g>
		</g>
	</g>
	<g>
		<g>
			<g>
				<path d="M451.7,503c0.1-0.1-0.3-0.4-0.8-1c-0.4-0.6-0.9-1.5-0.8-2.5c0.1-1,0.6-1.9,1.1-2.4c0.5-0.5,0.9-0.8,0.8-0.9
					c0-0.1-0.6-0.1-1.3,0.4c-0.7,0.5-1.5,1.5-1.6,2.9c-0.1,1.4,0.7,2.5,1.3,3C451.1,503.1,451.7,503.1,451.7,503z"/>
			</g>
		</g>
	</g>
	<g>
		<g>
			<g>
				<path d="M452.9,503.4c0.1-0.1-0.3-0.4-0.8-1c-0.4-0.6-0.9-1.5-0.8-2.5c0.1-1,0.6-1.9,1.1-2.4c0.5-0.5,0.9-0.8,0.8-0.9
					c0-0.1-0.6-0.1-1.3,0.4c-0.7,0.5-1.5,1.5-1.6,2.9c-0.1,1.4,0.7,2.5,1.3,3C452.3,503.5,452.9,503.5,452.9,503.4z"/>
			</g>
		</g>
	</g>
	<g>
		<g>
			<g>
				<path d="M454.1,503.8c0.1-0.1-0.3-0.4-0.8-1c-0.4-0.6-0.9-1.5-0.8-2.5c0.1-1,0.6-1.9,1.1-2.4c0.5-0.5,0.9-0.8,0.8-0.9
					c0-0.1-0.6-0.1-1.3,0.4c-0.7,0.5-1.5,1.5-1.6,2.9c-0.1,1.4,0.7,2.5,1.3,3C453.5,503.9,454.1,503.9,454.1,503.8z"/>
			</g>
		</g>
	</g>
	<g>
		<g>
			<g>
				<path d="M455.7,503.8c0.1-0.1-0.3-0.4-0.8-1c-0.4-0.6-0.9-1.5-0.8-2.5c0.1-1,0.6-1.9,1.1-2.4c0.5-0.5,0.9-0.8,0.8-0.9
					c0-0.1-0.6-0.1-1.3,0.4c-0.7,0.5-1.5,1.5-1.6,2.9c-0.1,1.4,0.7,2.5,1.3,3C455.1,503.9,455.7,503.9,455.7,503.8z"/>
			</g>
		</g>
	</g>
	<g>
		<g>
			<g>
				<path d="M456.9,503.8c0.1-0.1-0.3-0.4-0.8-1c-0.4-0.6-0.9-1.5-0.8-2.5c0.1-1,0.6-1.9,1.1-2.4c0.5-0.5,0.9-0.8,0.8-0.9
					c0-0.1-0.6-0.1-1.3,0.4c-0.7,0.5-1.5,1.5-1.6,2.9c-0.1,1.4,0.7,2.5,1.3,3C456.3,503.9,456.9,503.9,456.9,503.8z"/>
			</g>
		</g>
	</g>
	<g>
		<g>
			<g>
				<path d="M458.1,504c0.1-0.1-0.3-0.4-0.8-1c-0.4-0.6-0.9-1.5-0.8-2.5c0.1-1,0.6-1.9,1.1-2.4c0.5-0.5,0.9-0.8,0.8-0.9
					c0-0.1-0.6-0.1-1.3,0.4c-0.7,0.5-1.5,1.5-1.6,2.9c-0.1,1.4,0.7,2.5,1.3,3C457.5,504.1,458.1,504.1,458.1,504z"/>
			</g>
		</g>
	</g>
	<g>
		<g>
			<g>
				<path d="M461.6,503c0-0.1-0.3-0.3-0.5-0.8c-0.2-0.4-0.3-1.2-0.2-2c0.1-1.7,0.7-3,0.5-3.2c-0.1-0.1-0.4,0.2-0.8,0.7
					c-0.3,0.5-0.7,1.4-0.7,2.4c0,0.5,0,1,0.1,1.4c0.1,0.4,0.3,0.8,0.5,1.1C461,503.2,461.6,503.1,461.6,503z"/>
			</g>
		</g>
	</g>
	<g>
		<g>
			<g>
				<path d="M483,502.6c0.1,0.1,0.4-0.1,0.6-0.4c0.2-0.4,0.5-1,0.4-1.6c0-0.7-0.2-1.3-0.5-1.6c-0.3-0.4-0.5-0.5-0.6-0.4
					c-0.2,0.2,0.1,1,0.1,2.1C483.1,501.6,482.8,502.4,483,502.6z"/>
			</g>
		</g>
	</g>
	<g>
		<g>
			<g>
				<path d="M466.8,503.1c0.3-0.1,0.2-1.2,0.3-2.5c0.1-1.3,0.3-2.4,0.1-2.5c-0.2-0.1-1,0.9-1.1,2.4
					C466,502.1,466.6,503.2,466.8,503.1z"/>
			</g>
		</g>
	</g>
	<g>
		<g>
			<g>
				<path d="M466.6,504.4c0.1-0.1-0.2-0.4-0.4-0.9c-0.2-0.5-0.4-1.3-0.3-2.2c0-1.8,0.9-3.1,0.7-3.3c-0.1-0.1-0.5,0.1-0.9,0.7
					c-0.4,0.5-0.8,1.5-0.8,2.5c0,1.1,0.3,2,0.7,2.6C466,504.4,466.5,504.6,466.6,504.4z"/>
			</g>
		</g>
	</g>
	<g>
		<g>
			<g>
				<path d="M462.9,502.8c0.2,0.1,0.9-0.7,1.1-2.1c0.1-1.3-0.4-2.3-0.7-2.2c-0.3,0.1-0.2,1-0.3,2.1
					C462.9,501.8,462.7,502.7,462.9,502.8z"/>
			</g>
		</g>
	</g>
	<g>
		<g>
			<g>
				<path d="M460.9,504.3c-0.1-0.1-0.5-0.1-0.8-0.5c-0.4-0.4-0.4-1.2-0.3-2.3c0.1-2.2-0.1-3.9-0.3-3.9s-0.6,1.7-0.6,3.9
					c0,0.5,0,1.1,0.1,1.6c0.1,0.5,0.4,1,0.8,1.3c0.4,0.2,0.8,0.3,1,0.2C460.8,504.5,460.9,504.4,460.9,504.3z"/>
			</g>
		</g>
	</g>
	<g>
		<g>
			<g>
				<path d="M462,503.2c0.2-0.2-0.4-1.4-0.1-3c0.3-1.6,1.3-2.5,1.2-2.8c-0.1-0.1-0.5,0-1,0.4c-0.5,0.4-1,1.2-1.2,2.2
					c-0.2,1,0,1.9,0.3,2.5C461.6,503,461.9,503.3,462,503.2z"/>
			</g>
		</g>
	</g>
	<g>
		<g>
			<g>
				<path d="M468.7,503.4c0.3,0,0.6-1.1,0.7-2.5c0.1-1.4,0-2.5-0.3-2.5c-0.3,0-0.6,1.1-0.7,2.5C468.3,502.2,468.4,503.3,468.7,503.4
					z"/>
			</g>
		</g>
	</g>
	<g>
		<g>
			<g>
				<path d="M465.5,504.2c0-0.1-0.4-0.3-0.7-0.8c-0.3-0.5-0.5-1.4-0.1-2.3c0.4-0.9,1-1.8,1.3-2.5c0.3-0.7,0.5-1.1,0.4-1.2
					c-0.1-0.1-0.5,0.2-0.9,0.8c-0.5,0.6-1.1,1.3-1.6,2.5c-0.2,0.6-0.3,1.2-0.2,1.8c0.1,0.6,0.4,1,0.7,1.3
					C464.9,504.4,465.5,504.3,465.5,504.2z"/>
			</g>
		</g>
	</g>
	<g>
		<g>
			<g>
				<path d="M467.4,503.4c0.3,0,0.5-1.3,0.8-3c0.2-1.7,0.4-3,0.1-3.1c-0.3-0.1-0.8,1.2-1.1,3C467,502,467.2,503.4,467.4,503.4z"/>
			</g>
		</g>
	</g>
	<g>
		<g>
			<g>
				<path d="M470.1,504.3c0.3,0,0.7-1.4,0.9-3.2c0.2-1.8,0.2-3.3-0.1-3.4c-0.3,0-0.7,1.4-0.9,3.2
					C469.8,502.7,469.8,504.2,470.1,504.3z"/>
			</g>
		</g>
	</g>
	<g>
		<g>
			<g>
				<path d="M474.7,503c0.3,0,0.4-1.3,0.3-2.9s-0.4-2.8-0.7-2.8c-0.3,0-0.4,1.3-0.3,2.9C474.1,501.8,474.4,503,474.7,503z"/>
			</g>
		</g>
	</g>
	<g>
		<g>
			<g>
				<path d="M472.1,505.7c0.3,0.1,0.9-1.8,1-4.3c0.2-2.4-0.2-4.4-0.4-4.4c-0.3,0-0.4,1.9-0.6,4.3C472,503.8,471.8,505.7,472.1,505.7
					z"/>
			</g>
		</g>
	</g>
	<g>
		<g>
			<g>
				<path d="M472.3,505.9c0.1,0.2,2.3-0.9,3.9-3.4c1.6-2.5,1.7-5,1.5-5c-0.3-0.1-0.8,2.2-2.3,4.4
					C473.9,504.3,472.1,505.7,472.3,505.9z"/>
			</g>
		</g>
	</g>
	<g>
		<g>
			<g>
				<path d="M476.3,505.7c0.1,0.2,2.1-0.7,3.7-2.8c1.6-2.1,1.8-4.3,1.5-4.4c-0.3-0.1-0.9,1.8-2.3,3.8
					C477.8,504.3,476.1,505.5,476.3,505.7z"/>
			</g>
		</g>
	</g>
	<g>
		<g>
			<g>
				<path d="M476.4,503.8c0.2,0.2,1.5-0.7,2.5-2.4c1-1.7,1.2-3.3,1-3.3c-0.3-0.1-0.9,1.3-1.8,2.8
					C477.1,502.4,476.2,503.6,476.4,503.8z"/>
			</g>
		</g>
	</g>
	<g>
		<g>
			<g>
				<path d="M487.7,506.2c0,0.1,0.6,0.3,1.6,0.2c0.5-0.1,1.1-0.2,1.7-0.5c0.6-0.3,1.2-0.8,1.7-1.5c0.5-0.7,0.7-1.5,0.6-2.2
					c-0.1-0.7-0.4-1.3-0.7-1.8c-0.7-0.8-1.5-0.8-1.5-0.7c0,0.1,0.5,0.4,0.9,1.1c0.2,0.4,0.4,0.8,0.4,1.4c0,0.5-0.2,1.1-0.5,1.6
					c-0.7,1.1-1.9,1.6-2.7,1.9C488.3,505.9,487.7,506,487.7,506.2z"/>
			</g>
		</g>
	</g>
	<g>
		<g>
			<path class="st0" d="M491.5,502.8"/>
		</g>
	</g>
	<g>
		<g>
			<g>
				<path d="M478.2,505c0,0.1,0.6,0.1,1.3-0.2c0.8-0.3,1.8-1,2.5-2c0.7-1,1.1-2.2,1.1-3c0-0.8-0.2-1.3-0.3-1.3
					c-0.3,0-0.3,1.9-1.6,3.7C479.9,504.1,478.1,504.7,478.2,505z"/>
			</g>
		</g>
	</g>
	<g>
		<g>
			<g>
				<path d="M479.5,504.7c0,0.1,0.6,0.3,1.6,0.2c0.5-0.1,1.1-0.2,1.7-0.5c0.6-0.3,1.2-0.8,1.7-1.5c0.5-0.7,0.7-1.5,0.6-2.2
					c-0.1-0.7-0.4-1.3-0.7-1.8c-0.7-0.8-1.5-0.8-1.5-0.7c0,0.1,0.5,0.4,0.9,1.1c0.2,0.4,0.4,0.8,0.4,1.4c0,0.5-0.2,1.1-0.5,1.6
					c-0.7,1.1-1.9,1.6-2.7,1.9C480.1,504.5,479.5,504.5,479.5,504.7z"/>
			</g>
		</g>
	</g>
	<g>
		<g>
			<g>
				<path d="M498.8,511.1c0,0.1,0.6,0.3,1.6,0.2c0.5-0.1,1.1-0.2,1.7-0.5c0.6-0.3,1.2-0.8,1.7-1.5c0.5-0.7,0.7-1.5,0.6-2.2
					c-0.1-0.7-0.4-1.3-0.7-1.8c-0.7-0.8-1.5-0.8-1.5-0.7c0,0.1,0.5,0.4,0.9,1.1c0.2,0.4,0.4,0.8,0.4,1.4c0,0.5-0.2,1.1-0.5,1.6
					c-0.7,1.1-1.9,1.6-2.7,1.9C499.4,510.8,498.8,510.9,498.8,511.1z"/>
			</g>
		</g>
	</g>
	<g>
		<g>
			<g>
				<path d="M495.5,508.7c0,0.1,0.6,0.3,1.6,0.2c0.5-0.1,1.1-0.2,1.7-0.5c0.6-0.3,1.2-0.8,1.7-1.5c0.5-0.7,0.7-1.5,0.6-2.2
					c-0.1-0.7-0.4-1.3-0.7-1.8c-0.7-0.8-1.5-0.8-1.5-0.7c0,0.1,0.5,0.4,0.9,1.1c0.2,0.4,0.4,0.8,0.4,1.4c0,0.5-0.2,1.1-0.5,1.6
					c-0.7,1.1-1.9,1.6-2.7,1.9C496.1,508.5,495.5,508.6,495.5,508.7z"/>
			</g>
		</g>
	</g>
	<g>
		<g>
			<g>
				<path d="M496.5,509.9c0,0.1,0.6,0.3,1.6,0.2c0.5-0.1,1.1-0.2,1.7-0.5c0.6-0.3,1.2-0.8,1.7-1.5c0.5-0.7,0.7-1.5,0.6-2.2
					c-0.1-0.7-0.4-1.3-0.7-1.8c-0.7-0.8-1.5-0.8-1.5-0.7c0,0.1,0.5,0.4,0.9,1.1c0.2,0.4,0.4,0.8,0.4,1.4c0,0.5-0.2,1.1-0.5,1.6
					c-0.7,1.1-1.9,1.6-2.7,1.9C497.1,509.7,496.5,509.8,496.5,509.9z"/>
			</g>
		</g>
	</g>
	<g>
		<g>
			<g>
				<path d="M493.1,508.7c0,0.1,0.6,0.3,1.6,0.2c0.5-0.1,1.1-0.2,1.7-0.5c0.6-0.3,1.2-0.8,1.7-1.5c0.5-0.7,0.7-1.5,0.6-2.2
					c-0.1-0.7-0.4-1.3-0.7-1.8c-0.7-0.8-1.5-0.8-1.5-0.7c0,0.1,0.5,0.4,0.9,1.1c0.2,0.4,0.4,0.8,0.4,1.4c0,0.5-0.2,1.1-0.5,1.6
					c-0.7,1.1-1.9,1.6-2.7,1.9C493.7,508.5,493.1,508.6,493.1,508.7z"/>
			</g>
		</g>
	</g>
	<g>
		<g>
			<g>
				<path d="M490.5,507.7c0,0.1,0.6,0.3,1.6,0.2c0.5-0.1,1.1-0.2,1.7-0.5c0.6-0.3,1.2-0.8,1.7-1.5c0.5-0.7,0.7-1.5,0.6-2.2
					c-0.1-0.7-0.4-1.3-0.7-1.8c-0.7-0.8-1.5-0.8-1.5-0.7c0,0.1,0.5,0.4,0.9,1.1c0.2,0.4,0.4,0.8,0.4,1.4c0,0.5-0.2,1.1-0.5,1.6
					c-0.7,1.1-1.9,1.6-2.7,1.9C491.1,507.5,490.5,507.6,490.5,507.7z"/>
			</g>
		</g>
	</g>
	<g>
		<g>
			<g>
				<path d="M481.2,504.7c0,0.1,0.6,0.3,1.6,0.2c0.5-0.1,1.1-0.2,1.7-0.5c0.6-0.3,1.2-0.8,1.7-1.5c0.5-0.7,0.7-1.5,0.6-2.2
					c-0.1-0.7-0.4-1.3-0.7-1.8c-0.7-0.8-1.5-0.8-1.5-0.7c0,0.1,0.5,0.4,0.9,1.1c0.2,0.4,0.4,0.8,0.4,1.4c0,0.5-0.2,1.1-0.5,1.6
					c-0.7,1.1-1.9,1.6-2.7,1.9C481.8,504.5,481.2,504.5,481.2,504.7z"/>
			</g>
		</g>
	</g>
	<g>
		<g>
			<g>
				<path d="M482.6,505.4c0,0.1,0.6,0.3,1.6,0.2c0.5-0.1,1.1-0.2,1.7-0.5c0.6-0.3,1.2-0.8,1.7-1.5c0.5-0.7,0.7-1.5,0.6-2.2
					c-0.1-0.7-0.4-1.3-0.7-1.8c-0.7-0.8-1.5-0.8-1.5-0.7c0,0.1,0.5,0.4,0.9,1.1c0.2,0.4,0.4,0.8,0.4,1.4c0,0.5-0.2,1.1-0.5,1.6
					c-0.7,1.1-1.9,1.6-2.7,1.9C483.2,505.1,482.6,505.2,482.6,505.4z"/>
			</g>
		</g>
	</g>
	<g>
		<g>
			<g>
				<path d="M483.8,506c0,0.1,0.6,0.3,1.6,0.2c0.5-0.1,1.1-0.2,1.7-0.5c0.6-0.3,1.2-0.8,1.7-1.5c0.5-0.7,0.7-1.5,0.6-2.2
					c-0.1-0.7-0.4-1.3-0.7-1.8c-0.7-0.8-1.5-0.8-1.5-0.7c0,0.1,0.5,0.4,0.9,1.1c0.2,0.4,0.4,0.8,0.4,1.4c0,0.5-0.2,1.1-0.5,1.6
					c-0.7,1.1-1.9,1.6-2.7,1.9C484.4,505.8,483.8,505.9,483.8,506z"/>
			</g>
		</g>
	</g>
	<g>
		<g>
			<g>
				<path d="M488.5,505.4c0,0.1,0.4,0.1,0.9-0.2c0.5-0.3,1.1-1,1.3-1.9c0.2-0.9-0.1-1.8-0.5-2.3c-0.4-0.5-0.7-0.6-0.8-0.5
					c-0.2,0.2,0.6,1.3,0.3,2.6C489.5,504.4,488.4,505.1,488.5,505.4z"/>
			</g>
		</g>
	</g>
	<g>
		<g>
			<g>
				<path d="M486.7,506.2c0,0.1,0.6,0.3,1.6,0.2c0.5-0.1,1.1-0.2,1.7-0.5c0.6-0.3,1.2-0.8,1.7-1.5c0.5-0.7,0.7-1.5,0.6-2.2
					c-0.1-0.7-0.4-1.3-0.7-1.8c-0.7-0.8-1.5-0.8-1.5-0.7c0,0.1,0.5,0.4,0.9,1.1c0.2,0.4,0.4,0.8,0.4,1.4c0,0.5-0.2,1.1-0.5,1.6
					c-0.7,1.1-1.9,1.6-2.7,1.9C487.3,505.9,486.7,506,486.7,506.2z"/>
			</g>
		</g>
	</g>
	<g>
		<g>
			<g>
				<path d="M488.9,507.4c0,0.1,0.6,0.1,1.5-0.2c0.9-0.3,2.2-0.7,3.3-1.9c0.5-0.6,0.9-1.3,1-2c0.1-0.7,0-1.3-0.1-1.8
					c-0.4-1-1.1-1.3-1.1-1.2c-0.1,0.1,0.3,0.5,0.4,1.4c0.2,0.8-0.1,2-0.9,2.9c-0.8,1-2,1.5-2.8,1.9
					C489.3,507,488.8,507.3,488.9,507.4z"/>
			</g>
		</g>
	</g>
	<g>
		<g>
			<g>
				<path d="M492.2,508.7c0,0.1,0.6,0.1,1.4-0.1c0.8-0.2,2-0.7,3-1.8c0.5-0.5,0.8-1.2,0.9-1.8c0.1-0.6,0-1.2-0.2-1.7
					c-0.4-0.9-1-1.2-1-1.1c-0.1,0.1,0.2,0.5,0.4,1.2c0.1,0.7,0,1.8-0.8,2.6c-0.7,0.9-1.7,1.4-2.5,1.8
					C492.6,508.3,492.1,508.6,492.2,508.7z"/>
			</g>
		</g>
	</g>
	<g>
		<g>
			<g>
				<path d="M494.6,511.2c0,0.1,0.7,0.1,1.6-0.5c0.9-0.5,2.1-1.5,2.8-3c0.7-1.5,0.8-3,0.6-4c-0.2-1-0.5-1.6-0.7-1.6
					c-0.1,0,0,0.7,0,1.6c0,1-0.2,2.3-0.8,3.6c-0.6,1.3-1.5,2.2-2.3,2.8C495.1,510.7,494.6,511,494.6,511.2z"/>
			</g>
		</g>
	</g>
	<g>
		<g>
			<g>
				<path d="M498.1,511.3c0.1,0.1,0.6-0.2,1.3-0.5c0.4-0.2,0.9-0.4,1.4-0.6c0.5-0.3,1.2-0.6,1.7-1.2c0.5-0.6,0.8-1.4,0.7-2.1
					c0-0.7-0.3-1.3-0.6-1.7c-0.6-0.8-1.3-0.9-1.3-0.8c-0.1,0.1,0.4,0.5,0.7,1.2c0.3,0.7,0.4,1.9-0.3,2.7c-0.8,0.9-1.9,1.3-2.7,1.9
					C498.4,510.7,498,511.2,498.1,511.3z"/>
			</g>
		</g>
	</g>
	<g>
		<g>
			<g>
				<path d="M500.8,512.2c0,0.1,0.6,0.1,1.6-0.2c0.5-0.1,1-0.4,1.6-0.8c0.6-0.4,1.1-1,1.4-1.8c0.5-1.7-0.2-3.1-0.7-3.9
					c-0.5-0.8-1-1.2-1.1-1.1c-0.1,0.1,0.1,0.6,0.5,1.5c0.3,0.8,0.8,2,0.4,3.2c-0.4,1.2-1.5,1.8-2.3,2.2
					C501.3,511.8,500.7,512,500.8,512.2z"/>
			</g>
		</g>
	</g>
	<g>
		<path class="st7" d="M409.4,443.9c9.6,3.5,20,4.5,30.1,3"/>
		<g>
			<g>
				<path d="M439.4,446.9c0-0.3-6.8,0.7-15.2-0.2c-8.3-0.8-14.8-3.2-14.9-2.9c0,0.1,1.5,0.9,4.2,1.7c2.6,0.9,6.4,1.7,10.6,2.2
					c4.2,0.4,8.1,0.3,10.9,0C437.8,447.5,439.5,447.1,439.4,446.9z"/>
			</g>
		</g>
	</g>
	<g>
		<path class="st7" d="M494.4,445.7c9.6,3.5,20,4.5,30.1,3"/>
		<g>
			<g>
				<path d="M524.5,448.8c0-0.3-6.8,0.7-15.2-0.2c-8.3-0.8-14.8-3.2-14.9-2.9c0,0.1,1.5,0.9,4.2,1.7c2.6,0.9,6.4,1.7,10.6,2.2
					c4.2,0.4,8.1,0.3,10.9,0C522.8,449.3,524.5,448.9,524.5,448.8z"/>
			</g>
		</g>
	</g>
	<g>
		<path d="M401.9,431c4.6-3.2,9.8-5.7,15.4-6.9c5.6-1.2,11.6-1.1,17,0.7c5.4,1.8,10.2,5.4,12.7,10.1c0.3,0.5,0.5,1.3,0.1,1.7
			c-0.3,0.3-0.8,0.4-1.2,0.4c-3.8,0.5-7.7,1-11.5,1.5c-5.2,0.7-10.5,1.4-15.8,1s-10.6-1.8-14.6-4.9c-0.9-0.7-1.8-1.6-2-2.6
			c-0.2-1.1,0.4-2.4,1.5-2.6"/>
	</g>
	<g>
		<path d="M486.6,438.5c6,2.8,12.7,4.3,19.5,4.4c3.8,0.1,7.5-0.3,11.3-0.6c4.5-0.4,9.1-0.9,13.4-2.1c0.8-0.2,1.6-0.6,1.8-1.3
			c0.1-0.6-0.4-1.1-0.9-1.6c-3.2-2.9-6.9-5.4-11-7.2c-6-2.7-13-3.9-19.5-2.6c-6.5,1.3-12.5,5.5-14.6,11.2c0.3,0.1,0.5,0.1,0.8,0.2"
			/>
	</g>
	<g>
		<path class="st2" d="M402.8,432.1c6-3.9,13.2-6,20.5-6.1c4.4,0,8.8,0.8,12.8,2.5c4,1.7,7.5,4.5,9.9,8"/>
	</g>
	<g>
		<path class="st2" d="M402.3,430.6c3.1,3.6,7.6,5.6,12.2,6.4c4.6,0.8,9.3,0.6,13.9,0.3c6.1-0.3,12.3-0.7,18.4-1"/>
	</g>
	<circle cx="421.7" cy="432" r="6.1"/>
	<g>
		<path d="M384.9,413.1c1.3-1,2.5-1.9,3.8-2.9c-0.4,0.2-0.8,0.5-1.2,0.7c0.2-0.5,0.3-1.1,0.5-1.6c2.1,0.1,4.2-0.7,5.7-2.1
			c0.1,0.5,0.2,1,0.3,1.4c0.2-1.3,0.3-2.6,0.5-3.9c0.1,0.3,0.2,0.7,0.3,1c0.4-1.5,2.3-2.3,3.7-1.6c0.8-0.6,1.6-1.1,2.4-1.7
			c-0.3,0.6-0.7,1.2-1,1.7c0.7-0.4,1.4-0.9,2-1.3c-0.4,0.9,0.6,1.9,1.5,1.9s1.8-0.5,2.6-1.1c0.9,0.7,2.2,0.8,3.2,0.1
			c-0.1,0.6-0.2,1.3-0.2,1.9c1.5-0.1,3-0.2,4.6-0.2c-0.4,0-0.8,0.1-1.2,0.1c4-0.7,8.2-0.5,12.1,0.5c-0.7,0.6-1.3,1.2-2,1.8
			c2.3,0.2,4.7,0.3,7,0.5c-0.5,0-1,0-1.5,0.1c3.2,0.1,6.4,0.2,9.6,0.2c-0.4,0.5-0.7,0.9-1.1,1.4c0.6,0,1.3,0.1,1.9,0.1
			c-0.5,0.3-1,0.6-1.4,0.9c0.8-0.4,1.7-0.8,2.6-0.7c0.9,0.1,1.9,0.8,1.9,1.7c0.7-0.1,1.3,0.4,1.5,1c0.8,0.1,1.6,0.1,2.4,0.2
			c-0.1,0.3-0.1,0.7-0.2,1c1.3,0,2.7,0.1,4,0.1c-0.3,0.7-0.6,1.4-0.9,2.1c0.7,0.1,1.4,0.2,2.1,0.3c-2.7,0.1-5.4,0.2-8.1,0.3
			c0.3-0.1,0.5-0.3,0.8-0.4c-4,1-8.4,0.6-12.1-1.2c2.5,0.3,5.1,0.6,7.6,0.8c-7.2,0.1-14.5-1.2-21.3-3.8c0.9,0.6,1.9,1.1,2.8,1.7
			c-4.5-0.6-9-1.3-13.5-1.9c0.3,0.2,0.5,0.4,0.8,0.7c-2.8,0.5-5.7,1-8.5,1.5c0.4,0,0.9,0,1.3,0c-1.7,0.4-3.5,0.7-5.3,0.6
			c-1,0-2-0.2-3-0.3c-2.4-0.3-4.7-0.6-7.1-1"/>
	</g>
	<g>
		<path d="M489,418.2c3.3-2.4,6.5-4.8,9.8-7.1c0,0.4-0.1,0.8-0.1,1.2c0.7-0.3,1.3-0.6,2-0.9c0.1,0.6,0.3,1.2,0.4,1.8
			c1.1-0.5,2.2-1,3.3-1.5c0.6-0.3,1.2-0.5,1.8-0.4s1.2,0.8,0.9,1.4c1.9-0.5,3.9-1,5.8-1.5c0.7,0.6,1.6,0.5,2.5,0.3s1.6-0.7,2.4-0.9
			c1.9-0.5,4.1,0.2,5.2,1.8c0.8-0.7,1.7-1.2,2.6-1.4c0.6-0.2,1.3-0.3,1.9-0.3c0.9-0.1,1.8,0,2.7,0.2c2.1,0.4,4,1.5,5.9,2.5
			c1,0.5,2,1.1,2.9,1.6c0.7,0.4,1.5,0.8,2.1,1.4c1.1,0.9,2,2.3,2,3.8c0,1.5-1.1,3-2.6,3.1c-0.8,0.1-1.6-0.2-2.3-0.5
			c-2.9-1.1-5.8-2.2-8.7-3.3c-2.3-0.9-4.6-1.8-7-2c-1-0.1-2.1,0-3.1,0c-1.9,0.1-3.8,0.2-5.6,0.3c-2.4,0.1-4.8,0.2-7.1,0.7
			c-2,0.3-3.9,0.9-5.8,1.2c-4,0.7-8.1,0.5-12-0.5"/>
	</g>
	<g>
		<path class="st2" d="M488.2,438.9c2.6-4.9,7.8-8.3,13.3-9.4s11.4-0.2,16.6,1.9c4.8,2,9.2,5,12.7,8.7"/>
	</g>
	<g>
		<path class="st2" d="M531.3,439.4c-4.3-0.1-8.6,0.8-12.8,1.3c-10.3,1.2-21,0.5-30.7-2.1"/>
	</g>
	<circle cx="506.2" cy="435.3" r="6.1"/>
	<circle class="st2" cx="423.4" cy="429.7" r="2"/>
	<circle class="st2" cx="421.4" cy="433.6" r="1.2"/>
	<circle class="st2" cx="504.3" cy="432.5" r="1.9"/>
	<circle class="st2" cx="506.7" cy="436.5" r="1.2"/>
	<g>
		<g>
			<g>
				<path d="M489,470.3c-0.1,0.1,1,1.2,2.7,3.5c0.8,1.2,1.8,2.6,2.4,4.6c0.6,1.9,0.7,4.3-0.2,6.6c-0.9,2.3-2.8,4.5-5.5,5.6
					c-1.3,0.5-3,0.7-4.1-0.1c-0.5-0.4-0.9-1.1-1.3-1.8c-0.4-0.7-0.9-1.6-1.7-2.1c-0.8-0.5-1.7-0.8-2.6-1c-0.5-0.1-0.9-0.1-1.4,0
					c-0.5,0-1,0.2-1.4,0.3c-0.9,0.3-1.7,0.8-2.5,1.2c-0.8,0.4-1.6,0.7-2.5,1c-1.7,0.6-3.5,0.9-5.4,0.9c-1.8,0-3.7-0.4-5.2-1.5
					c-1.5-1.1-2.8-2.6-4.5-3.6c-1.8-1.1-3.9-1.3-5.8-0.8c-1,0.2-1.9,0.7-2.6,1.3c-0.7,0.6-1.4,1.3-2,1.7c-1.4,1-3,1.4-4.6,1.4
					c-1.6,0-3.2-0.5-4.4-1.4c-1.2-0.9-2.1-2.1-2.7-3.5c-1.1-2.7-0.8-5.6,0-7.9c0.9-2.4,2.2-4.3,3.5-5.8c1.4-1.5,2.8-2.5,4-3.3
					c2.4-1.5,4-1.9,4-2c0,0-0.4,0.1-1.1,0.3c-0.7,0.2-1.8,0.7-3,1.4c-1.3,0.7-2.7,1.8-4.2,3.2c-1.4,1.5-2.9,3.4-3.8,5.9
					c-0.9,2.4-1.3,5.5-0.1,8.5c0.6,1.5,1.6,2.9,2.9,3.9c1.4,1,3.1,1.6,4.9,1.6c1.8,0.1,3.7-0.4,5.2-1.5c0.8-0.6,1.4-1.2,2.1-1.7
					c0.7-0.5,1.5-0.9,2.3-1.1c1.7-0.4,3.5-0.2,5.1,0.7c1.6,0.9,2.8,2.4,4.5,3.6c1.7,1.2,3.8,1.7,5.8,1.6c2,0,3.9-0.4,5.7-1
					c0.9-0.3,1.8-0.6,2.6-1c0.8-0.4,1.6-0.9,2.4-1.2c0.4-0.1,0.8-0.2,1.2-0.3c0.4,0,0.8,0,1.2,0c0.8,0.1,1.6,0.4,2.2,0.8
					c0.6,0.4,1.1,1,1.4,1.8c0.4,0.7,0.8,1.5,1.6,2.1c0.7,0.6,1.7,0.8,2.5,0.7c0.8,0,1.7-0.2,2.4-0.5c1.5-0.6,2.7-1.5,3.7-2.6
					c1-1.1,1.7-2.3,2.2-3.5c1-2.5,0.8-5,0.1-7c-0.7-2-1.7-3.5-2.6-4.6c-0.9-1.1-1.7-2-2.2-2.5C489.3,470.5,489,470.2,489,470.3z"/>
			</g>
		</g>
	</g>
	<g>
		<g>
			<g>
				<path d="M490.9,472.3c0.1-0.1-0.5-0.5-1.3-1.6c-0.8-1-1.6-2.7-2.5-4.9c-0.9-2.2-2-4.7-3.2-7.6c-0.6-1.4-1.2-2.9-1.9-4.4
					c-0.7-1.5-1.4-3.1-1.9-4.8c-0.6-1.7-1-3.3-1-4.9c-0.1-1.6,0.1-3.2,0.5-4.7c0.7-2.9,1.9-5.4,3-7.4c1.1-2,2.2-3.6,2.9-4.7
					c0.7-1.1,1.1-1.7,1-1.8c-0.1,0-0.5,0.5-1.3,1.5c-0.8,1-1.9,2.5-3.2,4.5c-1.2,2-2.6,4.5-3.3,7.6c-0.4,1.5-0.6,3.2-0.5,4.9
					c0.1,1.7,0.5,3.5,1.1,5.2c0.6,1.7,1.3,3.3,2,4.8c0.7,1.5,1.3,3,2,4.4c1.3,2.8,2.4,5.3,3.4,7.5c0.9,2.1,1.9,3.8,2.8,4.8
					C490.2,472,490.9,472.3,490.9,472.3z"/>
			</g>
		</g>
	</g>
	<g>
		<path class="st11" d="M420.2,512.8c11.5-0.3,22-8.6,33.4-7.1c3.7,0.5,7.2,2,11,2.5c5.1,0.7,10.3-0.4,15.3,0.5
			c3.9,0.7,7.6,2.5,11.3,4.1c3.7,1.5,7.7,2.8,11.7,2.2c-4.2,4.8-8.5,9.7-13.5,13.7s-10.8,7.2-17.2,8.2c-6.6,1-13.5-0.4-19.7-3.1
			c-6.2-2.6-11.8-6.3-17.5-10c-5.5-3.7-11.1-7.3-16.6-11c1.4-0.1,2.9-0.2,4.3-0.3"/>
		<g>
			<g>
				<path d="M422.6,512.6c0,0-0.4,0-1.1,0c-0.4,0-0.8,0-1.3,0.1c-0.7,0-1.4,0.1-2.3,0.1c2.6,1.7,6.4,4.3,11.3,7.6
					c2.4,1.6,5,3.3,7.8,5.2c2.8,1.9,5.9,3.9,9.4,5.8c3.4,1.9,7.3,3.7,11.5,4.9c4.2,1.2,8.9,1.8,13.7,1.2c4.8-0.6,9.5-2.5,13.8-5.3
					c4.3-2.7,8.2-6.3,11.8-10.1c1.1-1.2,2.2-2.4,3.3-3.6c0.5-0.6,1.1-1.2,1.6-1.8l1.2-1.4l0.8-0.9c0.1-0.1-0.1,0-0.1,0l-0.1,0
					l-0.3,0l-0.6,0.1c-0.4,0-0.8,0.1-1.2,0.1l-0.4,0l-0.3,0c-0.4,0-0.8,0-1.1,0c-0.8,0-1.5-0.1-2.3-0.3c-1.5-0.3-2.9-0.7-4.4-1.2
					c-2.8-1-5.5-2.4-8.3-3.4c-1.4-0.5-2.8-1-4.2-1.3c-1.4-0.3-2.9-0.4-4.3-0.5c-2.8-0.1-5.6,0.1-8.2,0.1c-1.3,0-2.6-0.1-3.9-0.3
					c-1.3-0.2-2.5-0.5-3.7-0.8c-2.4-0.6-4.7-1.4-7.1-1.6c-2.4-0.3-4.6-0.1-6.8,0.2c-4.3,0.7-7.9,2.1-11.1,3.2
					c-3.2,1.2-5.9,2.1-8.2,2.7c-1.1,0.3-2.2,0.5-3.1,0.7c-0.9,0.1-1.7,0.3-2.3,0.4c-0.6,0.1-1.1,0.1-1.4,0.1c-0.3,0-0.5,0.1-0.5,0.1
					c0,0,0.2,0,0.5,0c0.3,0,0.8,0,1.4,0c0.6,0,1.4-0.2,2.3-0.3c0.9-0.2,2-0.3,3.1-0.7c2.3-0.6,5.1-1.5,8.3-2.6
					c3.2-1.1,6.8-2.4,11-3.1c2.1-0.3,4.3-0.4,6.6-0.2c2.3,0.3,4.6,1,7,1.7c1.2,0.3,2.5,0.7,3.8,0.9c1.3,0.2,2.6,0.3,4,0.3
					c2.7,0.1,5.4-0.2,8.2-0.1c1.4,0,2.8,0.2,4.2,0.5c1.4,0.3,2.7,0.7,4.1,1.2c2.7,1,5.4,2.4,8.3,3.5c1.5,0.5,3,1,4.5,1.3
					c0.8,0.1,1.6,0.2,2.4,0.3c0.4,0,0.8,0,1.2,0l0.3,0l0.2,0l0,0l0,0l-0.4,0.4c-0.5,0.6-1.1,1.2-1.6,1.8c-1.1,1.2-2.1,2.4-3.2,3.6
					c-3.6,3.8-7.4,7.3-11.6,10c-4.2,2.7-8.7,4.6-13.4,5.2c-4.6,0.6-9.2,0-13.3-1.1c-4.2-1.2-7.9-2.9-11.4-4.7
					c-3.4-1.9-6.5-3.8-9.4-5.7c-2.9-1.9-5.5-3.6-7.9-5.1c-2.4-1.5-4.5-2.9-6.4-4.1c-1.7-1.1-3.2-2-4.3-2.8c1.2-0.1,2.1-0.2,2.7-0.3
					C422.2,512.7,422.6,512.6,422.6,512.6z"/>
			</g>
		</g>
	</g>
	<path class="st10" d="M483.8,515c-2.6-1.1-5.2-2.5-8-3c-3.6-0.7-7.3,0.2-10.9-0.4c-2.6-0.4-5.2-1.5-7.8-1.9
		c-8.1-1.1-15.6,5.1-23.8,5.3l1.7-0.2c-1,0.1-2,0.2-3.1,0.2c3.9,2.7,7.9,5.4,11.8,8.2c4,2.8,8,5.5,12.4,7.5c4.4,1.9,9.3,3,14,2.3
		c4.5-0.7,8.7-3.1,12.2-6.1c3.6-3,6.6-6.6,9.6-10.2C489.3,517.1,486.5,516.1,483.8,515z M489.6,518.9c-0.7,0.9-1.5,1.7-2.2,2.6
		c-2.5,2.8-5.2,5.3-8.1,7.3c-2.9,2-6.2,3.4-9.5,3.8c-3.3,0.4-6.5,0-9.5-0.9c-3-0.9-5.6-2.2-8.1-3.5c-2.4-1.4-4.6-2.8-6.7-4.2
		c-2-1.4-3.9-2.6-5.6-3.8c-1.7-1.1-3.2-2.2-4.5-3c-1.2-0.8-2.2-1.4-3-2c0.6-0.1,1.1-0.1,1.5-0.2c0.2,0,0.4,0,0.6,0
		c0.8,0,2-0.2,3.5-0.5c1.5-0.3,3.3-0.9,5.3-1.6c2-0.7,4.3-1.6,6.9-2.3c2.6-0.7,5.6-1,8.7-0.1c1.5,0.4,3.1,0.9,4.8,1.3
		c1.7,0.4,3.6,0.5,5.4,0.4c1.8,0,3.7-0.1,5.5,0.1c1.8,0.2,3.7,0.8,5.5,1.6c1.8,0.8,3.6,1.7,5.6,2.4c1,0.4,2,0.6,3.1,0.8
		c0.5,0.1,1.1,0.1,1.6,0.1l0.5,0C490.5,517.8,490.1,518.3,489.6,518.9z"/>
	<polygon class="st12" points="445.9,486 449.5,487.5 452.4,487.5 456.7,487.5 458.2,486.3 453,483.2 448.3,484.1 	"/>
	<path class="st12" d="M457.6,501.8"/>
	<path class="st12" d="M478.5,485.9l-4.5,0.8c0,0,0,0-0.1,0l-2.1,1.8c-0.1,0.1-0.1,0.2,0,0.2l3.3,1.4c0,0,0,0,0.1,0h2.8h4.1
		c0,0,0.1,0,0.1,0l1.3-1c0.1-0.1,0.1-0.2,0-0.2L478.5,485.9C478.6,485.9,478.6,485.9,478.5,485.9z"/>
	<g>
		<path class="st13" d="M465.5,524.6c-3.3,0.8-6.9,0.6-10.2,0.1c-3.4-0.6-6.7-1.6-10-2.6c3.3,3.5,7.7,5.8,12.5,6.6
			c4.7,0.8,9.7-0.1,13.9-2.3c-2.1-1.7-5.1-2.4-7.8-1.8"/>
	</g>
	<path class="st14" d="M435.9,511.7"/>
	<path class="st14" d="M437.4,511.7"/>
	<path class="st15" d="M441.8,511.1c2.9-0.7,5.8-1.4,8.7-1.1c3.1,0.4,5.9,1.9,9,2.6c5.9,1.4,12.4-0.4,18.3,1.1
		c2.9,0.8,5.6,2.3,8.4,3.4c2.2,0.8,4.6,1.4,6.9,1.9c-3.5,1.4-7.5,1.6-11.3,1.5c-8.5-0.1-16.9-1.3-25.2-2.5c-2.5-0.4-5-0.7-7.4-1.2
		c-2.4-0.5-4.8-1.1-7.2-1.3c-1.6-0.1-3.1-0.1-4.7-0.1c-1.5,0-3-0.1-4.5-0.2c-1-0.1-2.8,0-3.7-0.5c0.6-1.1,4-1.4,5.1-1.6
		C436.7,512.4,439.3,511.7,441.8,511.1z"/>
	<g>
		<g>
			<g>
				<path d="M499.8,516.8c0-0.1-1.1,0.4-3,1.1c-1.9,0.7-4.8,1.5-8.4,2c-3.6,0.5-8,0.5-12.8,0.1c-4.8-0.4-10.1-1.2-15.7-2
					c-11.2-1.5-21.3-2.8-28.6-3.7c-3.7-0.5-6.6-0.8-8.7-1c-2.1-0.2-3.2-0.3-3.2-0.2s1.1,0.3,3.1,0.6c2,0.3,5,0.8,8.6,1.3
					c7.3,1.1,17.4,2.5,28.6,4c5.6,0.7,10.9,1.5,15.8,1.9c4.9,0.4,9.3,0.3,13-0.3c3.7-0.6,6.6-1.5,8.5-2.3c1-0.4,1.7-0.8,2.1-1
					C499.6,517,499.8,516.9,499.8,516.8z"/>
			</g>
		</g>
	</g>
	<path class="st16" d="M557.8,374.8"/>
</g>
</svg>
