<?xml version="1.0" encoding="utf-8"?>
<!-- Generator: Adobe Illustrator 22.1.0, SVG Export Plug-In . SVG Version: 6.00 Build 0)  -->
<svg version="1.1" id="Layer_1" xmlns="http://www.w3.org/2000/svg" xmlns:xlink="http://www.w3.org/1999/xlink" x="0px" y="0px"
	 viewBox="0 0 350 250" style="enable-background:new 0 0 350 250;" xml:space="preserve">
<style type="text/css">
	.st0{fill:#E5E5E5;stroke:#000000;stroke-width:0.5;stroke-miterlimit:10;}
	.st1{fill:#FFFFFF;}
	.st2{stroke:#000000;stroke-width:0.5;stroke-miterlimit:10;}
	.st3{fill:#FFFFFF;stroke:#000000;stroke-width:0.5;stroke-miterlimit:10;}
	.st4{font-family:'MyriadPro-Regular';}
	.st5{font-size:21.656px;}
	.st6{fill:#262F69;}
	.st7{fill:#332F30;}
	.st8{fill:#758AA9;}
	.st9{fill:#97A6CB;}
	.st10{fill:#D3BBAA;}
	.st11{fill:#C09D83;}
	.st12{stroke:#000000;stroke-miterlimit:10;}
	.st13{fill:none;}
	.st14{fill:none;stroke:#000000;stroke-miterlimit:10;}
	.st15{fill:#DFC8B8;}
	.st16{fill:#D3799A;}
	.st17{fill:#0E0E0D;}
	.st18{fill:#D3D3D3;}
	.st19{fill:#0F0F0E;}
	.st20{fill:#C25F87;}
	.st21{fill:none;stroke:#000000;stroke-width:0.5;stroke-miterlimit:10;}
</style>
<polygon points="64.6,121.4 64.6,45.4 67,43.3 194.8,43.3 211.4,43.3 213.5,44.2 214.3,46.7 214.3,132.7 84.1,133.8 65.3,133.8 "/>
<polyline class="st0" points="124.5,146.9 124.6,151.8 124.5,153.5 121.8,158.2 119.2,162.2 118.6,163.8 157.6,163.9 161.8,163 
	162.5,163 161.8,158.8 159.9,155.1 158.4,153.8 157.1,153 157,147.7 157,146.1 124.5,146.9 "/>
<polygon class="st1" points="76.8,113.8 76.8,52.4 78.9,50.7 187.1,50.7 201.1,50.7 202.9,51.4 203.6,53.4 203.6,123 93.3,123.9 
	77.5,123.9 "/>
<polygon class="st2" points="342.3,44.9 343,46.8 342.8,50.6 342.8,55.2 342.6,66.5 342,79 342,93.6 341.5,103.1 341.5,110.6 
	341.1,122 340.5,148.7 340.7,154.4 339.3,155.6 336,156.5 317.5,153.5 241.9,143.9 223.8,141.1 222.3,139.5 221.7,136.2 222.7,51.3 
	224.6,49.4 "/>
<polygon class="st3" points="227.1,55.9 226.7,133.3 226.8,134.3 251.7,137.1 284.7,140.6 302.1,142.7 322.7,145.3 334.6,146.6 
	336.9,51.9 "/>
<text transform="matrix(1 0 0 1 258.1289 98.8984)" class="st4 st5">&lt; /&gt;</text>
<g>
	<path d="M284.5,149.4c0,2.2,0.7,4.4,1,6.5c0.3,2.2,0.2,4.6-1,6.4c-1.7,2.4-5.1,3-7.7,4.4c-0.5,0.3-1.1,0.7-1,1.2
		c0.1,0.4,0.5,0.7,0.9,0.9c7.2,3.7,15.7,5,23.7,3.6c2.7-0.5,5.4-1.3,8-2c1.2-0.3,2.4-0.7,3.3-1.7c1.3-1.4,1.1-3.6,0.8-5.5
		c-0.4-2.6-1-5.3-1.8-7.8c-0.4-1.3-0.8-2.6-1.9-3.4c-0.9-0.7-2.2-0.9-3.3-1c-6.2-0.7-12.4-1.4-18.7-2.1c-0.6-0.1-1.1-0.1-1.7,0.1
		c-0.5,0.2-0.9,0.8-0.7,1.3"/>
	<g>
		<g>
			<path d="M284.3,150.3c0,0-0.2-0.4,0.3-1c0.2-0.3,0.6-0.4,1.1-0.5c0.5,0,1.1,0.1,1.7,0.2c2.6,0.3,6.4,0.8,11.2,1.4
				c2.4,0.3,4.9,0.6,7.7,0.9c0.7,0.1,1.4,0.3,1.9,0.6c0.6,0.3,1,0.9,1.4,1.5c0.6,1.3,1,2.8,1.4,4.3c0.4,1.5,0.7,3.1,1,4.7
				c0.3,1.6,0.6,3.3,0,4.8c-0.3,0.8-0.8,1.4-1.5,1.8c-0.7,0.4-1.5,0.7-2.4,0.9c-1.7,0.5-3.4,1-5.2,1.4c-3.5,0.9-7,1.2-10.4,1.1
				c-3.4-0.1-6.6-0.7-9.6-1.6c-1.5-0.4-2.9-1-4.3-1.6c-0.7-0.3-1.3-0.6-2-0.9c-0.3-0.2-0.6-0.3-0.7-0.6c-0.1-0.2-0.1-0.5,0.1-0.7
				c0.4-0.4,1.1-0.7,1.7-1c0.6-0.3,1.2-0.5,1.8-0.8c1.2-0.5,2.4-1,3.4-1.7c1-0.7,1.8-1.6,2.2-2.7c0.4-1,0.6-2.1,0.6-3
				c0-1.9-0.4-3.5-0.6-4.8c-0.3-1.3-0.5-2.3-0.5-3c-0.1-0.7-0.1-1.1-0.1-1.1c0,0,0,0.1,0,0.3c0,0.2,0,0.4,0,0.8c0,0.7,0.2,1.7,0.4,3
				c0.2,1.3,0.6,2.9,0.6,4.8c0,0.9-0.2,1.9-0.6,2.9c-0.4,1-1.1,1.8-2.1,2.5c-1,0.7-2.1,1.2-3.3,1.6c-0.6,0.2-1.2,0.5-1.8,0.7
				c-0.3,0.1-0.6,0.3-0.9,0.4c-0.3,0.1-0.6,0.3-0.9,0.6c-0.3,0.3-0.4,0.8-0.2,1.2c0.2,0.4,0.6,0.6,0.9,0.7c0.7,0.3,1.3,0.7,2,1
				c1.4,0.6,2.8,1.2,4.3,1.6c3,0.9,6.3,1.5,9.7,1.6c3.4,0.1,7-0.2,10.5-1.1c1.8-0.4,3.5-0.9,5.2-1.4c0.8-0.3,1.7-0.5,2.5-1
				c0.8-0.5,1.4-1.2,1.7-2.1c0.6-1.7,0.2-3.5,0-5.1c-0.3-1.6-0.6-3.2-1-4.7c-0.2-0.8-0.4-1.5-0.6-2.2c-0.2-0.7-0.4-1.5-0.8-2.2
				c-0.3-0.7-0.9-1.3-1.5-1.7c-0.7-0.4-1.4-0.6-2.1-0.7c-2.8-0.3-5.4-0.6-7.7-0.9c-4.7-0.5-8.5-0.9-11.2-1.2
				c-0.7-0.1-1.2-0.2-1.8-0.1c-0.5,0-1,0.2-1.2,0.5c-0.2,0.3-0.3,0.6-0.3,0.8C284.3,150.2,284.3,150.3,284.3,150.3z"/>
		</g>
	</g>
</g>
<polygon class="st2" points="11.7,181 7.7,153.8 4.3,132.5 3.8,127.3 4.3,125.9 6,125.4 7.7,125 11.1,125.2 78.5,121.2 80.5,121.1 
	81.2,121.5 82.1,122.5 82.6,126.8 90.7,171.3 90.5,172.3 "/>
<polygon class="st3" points="17.7,176.3 14.4,153.8 11.5,136.3 11,132 11.5,130.8 12.9,130.3 14.3,130 17.2,130.2 74.2,126.9 
	75.9,126.8 76.5,127.2 77.3,128 77.7,131.6 84.5,168.3 84.4,169.1 "/>
<g id="Layer_7">
	<ellipse class="st6" cx="47.8" cy="149.3" rx="13.8" ry="13.6"/>
	<path class="st1" d="M43.4,148.6c-0.1,0.1-0.2,0.2-0.3,0.3c0,0.2,0.1,0.4,0.3,0.5c0.7,0.7,1.7,1.1,2.6,1.6c1,0.5,1.9,1.2,2.7,2
		c0.2,0.1,0.3,0.3,0.6,0.3c0.2,0,0.5-0.1,0.7-0.3c0.3-0.2,0.6-0.4,0.7-0.8c0.1-0.3,0-0.5-0.1-0.8c-0.1-0.3-0.3-0.6-0.4-0.9
		c-0.1-0.1-0.1-0.2-0.2-0.3c-0.1-0.1-0.3-0.1-0.4-0.1c-0.2,0-0.4,0-0.7,0c-0.2,0-0.5,0.1-0.7,0.2c-0.3,0-0.6,0-0.8-0.1
		c-0.6-0.1-1.3-0.3-1.7-0.8c-0.2-0.2-0.3-0.4-0.5-0.6c-0.1-0.1-0.3-0.2-0.4-0.2c-0.2,0-0.4,0-0.5-0.1c-0.1-0.1-0.2-0.2-0.3-0.2
		C43.7,148.5,43.5,148.6,43.4,148.6z"/>
	<g>
		<path class="st7" d="M55,151.6c0.6,0.4,1.1,1,1.5,1.6c1,1.6,1.2,3.6,2.3,5.2c0.2,0.2,0.3,0.5,0.2,0.8c-0.1,0.2-0.4,0.3-0.6,0.3
			c-1.1,0.1-2.2,0.3-3.2,0.4c-0.3,0-0.6,0.1-0.7-0.1c-0.1-0.1-0.1-0.3-0.2-0.5c0-0.5,0-1,0-1.5c0-0.8,0.2-1.6,0.3-2.4
			c0.2-1.2,0.4-2.4,0.6-3.7"/>
		<g>
			<g>
				<path d="M55.1,151.8C55.1,151.8,55.1,151.8,55.1,151.8c0,0.1,0,0.1,0,0.2c0,0.1-0.1,0.3-0.1,0.6c-0.1,0.5-0.2,1.3-0.4,2.3
					c-0.1,0.5-0.2,1-0.2,1.6c-0.1,0.6-0.1,1.2-0.2,1.8c0,0.3,0,0.7,0,1c0,0.1,0,0.2,0,0.3c0,0.1,0.1,0.2,0.1,0.3
					c0,0,0.1,0.1,0.1,0.1c0,0,0.1,0,0.1,0.1c0.1,0,0.2,0,0.3,0c0.1,0,0.2,0,0.3,0c0.1,0,0.2,0,0.3,0c0.2,0,0.4,0,0.5-0.1
					c0.4,0,0.7-0.1,1.1-0.1c0.4,0,0.7-0.1,1.1-0.1c0.1,0,0.2,0,0.3,0c0.1,0,0.2,0,0.3-0.1c0.1,0,0.2-0.1,0.3-0.1
					c0.1-0.1,0.1-0.2,0.2-0.3c0-0.1,0-0.2,0-0.3c0-0.1-0.1-0.2-0.1-0.2s-0.1-0.1-0.1-0.2c0-0.1-0.1-0.1-0.1-0.2c0,0,0-0.1-0.1-0.1
					c0,0,0-0.1-0.1-0.1c0,0,0-0.1-0.1-0.1c0,0,0-0.1-0.1-0.1c0-0.1-0.1-0.1-0.1-0.2c0-0.1-0.1-0.1-0.1-0.2c0,0,0-0.1,0-0.1
					s0-0.1,0-0.1c0-0.1-0.1-0.1-0.1-0.2c-0.1-0.1-0.1-0.3-0.2-0.4c-0.1-0.3-0.2-0.6-0.3-0.8c-0.2-0.5-0.4-1-0.6-1.5
					c-0.1-0.1-0.1-0.2-0.2-0.3c0-0.1-0.1-0.1-0.1-0.2c0,0,0,0,0-0.1c0,0,0,0,0-0.1c-0.1-0.1-0.1-0.2-0.2-0.3c0,0-0.1-0.1-0.1-0.1
					c0,0-0.1-0.1-0.1-0.1c-0.2-0.3-0.5-0.6-0.7-0.8C55.5,152,55.3,151.9,55.1,151.8C55.1,151.7,55.1,151.7,55.1,151.8
					c-0.1-0.1-0.1-0.1-0.1-0.1C55,151.6,55.1,151.7,55.1,151.8c0.2,0.1,0.3,0.3,0.5,0.4c0.2,0.2,0.4,0.4,0.6,0.8
					c0,0,0.1,0.1,0.1,0.1c0,0,0.1,0.1,0.1,0.1c0.1,0.1,0.1,0.2,0.2,0.3c0,0,0,0,0,0.1s0,0,0,0.1c0,0,0.1,0.1,0.1,0.2
					c0.1,0.1,0.1,0.2,0.2,0.3c0.2,0.4,0.4,0.9,0.6,1.5c0.1,0.3,0.2,0.6,0.3,0.8c0,0.1,0.1,0.3,0.2,0.4c0,0.1,0.1,0.1,0.1,0.2
					c0,0,0,0.1,0,0.1c0,0,0,0.1,0,0.1c0,0.1,0.1,0.2,0.1,0.2c0,0.1,0.1,0.1,0.1,0.2c0,0,0,0.1,0.1,0.1c0,0,0,0.1,0.1,0.1
					c0,0,0,0.1,0.1,0.1s0,0.1,0.1,0.1c0,0.1,0.1,0.1,0.1,0.2c0,0.1,0.1,0.1,0.1,0.2s0.1,0.1,0.1,0.2c0,0.1,0,0.2,0,0.2
					c0,0.1-0.1,0.1-0.1,0.2c-0.1,0-0.1,0.1-0.2,0.1c-0.1,0-0.2,0-0.3,0c-0.1,0-0.2,0-0.3,0c-0.4,0-0.7,0.1-1.1,0.1
					c-0.4,0-0.7,0.1-1.1,0.1c-0.2,0-0.4,0-0.5,0.1c-0.2,0-0.4,0.1-0.5,0.1c-0.1,0-0.2,0-0.2,0c0,0-0.1,0-0.1-0.1c0,0-0.1,0-0.1-0.1
					c0-0.1-0.1-0.1-0.1-0.2c0-0.1,0-0.2,0-0.2c0-0.3,0-0.7,0-1c0-0.6,0.1-1.2,0.1-1.8s0.2-1.1,0.2-1.6c0.1-1,0.3-1.7,0.3-2.3
					c0-0.3,0.1-0.5,0.1-0.6C55.1,151.9,55.1,151.8,55.1,151.8C55.1,151.8,55.1,151.8,55.1,151.8z"/>
			</g>
		</g>
	</g>
	<g>
		<path class="st7" d="M37.4,151.3c-0.4,0.3-0.8,0.6-1.1,0.9c-0.3,0.3-0.7,0.6-0.9,1c-0.5,0.7-0.5,1.6-0.5,2.5c0,1.5,0,3,0,4.5
			c0,0.2,0,0.5,0.2,0.6c0.2,0.2,0.4,0.2,0.6,0.2c1.5,0.1,3.1,0,4.5-0.3c0.2,0,0.4-0.1,0.5-0.3c0-0.1,0-0.2,0-0.3
			c0.1-2.6,0.1-5.2-1-7.6c-0.2-0.5-0.5-1-1-1.3c-0.5-0.3-1.2-0.3-1.5,0.1"/>
		<g>
			<g>
				<path d="M37.3,151.4C37.3,151.4,37.3,151.4,37.3,151.4c0.1-0.1,0.1-0.1,0.1-0.1s0.1,0,0.1-0.1c0.1,0,0.2-0.1,0.3-0.1
					c0.1,0,0.3,0,0.5,0c0,0,0,0,0.1,0c0,0,0,0,0.1,0c0,0,0,0,0.1,0c0,0,0,0,0,0c0,0,0,0,0,0c0.1,0,0.2,0.1,0.3,0.1
					c0.2,0.1,0.3,0.3,0.5,0.5c0.2,0.2,0.3,0.4,0.4,0.7c0.1,0.1,0.1,0.3,0.2,0.4c0,0,0,0.1,0,0.1c0,0,0,0.1,0,0.1
					c0,0.1,0.1,0.1,0.1,0.2c0.2,0.6,0.4,1.3,0.5,2c0.1,0.7,0.2,1.5,0.2,2.3c0,0.8,0,1.7,0,2.6c0,0.1,0,0.2-0.1,0.3
					c-0.1,0.1-0.2,0.1-0.3,0.2c-0.1,0-0.2,0.1-0.3,0.1c-0.1,0-0.2,0-0.3,0.1c-0.5,0.1-0.9,0.1-1.4,0.2c-0.5,0-1,0.1-1.4,0.1
					c-0.1,0-0.2,0-0.3,0c-0.1,0-0.2,0-0.3,0c-0.1,0-0.2,0-0.3,0c-0.1,0-0.2,0-0.3,0s-0.2,0-0.3-0.1c-0.1,0-0.2-0.1-0.2-0.2
					c0-0.1-0.1-0.2-0.1-0.3c0-0.1,0-0.2,0-0.3c0-0.4,0-0.9,0-1.3c0-0.8,0-1.6,0-2.3c0-0.7,0-1.4,0.1-2c0-0.2,0.1-0.3,0.1-0.4
					c0,0,0-0.1,0-0.1l0-0.1l0,0c0,0,0-0.1,0-0.1s0-0.1,0-0.1c0.1-0.3,0.3-0.5,0.4-0.7s0.3-0.3,0.5-0.5c0.2-0.1,0.3-0.3,0.4-0.4
					c0.3-0.2,0.5-0.4,0.6-0.5C37.2,151.5,37.3,151.4,37.3,151.4c0.1,0,0.1-0.1,0.1-0.1S37.4,151.3,37.3,151.4c0,0,0,0.1-0.1,0.1
					c-0.1,0.1-0.4,0.3-0.6,0.5c-0.1,0.1-0.3,0.2-0.5,0.4c-0.2,0.1-0.3,0.3-0.5,0.5c-0.2,0.2-0.3,0.4-0.5,0.7c0,0,0,0.1,0,0.1
					c0,0,0,0.1,0,0.1l0,0.1l0,0.1c0,0,0,0.1,0,0.1c0,0.1-0.1,0.3-0.1,0.5c0,0.3-0.1,0.6-0.1,1s0,0.7,0,1.1c0,0.7,0,1.5,0,2.3
					c0,0.4,0,0.8,0,1.3c0,0.1,0,0.2,0,0.3c0,0.1,0,0.2,0.1,0.3c0,0.1,0.1,0.1,0.1,0.2c0,0,0.1,0.1,0.1,0.1c0.1,0.1,0.2,0.1,0.3,0.1
					c0.1,0,0.2,0,0.3,0c0.1,0,0.2,0,0.3,0c0.1,0,0.2,0,0.3,0c0.1,0,0.2,0,0.4,0c0.5,0,0.9,0,1.4-0.1c0.5,0,1-0.1,1.4-0.2
					c0.1,0,0.2,0,0.3-0.1c0.1,0,0.2,0,0.3-0.1c0.1,0,0.1,0,0.2-0.1c0.1,0,0.1-0.1,0.1-0.1c0,0,0-0.1,0-0.1c0,0,0-0.1,0-0.1
					c0-0.1,0-0.1,0-0.2c0-0.9,0-1.8,0-2.6c0-0.8-0.1-1.6-0.2-2.3s-0.3-1.4-0.5-2c0-0.1-0.1-0.1-0.1-0.2c0,0,0-0.1,0-0.1s0-0.1,0-0.1
					c-0.1-0.1-0.1-0.3-0.2-0.4c-0.1-0.3-0.3-0.5-0.4-0.7c-0.2-0.2-0.3-0.4-0.5-0.5c-0.1-0.1-0.2-0.1-0.3-0.1c0,0,0,0,0,0s0,0,0,0
					c0,0,0,0-0.1,0c0,0,0,0-0.1,0c0,0,0,0-0.1,0c-0.2,0-0.3,0-0.5,0c-0.1,0-0.2,0.1-0.3,0.1c0,0-0.1,0-0.1,0.1
					C37.4,151.3,37.3,151.3,37.3,151.4C37.3,151.4,37.3,151.4,37.3,151.4z"/>
			</g>
		</g>
	</g>
	<g>
		<path class="st7" d="M39.3,150.6c-0.6,0.3-1.3,0.6-1.9,0.8c1.6,0.5,2.5,2.2,2.9,3.8c0.4,1.6,0.3,3.3,0.6,4.9
			c0,0.2,0.1,0.5,0.3,0.6c0.1,0.1,0.3,0.1,0.4,0.1c1,0,1.9-0.1,2.9-0.1c2.9-0.1,5.8-0.3,8.6-0.4c0.6,0,1.1-0.1,1.6-0.4
			c0.7-0.5,0.9-1.4,1-2.2c0.2-1,0.4-1.9,0.3-2.9s-0.3-2-0.8-2.8c-0.5-0.6-1.1-1.1-1.9-1.4c-0.2-0.1-0.5-0.1-0.7,0
			c-0.2,0.2-0.3,0.5-0.3,0.7c-0.2,2.1-0.8,4.3-2,6.1c-0.2,0.4-0.6,0.8-1.1,0.8c-0.4,0-0.7-0.3-0.9-0.6c-0.7-0.8-1.2-1.9-1.8-2.8
			c-1.2-1.8-2.9-3.2-4.8-4.1c-0.8-0.4-1.8-0.7-2.7-0.4"/>
		<g>
			<g>
				<path d="M39,150.5C39,150.5,39,150.5,39,150.5c0.1,0,0.1,0,0.2,0c0,0,0.1,0,0.2,0c0.1,0,0.2,0,0.3,0c0.2,0,0.4,0,0.7,0.1
					c0.1,0,0.3,0.1,0.5,0.1s0.3,0.1,0.5,0.2c0.7,0.3,1.5,0.7,2.4,1.4c0.4,0.3,0.9,0.7,1.3,1.1c0.4,0.4,0.9,0.9,1.2,1.5
					c0.4,0.5,0.7,1.2,1.1,1.8c0.2,0.3,0.4,0.6,0.6,0.9c0.1,0.1,0.1,0.2,0.2,0.2c0.1,0.1,0.1,0.2,0.2,0.2c0.1,0.1,0.3,0.3,0.5,0.4
					c0.1,0,0.2,0.1,0.3,0.1s0.2,0,0.3,0c0.2-0.1,0.4-0.2,0.5-0.4c0.1-0.2,0.3-0.3,0.4-0.5c0.1-0.1,0.1-0.2,0.2-0.3
					c0-0.1,0.1-0.2,0.2-0.3c0.2-0.4,0.4-0.8,0.6-1.2c0.2-0.4,0.3-0.8,0.5-1.2s0.3-0.9,0.3-1.3s0.2-0.9,0.2-1.4c0-0.1,0-0.2,0-0.4
					c0-0.1,0-0.2,0-0.3c0-0.1,0.1-0.2,0.1-0.3c0.1-0.1,0.2-0.1,0.3-0.2c0.1,0,0.2,0,0.3,0c0.1,0,0.1,0,0.2,0c0.1,0,0.1,0,0.2,0.1
					c0.2,0.1,0.4,0.2,0.6,0.3c0.4,0.3,0.8,0.6,1.1,1c0.3,0.4,0.5,0.9,0.6,1.3c0.1,0.5,0.2,1,0.2,1.5c0,0.5,0,1-0.1,1.5
					c-0.1,0.4-0.1,0.8-0.2,1.2c-0.1,0.4-0.1,0.8-0.3,1.1c-0.1,0.2-0.1,0.4-0.2,0.5c-0.1,0.2-0.2,0.3-0.3,0.4c0,0-0.1,0.1-0.1,0.1
					c0,0-0.1,0.1-0.1,0.1c-0.1,0-0.2,0.1-0.2,0.1c-0.2,0.1-0.4,0.1-0.5,0.2c-0.4,0.1-0.8,0.1-1.1,0.1c-0.4,0-0.8,0-1.1,0.1
					c-0.7,0-1.5,0.1-2.2,0.1c-1.4,0.1-2.8,0.1-4.2,0.2c-0.7,0-1.3,0.1-2,0.1c-0.3,0-0.6,0-0.9,0c-0.2,0-0.3,0-0.5,0
					c-0.1,0-0.2,0-0.2,0c-0.1,0-0.2,0-0.2,0s-0.1,0-0.2-0.1c-0.1,0-0.1-0.1-0.1-0.1c0-0.1-0.1-0.1-0.1-0.2c0-0.1,0-0.1-0.1-0.2
					c-0.1-0.3-0.1-0.6-0.1-0.9c-0.1-0.6-0.1-1.1-0.1-1.6c0-0.5-0.1-1-0.2-1.5c0-0.2-0.1-0.5-0.1-0.7c0-0.2-0.1-0.5-0.2-0.7
					c-0.3-0.9-0.7-1.6-1.2-2.2c-0.2-0.3-0.5-0.5-0.8-0.7c-0.1-0.1-0.3-0.2-0.4-0.2c0,0-0.1,0-0.1,0c0,0-0.1,0-0.1,0c0,0,0,0,0,0
					c0,0,0,0,0,0c0,0,0,0-0.1,0c0.6-0.3,1-0.5,1.4-0.6c0.2-0.1,0.3-0.1,0.4-0.2c0,0,0.1,0,0.1,0c0,0,0,0,0,0s0,0,0,0
					c0,0-0.1,0-0.1,0c-0.1,0-0.2,0.1-0.4,0.2c-0.3,0.1-0.8,0.4-1.5,0.6c0,0,0.1,0,0.1,0c0,0,0,0,0.1,0c0,0,0,0,0,0c0,0,0.1,0,0.1,0
					c0,0,0.1,0,0.1,0c0.1,0.1,0.3,0.1,0.4,0.2c0.3,0.2,0.5,0.4,0.8,0.7c0.5,0.6,0.9,1.3,1.1,2.2c0.1,0.2,0.1,0.4,0.2,0.7
					c0,0.2,0.1,0.5,0.1,0.7c0.1,0.5,0.1,1,0.1,1.5c0,0.5,0.1,1.1,0.1,1.7c0,0.3,0.1,0.6,0.1,0.9c0,0.1,0,0.1,0.1,0.2
					c0,0.1,0.1,0.1,0.1,0.2s0.1,0.1,0.2,0.2c0.1,0,0.2,0.1,0.2,0.1c0.1,0,0.2,0,0.2,0s0.2,0,0.2,0c0.2,0,0.3,0,0.5,0
					c0.3,0,0.6,0,0.9,0c0.6,0,1.3-0.1,2-0.1c1.3-0.1,2.7-0.1,4.2-0.2c0.7,0,1.5-0.1,2.2-0.1c0.4,0,0.7,0,1.1-0.1
					c0.4,0,0.8,0,1.1-0.1c0.2,0,0.4-0.1,0.6-0.2c0.1,0,0.2-0.1,0.3-0.1c0,0,0.1-0.1,0.1-0.1c0,0,0.1-0.1,0.1-0.1
					c0.1-0.1,0.3-0.3,0.4-0.5s0.2-0.4,0.2-0.5c0.1-0.4,0.2-0.8,0.3-1.1c0.1-0.4,0.1-0.8,0.2-1.2c0.1-0.5,0.1-1,0.1-1.5
					c0-0.5-0.1-1-0.2-1.5s-0.3-1-0.6-1.4c-0.3-0.4-0.7-0.8-1.1-1c-0.2-0.1-0.4-0.2-0.7-0.3c-0.1,0-0.1,0-0.2-0.1c-0.1,0-0.1,0-0.2,0
					c-0.1,0-0.3,0-0.4,0c-0.1,0-0.1,0-0.2,0.1s-0.1,0.1-0.1,0.1c-0.1,0.1-0.1,0.2-0.1,0.3c0,0.1,0,0.2,0,0.4c0,0.1,0,0.2,0,0.3
					c0,0.5-0.1,0.9-0.2,1.4c-0.1,0.4-0.2,0.9-0.3,1.3c-0.1,0.4-0.3,0.8-0.5,1.2c-0.2,0.4-0.4,0.8-0.6,1.2c0,0.1-0.1,0.2-0.2,0.3
					c-0.1,0.1-0.1,0.2-0.2,0.3c-0.1,0.2-0.2,0.3-0.4,0.5c-0.1,0.2-0.3,0.3-0.5,0.3c-0.2,0.1-0.4,0-0.6,0c-0.2-0.1-0.3-0.2-0.5-0.3
					c-0.1-0.1-0.1-0.1-0.2-0.2s-0.1-0.2-0.2-0.2c-0.2-0.3-0.4-0.6-0.6-0.9c-0.4-0.6-0.7-1.2-1.1-1.8c-0.4-0.6-0.8-1-1.3-1.5
					c-0.4-0.4-0.9-0.8-1.3-1.1c-0.9-0.6-1.7-1.1-2.4-1.3c-0.4-0.1-0.7-0.2-1-0.3c-0.3,0-0.5-0.1-0.7,0c-0.1,0-0.2,0-0.3,0
					c-0.1,0-0.1,0-0.2,0C39.1,150.4,39.1,150.4,39,150.5C39,150.5,39,150.5,39,150.5z"/>
			</g>
		</g>
	</g>
	<g>
		<g>
			<g>
				<path d="M36.9,157.9C36.9,157.9,36.9,157.8,36.9,157.9c0-0.1,0-0.1,0-0.1c0-0.1,0-0.2,0-0.4c0-0.2,0-0.4-0.1-0.6
					c0-0.1-0.1-0.2-0.1-0.3c0-0.1,0-0.1-0.1-0.2c0-0.1-0.1-0.1-0.1-0.2c0-0.1-0.1-0.1-0.1-0.2c0-0.1-0.1-0.1-0.1-0.2
					c0,0,0-0.1,0-0.2c0-0.1,0-0.1,0-0.2c0,0,0-0.1,0.1-0.1c0,0,0.1-0.1,0.1-0.1c0-0.1,0.1-0.2,0.1-0.2c0.1-0.1,0.2-0.3,0.2-0.3
					c0,0,0-0.1,0.1-0.1c0,0,0,0,0,0c0,0,0,0,0,0c0,0,0,0-0.1,0.1c0,0.1-0.1,0.2-0.2,0.3c0,0.1-0.1,0.1-0.1,0.2c0,0-0.1,0.1-0.1,0.1
					c0,0-0.1,0.1-0.1,0.1c0,0,0,0.1,0,0.2c0,0.1,0,0.1,0.1,0.2c0,0.1,0.1,0.1,0.1,0.2c0,0.1,0.1,0.1,0.1,0.2c0,0.1,0.1,0.1,0.1,0.2
					c0,0.1,0.1,0.1,0.1,0.2c0,0.1,0.1,0.2,0.1,0.3c0.1,0.2,0.1,0.4,0.1,0.6c0,0.2,0,0.3,0,0.4C36.9,157.8,36.9,157.9,36.9,157.9z"/>
			</g>
		</g>
	</g>
	<g>
		<g>
			<g>
				<path d="M38.7,157.9C38.7,157.9,38.7,157.9,38.7,157.9c0.1-0.1,0.1-0.1,0.1-0.1c0,0,0,0,0-0.1c0,0,0.1-0.1,0.1-0.1
					c0,0,0-0.1,0.1-0.1c0,0,0-0.1,0.1-0.1c0-0.1,0.1-0.1,0.1-0.2c0.1-0.2,0.1-0.4,0.2-0.6c0-0.2,0-0.4,0-0.6c0-0.1,0-0.2,0-0.3
					c0,0,0-0.1,0-0.1c0,0,0-0.1,0-0.1c0-0.1,0-0.1-0.1-0.2c0,0,0,0,0-0.1c0,0,0,0,0-0.1c0-0.1,0-0.1-0.1-0.1c0,0,0,0,0,0.1
					c0,0,0,0,0,0.1c0,0,0,0,0,0.1c0,0,0,0.1,0,0.2c0,0,0,0.1,0,0.1c0,0,0,0.1,0,0.1c0,0.1,0,0.2,0,0.2c0,0.2,0,0.4,0,0.6
					c0,0.2-0.1,0.4-0.2,0.6c0,0.1-0.1,0.2-0.1,0.2c0,0,0,0.1-0.1,0.1c0,0,0,0.1-0.1,0.1c0,0.1-0.1,0.1-0.1,0.2c0,0,0,0,0,0.1
					C38.8,157.8,38.8,157.8,38.7,157.9C38.7,157.9,38.7,157.9,38.7,157.9z"/>
			</g>
		</g>
	</g>
	<g>
		<g>
			<g>
				<path d="M49.5,159.6c0,0,0,0,0.1-0.1c0-0.1,0.1-0.2,0.2-0.4c0.2-0.3,0.4-0.8,0.7-1.3c0.3-0.6,0.6-1.2,1-2c0,0,0,0,0-0.1l0-0.1
					c0,0,0,0,0-0.1v0v0l0,0l0,0l0,0c0,0,0,0-0.1,0c0,0,0,0,0,0s0,0,0,0c-0.1,0-0.2,0.1-0.3,0.1c0,0-0.1,0.1-0.1,0.1
					c0,0-0.1,0.1-0.1,0.2c0,0.1-0.1,0.2-0.1,0.3c-0.1,0.4-0.3,0.9-0.5,1.3c-0.1,0.2-0.3,0.4-0.4,0.6c-0.1,0.1-0.2,0.2-0.2,0.2
					s-0.2,0.1-0.3,0c-0.1,0-0.2-0.1-0.2-0.2c-0.1-0.1-0.1-0.2-0.2-0.3c-0.1-0.2-0.3-0.3-0.4-0.5c-0.3-0.3-0.5-0.6-0.7-0.9
					c-0.1-0.1-0.2-0.3-0.3-0.4s-0.2-0.3-0.3-0.4c-0.2-0.2-0.4-0.4-0.7-0.5c-0.2-0.1-0.5-0.1-0.6-0.1c-0.1,0-0.2,0-0.2,0
					c-0.1,0-0.1,0-0.2,0.1c0,0,0,0-0.1,0c0,0,0,0,0,0c0,0,0,0,0,0c0,0,0,0,0,0c0,0,0,0,0,0c0,0,0,0,0.1,0c0,0,0.1,0,0.2-0.1
					c0.1,0,0.1,0,0.2,0c0.2,0,0.4,0,0.6,0.1c0.2,0.1,0.4,0.3,0.6,0.5c0.1,0.1,0.2,0.2,0.3,0.4s0.2,0.3,0.3,0.4
					c0.2,0.3,0.5,0.6,0.7,0.9c0.1,0.2,0.3,0.3,0.4,0.5c0.1,0.1,0.1,0.2,0.2,0.3c0,0,0.1,0.1,0.1,0.1c0,0,0.1,0.1,0.2,0.1
					c0.1,0,0.3,0,0.4-0.1c0.1-0.1,0.2-0.2,0.3-0.2c0.1-0.2,0.3-0.4,0.4-0.6c0.2-0.4,0.4-0.9,0.5-1.3c0-0.1,0.1-0.2,0.1-0.3
					c0,0,0-0.1,0.1-0.1c0,0,0.1-0.1,0.1-0.1c0.1-0.1,0.2-0.1,0.3-0.1h0l0,0c0,0,0,0,0,0v0l0,0c0,0,0,0,0,0.1c-0.4,0.7-0.7,1.4-1,2
					c-0.3,0.6-0.5,1-0.7,1.3c-0.1,0.2-0.1,0.3-0.2,0.4C49.5,159.5,49.5,159.6,49.5,159.6z"/>
			</g>
		</g>
	</g>
	<g>
		<path class="st8" d="M42.8,148.9c-1.3,0.4-2.6,0.9-3.7,1.7c1.4,0.2,2.4,1.2,3.4,2.1c2.2,2.1,4.5,4.3,6.4,6.7
			c0.1,0.2,0.4,0.4,0.6,0.3c0.2,0,0.3-0.2,0.4-0.4c1.1-2.3,2.2-4.5,2.8-7c0.1-0.5,0.2-1.1,0-1.5c-0.2-0.5-0.8-0.7-1.3-0.8
			c-0.5-0.1-1-0.3-1.4-0.6c-0.1,1-0.3,1.9-0.4,2.9c0,0.2-0.1,0.5-0.3,0.5c-0.2,0-0.3-0.1-0.5-0.2c-1.1-0.9-2.3-1.8-3.4-2.7
			C44.7,149.4,43.8,148.7,42.8,148.9"/>
		<g>
			<g>
				<path d="M42.7,148.8C42.7,148.8,42.8,148.8,42.7,148.8c0,0,0.1,0,0.1,0c0,0,0.1,0,0.1,0c0.1,0,0.1,0,0.2,0c0,0,0.1,0,0.1,0
					c0,0,0.1,0,0.1,0c0,0,0,0,0.1,0c0,0,0,0,0.1,0s0,0,0.1,0c0,0,0,0,0.1,0c0.2,0.1,0.4,0.2,0.6,0.3c0.2,0.1,0.5,0.3,0.7,0.5
					c0.3,0.2,0.5,0.4,0.8,0.7c0.6,0.5,1.3,1,2,1.6c0.2,0.2,0.4,0.3,0.6,0.5c0.1,0.1,0.2,0.2,0.3,0.2c0,0,0.1,0.1,0.2,0.1
					c0.1,0,0.1,0.1,0.2,0.1c0.1,0,0.1,0,0.2,0c0.1,0,0.1-0.1,0.1-0.2c0.1-0.1,0.1-0.3,0.1-0.4c0-0.3,0.1-0.5,0.1-0.8
					c0.1-0.6,0.2-1.1,0.2-1.7c0-0.1,0-0.2,0-0.2l0-0.1v0h0l0,0c0,0,0,0,0,0c0.1,0.1,0.3,0.2,0.4,0.2c0.3,0.1,0.6,0.2,0.9,0.3
					c0.2,0,0.3,0.1,0.5,0.2c0.1,0.1,0.3,0.1,0.4,0.2c0.1,0.1,0.3,0.2,0.3,0.3c0.1,0.1,0.2,0.3,0.2,0.4c0,0.2,0,0.3,0,0.5
					c0,0.2,0,0.3-0.1,0.5c0,0.2-0.1,0.3-0.1,0.5s-0.1,0.3-0.1,0.5c-0.4,1.3-0.9,2.6-1.6,4c-0.3,0.7-0.6,1.3-0.9,2
					c0,0.1-0.1,0.2-0.1,0.2c0,0.1-0.1,0.2-0.1,0.2c0,0.1-0.1,0.1-0.2,0.2c0,0-0.1,0-0.1,0s-0.1,0-0.1,0c-0.1,0-0.2-0.1-0.2-0.1
					c-0.1-0.1-0.1-0.1-0.2-0.2c-0.1-0.1-0.2-0.3-0.3-0.4c-0.9-1.1-1.8-2.1-2.7-3c-0.9-0.9-1.7-1.8-2.6-2.5c-0.4-0.4-0.8-0.8-1.2-1.1
					c-0.4-0.4-0.8-0.7-1.2-1c0,0,0,0-0.1-0.1c0,0,0,0-0.1,0c0,0-0.1-0.1-0.1-0.1c-0.1-0.1-0.2-0.1-0.3-0.2c-0.2-0.1-0.4-0.2-0.6-0.3
					c-0.1,0-0.1,0-0.2,0c0,0,0,0-0.1,0c0,0-0.1,0-0.1,0c-0.1,0-0.1,0-0.2,0c0,0-0.1,0-0.2,0c0,0,0,0-0.1,0l0,0c0,0,0,0,0,0l0,0
					c0,0,0.1-0.1,0.1-0.1c0.1-0.1,0.2-0.1,0.2-0.2c0.7-0.4,1.2-0.7,1.7-0.9c0.5-0.2,0.9-0.3,1.2-0.4c0.1,0,0.1,0,0.2-0.1
					c0.1,0,0.1,0,0.1,0C42.8,148.9,42.8,148.9,42.7,148.8C42.8,148.9,42.8,148.9,42.7,148.8C42.8,148.9,42.8,148.9,42.7,148.8
					c0.1,0.1,0,0.1,0,0.1c0,0-0.1,0-0.1,0c-0.1,0-0.1,0-0.2,0.1c-0.3,0.1-0.7,0.2-1.2,0.4c-0.5,0.2-1.1,0.5-1.8,0.9
					c-0.1,0-0.2,0.1-0.2,0.2c0,0-0.1,0.1-0.1,0.1l0,0l0,0c0,0,0,0,0,0h0l0.1,0c0,0,0.1,0,0.1,0c0,0,0.1,0,0.2,0c0,0,0.1,0,0.2,0
					c0,0,0,0,0.1,0c0,0,0,0,0.1,0c0,0,0.1,0,0.2,0c0.2,0.1,0.4,0.2,0.6,0.3c0.1,0.1,0.2,0.1,0.3,0.2c0,0,0.1,0.1,0.1,0.1
					c0,0,0,0,0.1,0c0,0,0,0,0.1,0.1c0.4,0.3,0.8,0.6,1.1,1c0.4,0.4,0.8,0.7,1.2,1.1c0.8,0.8,1.7,1.6,2.6,2.5c0.9,0.9,1.8,1.9,2.6,3
					c0.1,0.1,0.2,0.3,0.3,0.4c0.1,0.1,0.1,0.1,0.2,0.2c0.1,0.1,0.1,0.1,0.2,0.1c0.1,0,0.2,0,0.3,0c0.1,0,0.2-0.1,0.2-0.2
					c0.1-0.1,0.1-0.2,0.1-0.2c0-0.1,0.1-0.2,0.1-0.2c0.3-0.6,0.6-1.3,0.9-2c0.6-1.3,1.2-2.6,1.6-4c0-0.2,0.1-0.3,0.1-0.5
					c0-0.2,0.1-0.3,0.1-0.5c0-0.2,0.1-0.3,0.1-0.5s0-0.3,0-0.5c0-0.2-0.1-0.3-0.2-0.5c-0.1-0.1-0.2-0.3-0.3-0.3
					c-0.1-0.1-0.3-0.2-0.4-0.2c-0.1-0.1-0.3-0.1-0.5-0.2c-0.3-0.1-0.6-0.2-0.9-0.3c-0.1-0.1-0.3-0.1-0.4-0.2c0,0,0,0,0,0l0,0l0,0
					c0,0,0,0,0,0.1l0,0.1c0,0.1,0,0.2,0,0.2c-0.1,0.6-0.2,1.2-0.2,1.7c0,0.3-0.1,0.6-0.1,0.8c0,0.1,0,0.3-0.1,0.4
					c0,0.1-0.1,0.1-0.1,0.1c-0.1,0-0.1,0-0.2,0c-0.1,0-0.1,0-0.2-0.1c-0.1,0-0.1-0.1-0.2-0.1c-0.1-0.1-0.2-0.2-0.3-0.2
					c-0.2-0.2-0.4-0.3-0.6-0.5c-0.8-0.6-1.4-1.1-2-1.6c-0.3-0.2-0.6-0.5-0.8-0.7c-0.3-0.2-0.5-0.4-0.7-0.5c-0.2-0.1-0.5-0.2-0.7-0.3
					c0,0,0,0-0.1,0c0,0,0,0-0.1,0c0,0,0,0-0.1,0c0,0,0,0-0.1,0c0,0-0.1,0-0.1,0c0,0-0.1,0-0.1,0c-0.1,0-0.1,0-0.2,0
					c-0.1,0-0.1,0-0.1,0C42.8,148.8,42.8,148.8,42.7,148.8C42.8,148.8,42.7,148.8,42.7,148.8z"/>
			</g>
		</g>
	</g>
	<g>
		<path class="st9" d="M47.2,151.2c0.3,0.4,0.7,0.6,1.1,0.9c0.4,0.3,0.7,0.5,1,0.9c0.1-0.4,0.1-0.9,0.1-1.3c0-0.1,0-0.3,0-0.4
			c-0.1-0.3-0.3-0.5-0.6-0.6c-0.3-0.1-0.6-0.1-0.9-0.1c-0.1,0-0.2,0-0.3,0.1c-0.1,0-0.2,0.1-0.2,0.2C47.3,151,47.2,151.1,47.2,151.2
			"/>
		<g>
			<g>
				<path d="M47.2,151.2C47.2,151.2,47.2,151.2,47.2,151.2C47.2,151.2,47.2,151.1,47.2,151.2c0-0.1,0.1-0.2,0.1-0.3
					c0,0,0-0.1,0.1-0.1c0,0,0.1-0.1,0.1-0.1c0.1,0,0.1,0,0.2,0c0.1,0,0.2,0,0.2,0c0.2,0,0.3,0,0.5,0c0.2,0,0.4,0.1,0.6,0.2
					c0.1,0.1,0.2,0.1,0.2,0.2s0.1,0.2,0.1,0.3c0,0.1,0,0.2,0,0.4c0,0.1,0,0.2,0,0.4c0,0.1,0,0.3,0,0.4c0,0.1,0,0.1,0,0.2
					c0,0.1,0,0.1,0,0.2c0,0,0-0.1-0.1-0.1c0,0-0.1-0.1-0.1-0.1c-0.1-0.1-0.1-0.1-0.2-0.2c-0.1-0.1-0.3-0.2-0.4-0.3
					c-0.3-0.2-0.5-0.4-0.7-0.5c-0.1-0.1-0.2-0.1-0.3-0.2c-0.1-0.1-0.1-0.1-0.2-0.2C47.3,151.3,47.2,151.2,47.2,151.2
					C47.2,151.2,47.2,151.2,47.2,151.2C47.2,151.2,47.2,151.2,47.2,151.2c0,0,0.1,0.1,0.1,0.1c0,0.1,0.1,0.1,0.2,0.2
					s0.2,0.1,0.3,0.2c0.2,0.2,0.5,0.3,0.7,0.5c0.1,0.1,0.3,0.2,0.4,0.3c0.1,0.1,0.1,0.1,0.2,0.2c0,0,0.1,0.1,0.1,0.1c0,0,0,0,0,0.1
					c0,0,0,0.1,0.1,0.1c0-0.1,0-0.2,0-0.2c0-0.1,0-0.1,0-0.2c0-0.1,0-0.3,0-0.4c0-0.1,0-0.2,0-0.4c0-0.1,0-0.2,0-0.4
					c0-0.1,0-0.2-0.1-0.3c-0.1-0.1-0.1-0.2-0.2-0.2c-0.2-0.1-0.4-0.2-0.6-0.2s-0.4,0-0.5,0c-0.1,0-0.2,0-0.2,0c-0.1,0-0.1,0-0.2,0.1
					s-0.1,0.1-0.1,0.1c0,0-0.1,0.1-0.1,0.1C47.2,151,47.2,151.1,47.2,151.2C47.2,151.1,47.2,151.2,47.2,151.2
					C47.2,151.2,47.2,151.2,47.2,151.2z"/>
			</g>
		</g>
	</g>
	<g>
		<path class="st1" d="M44.1,147.1c-0.2,0.2-0.3,0.4-0.4,0.7c-0.1,0.2-0.1,0.5-0.3,0.7c-0.1,0.2-0.3,0.4-0.6,0.4
			c0.4-0.1,0.8,0,1.2,0.1c0.6,0.2,1,0.6,1.5,1c0.4,0.4,0.9,0.9,1.4,1.2c0.1,0,0.1,0.1,0.2,0c0,0,0.1-0.1,0.1-0.1
			c0.1-0.2,0.2-0.3,0.3-0.5c0.1-0.1,0.1-0.2,0.1-0.4c-0.1-0.1-0.2-0.2-0.4-0.2c-0.3-0.1-0.5-0.4-0.7-0.7c-0.5-0.7-1.2-1.3-1.8-2
			C44.5,147.2,44.3,147,44.1,147.1"/>
		<g>
			<g>
				<path d="M44.1,147.1C44.1,147.1,44.1,147.1,44.1,147.1C44.1,147.1,44.1,147.1,44.1,147.1c0.1,0,0.1,0,0.1,0
					c0.1,0,0.2,0.1,0.3,0.2c0.1,0.1,0.1,0.1,0.2,0.2s0.2,0.1,0.2,0.2c0.2,0.2,0.4,0.3,0.6,0.6c0.2,0.2,0.4,0.5,0.6,0.7
					c0.1,0.1,0.1,0.1,0.2,0.2c0.1,0.1,0.1,0.2,0.2,0.2c0.1,0.2,0.2,0.3,0.4,0.5c0.1,0.1,0.2,0.1,0.3,0.2c0.1,0,0.2,0.1,0.3,0.1
					c0,0,0.1,0,0.1,0.1c0,0,0,0.1,0,0.1c0,0.1-0.1,0.2-0.1,0.3c-0.1,0.1-0.1,0.2-0.2,0.3c0,0-0.1,0.1-0.1,0.1c0,0-0.1,0.1-0.1,0.1
					c0,0-0.1,0-0.1,0c0,0-0.1-0.1-0.1-0.1c-0.1-0.1-0.2-0.1-0.3-0.2c-0.3-0.2-0.6-0.5-0.9-0.8c-0.3-0.3-0.6-0.5-0.9-0.7
					c-0.2-0.1-0.3-0.2-0.5-0.3c-0.2-0.1-0.3-0.1-0.5-0.2c-0.3-0.1-0.7-0.1-0.9,0l0,0c0.2,0,0.3-0.1,0.4-0.2c0.1-0.1,0.2-0.2,0.2-0.4
					c0.1-0.1,0.1-0.3,0.1-0.4s0.1-0.2,0.1-0.3c0.1-0.2,0.1-0.3,0.2-0.4C44.1,147.2,44.1,147.1,44.1,147.1
					C44.1,147.1,44.1,147.1,44.1,147.1C44.1,147.1,44.1,147.1,44.1,147.1c0.1,0,0,0-0.1,0.1c-0.1,0.1-0.1,0.2-0.2,0.4
					c0,0.1-0.1,0.2-0.1,0.3c0,0.1-0.1,0.2-0.1,0.4c-0.1,0.1-0.1,0.3-0.2,0.4c-0.1,0.1-0.3,0.2-0.4,0.2l0,0c0.3-0.1,0.6-0.1,0.9,0
					c0.2,0,0.3,0.1,0.5,0.2c0.2,0.1,0.3,0.2,0.5,0.3c0.3,0.2,0.6,0.5,0.9,0.7c0.3,0.3,0.6,0.6,0.9,0.8c0.1,0.1,0.2,0.1,0.3,0.2
					c0,0,0.1,0.1,0.1,0.1c0,0,0.1,0,0.1,0c0,0,0.1,0,0.1,0s0.1,0,0.1-0.1c0,0,0,0,0-0.1c0,0,0.1-0.1,0.1-0.1
					c0.1-0.1,0.1-0.2,0.2-0.3c0.1-0.1,0.1-0.2,0.1-0.3c0-0.1,0-0.1,0-0.2c0,0-0.1-0.1-0.1-0.1c-0.1,0-0.2-0.1-0.3-0.1
					c-0.1,0-0.2-0.1-0.2-0.2c-0.1-0.1-0.3-0.3-0.4-0.4c-0.1-0.1-0.1-0.2-0.2-0.2c-0.1-0.1-0.1-0.1-0.2-0.2c-0.2-0.3-0.4-0.5-0.7-0.7
					c-0.2-0.2-0.4-0.4-0.6-0.6c-0.1-0.1-0.2-0.2-0.2-0.2c-0.1-0.1-0.1-0.1-0.2-0.2c-0.1-0.1-0.3-0.2-0.3-0.2
					C44.2,147,44.1,147,44.1,147.1C44.1,147,44.1,147.1,44.1,147.1C44.1,147.1,44.1,147.1,44.1,147.1z"/>
			</g>
		</g>
	</g>
	<g>
		<path class="st1" d="M47.5,150.6c0.5,0,1-0.1,1.4,0.1s0.6,0.6,0.9,1.1c0.1-0.5,0.1-1,0.2-1.5c0-0.3,0.1-0.6,0.1-0.9
			c0-0.2,0-0.5,0-0.7c0-0.1,0-0.2-0.1-0.2c-0.1,0-0.2,0.1-0.2,0.2c-0.2,0.4-0.5,0.8-0.8,1.1c-0.3,0.3-0.8,0.5-1.2,0.4"/>
		<g>
			<g>
				<path d="M47.6,150.3C47.6,150.3,47.6,150.3,47.6,150.3C47.6,150.3,47.6,150.3,47.6,150.3c0.2,0,0.2,0,0.4,0c0.1,0,0.3,0,0.4-0.1
					s0.3-0.2,0.5-0.3s0.3-0.3,0.4-0.5s0.3-0.4,0.4-0.7c0,0,0-0.1,0.1-0.1c0,0,0.1,0,0.1,0c0,0,0.1,0,0.1,0c0,0,0,0.1,0,0.1
					c0,0,0,0.1,0,0.1c0,0,0,0.1,0,0.1c0,0.1,0,0.1,0,0.2c0,0.3,0,0.6,0,0.9c-0.1,0.6-0.2,1.2-0.3,1.7v0l0,0l0,0c0,0,0-0.1,0-0.1
					c0-0.1-0.1-0.1-0.1-0.2c-0.1-0.1-0.1-0.2-0.2-0.3c-0.1-0.2-0.3-0.3-0.5-0.4c-0.1,0-0.2-0.1-0.3-0.1c-0.1,0-0.2,0-0.3,0
					c-0.2,0-0.3,0-0.4,0c-0.1,0-0.2,0-0.3,0c0,0-0.1,0-0.1,0c0,0,0,0,0,0s0,0,0,0c0,0,0,0,0.1,0c0.1,0,0.2,0,0.3,0
					c0.1,0,0.3,0,0.4,0c0.1,0,0.2,0,0.3,0c0.1,0,0.2,0.1,0.3,0.1c0.2,0.1,0.4,0.2,0.5,0.4c0.1,0.1,0.1,0.2,0.2,0.3
					c0,0.1,0.1,0.1,0.1,0.2c0,0,0,0.1,0,0.1c0,0,0,0,0,0.1l0,0c0,0,0,0,0,0c0-0.3,0.1-0.6,0.1-0.9c0-0.3,0.1-0.6,0.1-0.9
					c0-0.3,0.1-0.6,0-0.9c0-0.1,0-0.1,0-0.2c0,0,0-0.1,0-0.1c0,0,0-0.1,0-0.1c0,0,0-0.1-0.1-0.1c0,0-0.1,0-0.1,0c0,0-0.1,0-0.1,0
					c0,0-0.1,0.1-0.1,0.1c-0.1,0.2-0.3,0.5-0.4,0.7c-0.1,0.2-0.3,0.4-0.4,0.5c-0.1,0.1-0.3,0.2-0.5,0.3c-0.1,0.1-0.3,0.1-0.4,0.1
					C47.7,150.3,47.6,150.2,47.6,150.3z"/>
			</g>
		</g>
	</g>
	<g>
		<g>
			<g>
				<path d="M45.3,152.8c0,0-0.1-0.2-0.3-0.4c-0.1-0.1-0.2-0.2-0.4-0.3c-0.1-0.1-0.3-0.3-0.5-0.4s-0.3-0.3-0.5-0.4
					c-0.2-0.1-0.3-0.2-0.4-0.3c-0.2-0.1-0.4-0.2-0.4-0.2c0,0,0.6,0.4,1.2,0.9C44.8,152.4,45.3,152.9,45.3,152.8z"/>
			</g>
		</g>
	</g>
	<g>
		<g>
			<g>
				<path d="M52,151.5C52,151.5,52,151.5,52,151.5c0-0.1,0-0.2,0-0.2s-0.1-0.2-0.1-0.2c-0.1-0.1-0.1-0.2-0.2-0.3
					c-0.1-0.2-0.1-0.4-0.1-0.5c0-0.1,0-0.2,0-0.2c0,0-0.1,0.1-0.1,0.2s0,0.4,0.1,0.6c0,0.1,0.1,0.2,0.2,0.3c0.1,0.1,0.1,0.1,0.1,0.2
					C52,151.5,52,151.5,52,151.5z"/>
			</g>
		</g>
	</g>
	<g>
		<g>
			<g>
				<path d="M51.7,153.1c0,0,0-0.2-0.1-0.5c-0.1-0.2-0.1-0.3-0.2-0.5c0-0.1-0.1-0.2-0.1-0.3c0-0.1-0.1-0.2-0.1-0.3
					c-0.1-0.2-0.2-0.4-0.4-0.6c-0.2-0.2-0.3-0.2-0.5-0.3c-0.1-0.1-0.2-0.2-0.3-0.2c0,0-0.1-0.1-0.1-0.1c0,0,0,0,0,0s0,0,0,0
					c0,0,0,0.1,0.1,0.1c0.1,0.1,0.1,0.2,0.3,0.3c0.1,0.1,0.3,0.2,0.4,0.3c0.1,0.1,0.3,0.3,0.4,0.6c0,0.1,0.1,0.2,0.1,0.3
					c0,0.1,0.1,0.2,0.1,0.3c0.1,0.2,0.2,0.4,0.2,0.5C51.6,152.9,51.7,153.1,51.7,153.1z"/>
			</g>
		</g>
	</g>
	<g>
		<path class="st10" d="M44.1,145.5c0,0.6,0.1,1.1,0.1,1.7c0,0.2,0,0.3,0.1,0.5c0.1,0.3,0.4,0.5,0.6,0.6c0.3,0.2,0.6,0.4,0.8,0.6
			c0.5,0.4,1.1,0.8,1.6,1.1c0.3,0.2,0.5,0.4,0.8,0.4c0.3,0,0.6-0.1,0.8-0.3c0.2-0.2,0.4-0.5,0.5-0.7c0.2-0.3,0.4-0.7,0.6-1
			c-0.4-0.1-0.9-0.1-1.3-0.2c-1.1-0.2-2.1-0.9-3.1-1.5c-0.5-0.3-0.9-0.6-1.3-1c-0.1-0.2-0.3-0.4-0.5-0.4
			C43.9,145.4,44,145.5,44.1,145.5"/>
		<g>
			<g>
				<path d="M44.1,145.6C44.1,145.6,44,145.6,44.1,145.6c-0.1-0.1-0.1-0.1-0.1-0.1c0,0,0-0.1,0-0.1c0,0,0,0,0-0.1l0,0c0,0,0,0,0,0
					c0,0,0,0,0,0c0.1,0,0.2,0.1,0.2,0.1c0.1,0.1,0.1,0.2,0.2,0.3c0.1,0.1,0.2,0.2,0.3,0.3c0.2,0.2,0.5,0.4,0.9,0.6
					c0.3,0.2,0.7,0.5,1.1,0.7c0.4,0.2,0.8,0.5,1.3,0.6c0.2,0.1,0.5,0.2,0.8,0.2s0.6,0.1,0.8,0.1c0.1,0,0.1,0,0.2,0c0,0,0.1,0,0.1,0
					l0.1,0l0,0c-0.1,0.1-0.1,0.2-0.2,0.3c-0.1,0.3-0.3,0.5-0.5,0.8c-0.2,0.3-0.3,0.5-0.5,0.7c-0.1,0.1-0.2,0.2-0.4,0.2
					c-0.1,0-0.3,0.1-0.4,0c-0.1,0-0.3-0.1-0.4-0.1s-0.2-0.1-0.3-0.2c-0.2-0.2-0.4-0.3-0.7-0.5c-0.4-0.3-0.8-0.6-1.2-0.8
					c-0.2-0.1-0.4-0.3-0.6-0.4c-0.2-0.1-0.3-0.2-0.5-0.4c-0.1-0.1-0.1-0.2-0.2-0.2s-0.1-0.2-0.1-0.3c0-0.1,0-0.2,0-0.3
					c0-0.1,0-0.2,0-0.2c0-0.3,0-0.6,0-0.8c0-0.2,0-0.4,0-0.5C44.1,145.6,44.1,145.6,44.1,145.6C44.1,145.6,44.1,145.5,44.1,145.6
					C44.1,145.5,44.1,145.5,44.1,145.6C44.1,145.5,44.1,145.5,44.1,145.6C44.1,145.5,44.1,145.6,44.1,145.6c0,0,0,0.1,0,0.1
					c0,0.1,0,0.3,0,0.5c0,0.2,0,0.5,0,0.8c0,0.1,0,0.2,0,0.2c0,0.1,0,0.2,0,0.3c0,0.1,0,0.2,0.1,0.3c0,0.1,0.1,0.2,0.2,0.2
					c0.1,0.1,0.3,0.3,0.5,0.4c0.2,0.1,0.4,0.3,0.6,0.4c0.4,0.3,0.8,0.5,1.2,0.8c0.2,0.2,0.4,0.3,0.7,0.5c0.1,0.1,0.2,0.2,0.3,0.2
					c0.1,0.1,0.3,0.1,0.4,0.1c0.1,0,0.3,0,0.4,0c0.1,0,0.3-0.1,0.4-0.2c0.2-0.2,0.4-0.4,0.6-0.7c0.2-0.3,0.3-0.5,0.5-0.8
					c0-0.1,0.1-0.1,0.1-0.2l0.1-0.1l0,0l0,0l0,0l0,0c0,0,0,0,0,0l0,0l-0.1,0l-0.1,0c0,0-0.1,0-0.1,0c-0.1,0-0.1,0-0.2,0
					c-0.3,0-0.6-0.1-0.8-0.1c-0.3,0-0.5-0.1-0.8-0.2c-0.5-0.2-0.9-0.4-1.3-0.6c-0.4-0.2-0.8-0.5-1.1-0.7s-0.6-0.4-0.9-0.6
					c-0.1-0.1-0.2-0.2-0.3-0.3c-0.1-0.1-0.2-0.2-0.2-0.3c-0.1-0.1-0.2-0.1-0.3-0.1c0,0,0,0,0,0c0,0,0,0,0,0l0,0c0,0,0,0,0,0.1
					c0,0,0,0.1,0,0.1C44,145.5,44,145.5,44.1,145.6C44,145.6,44.1,145.6,44.1,145.6z"/>
			</g>
		</g>
	</g>
	<path class="st11" d="M45,148.5c-0.1-0.3-0.1-0.5-0.1-0.8c0.1,0,0.2,0.2,0.2,0.2c0.1,0.2,0.4,0.2,0.5,0.3c0.4,0.2,0.7,0.5,1.1,0.6
		c0.2,0.1,0.3,0.1,0.5,0.2c0.5,0.2,1.1,0.3,1.6,0.2c0.2,0,0.4-0.1,0.6-0.2c0.1-0.1,0.3-0.1,0.4-0.3c0.1-0.2,0-0.4,0.1-0.6
		c-1.3,0.1-2.7-0.2-3.9-0.9c-0.2-0.1-0.3-0.2-0.4-0.3c-0.1-0.1-0.2-0.3-0.3-0.4c-0.2-0.2-0.3-0.4-0.5-0.6c-0.2-0.3-0.5-0.6-0.8-0.7
		c0.1,0.7,0.2,1.5,0.2,2.2c0,0.1,0,0.2,0,0.3c0,0.1,0.1,0.2,0.2,0.3c0.1,0.1,0.2,0.2,0.4,0.4"/>
	<g>
		<path class="st10" d="M44,145.3c0.4,1,1.1,1.9,1.9,2.7c0.4,0.4,0.8,0.7,1.3,0.9c0.9,0.3,1.9,0.2,2.7-0.3c0.8-0.5,1.4-1.2,1.7-2.1
			c0.3-1,0.4-2,0.4-3c0-0.6,0-1.3,0-1.9c0-0.3,0-0.5-0.1-0.8c-0.2-0.5-0.9-0.7-1.4-0.8c-0.9-0.2-1.9-0.3-2.9-0.4
			c-0.7-0.1-1.4-0.1-2,0.1c-0.6,0.2-1.2,0.7-1.4,1.4c-0.1,0.5,0,1,0,1.5c0,0.5-0.3,1-0.4,1.4C43.7,144.4,43.7,145,44,145.3"/>
		<g>
			<g>
				<path d="M44,145.3C44,145.3,44,145.3,44,145.3C44,145.3,44,145.3,44,145.3c-0.1-0.1-0.1-0.1-0.1-0.1c0,0,0,0,0-0.1
					c0,0,0,0,0-0.1c0-0.1-0.1-0.2-0.1-0.3c0-0.1,0-0.3,0-0.5c0-0.2,0.1-0.4,0.1-0.6c0.1-0.2,0.2-0.4,0.2-0.7c0-0.1,0.1-0.3,0.1-0.4
					c0-0.1,0-0.3,0-0.4c0-0.3-0.1-0.6,0-0.9c0-0.2,0.1-0.3,0.1-0.5c0.1-0.2,0.2-0.3,0.3-0.4c0.2-0.3,0.6-0.5,0.9-0.6
					c0.4-0.1,0.8-0.2,1.2-0.2c0.4,0,0.8,0,1.3,0.1c0.4,0,0.9,0.1,1.3,0.2c0.2,0,0.5,0.1,0.7,0.1c0.2,0,0.5,0.1,0.7,0.1
					c0.2,0.1,0.5,0.1,0.7,0.3c0.1,0.1,0.2,0.1,0.3,0.2c0.1,0.1,0.1,0.2,0.2,0.3c0,0.1,0.1,0.2,0.1,0.4c0,0.1,0,0.2,0,0.4
					c0,0.2,0,0.5,0,0.8c0,0.5,0,1,0,1.5c0,0.5,0,1-0.1,1.4c-0.1,0.5-0.2,0.9-0.3,1.4s-0.4,0.8-0.7,1.2c-0.3,0.3-0.6,0.6-1,0.8
					c-0.4,0.2-0.7,0.4-1.1,0.4c-0.2,0-0.4,0-0.6,0s-0.4,0-0.6-0.1c-0.4-0.1-0.7-0.2-1-0.4c-0.3-0.2-0.5-0.4-0.7-0.6
					c-0.2-0.2-0.4-0.4-0.6-0.6c-0.2-0.2-0.3-0.4-0.5-0.6c-0.1-0.1-0.1-0.2-0.2-0.3c-0.1-0.1-0.1-0.2-0.2-0.2
					c-0.2-0.3-0.3-0.6-0.4-0.7C44.1,145.5,44.1,145.4,44,145.3C44,145.3,44,145.3,44,145.3C44,145.3,44,145.3,44,145.3
					C44,145.3,44,145.3,44,145.3C44,145.3,44,145.3,44,145.3c0,0.1,0.1,0.2,0.1,0.2c0.1,0.2,0.2,0.4,0.4,0.7c0,0.1,0.1,0.2,0.2,0.2
					c0.1,0.1,0.1,0.2,0.2,0.3c0.1,0.2,0.3,0.4,0.5,0.6c0.2,0.2,0.4,0.4,0.6,0.6c0.2,0.2,0.5,0.4,0.7,0.6c0.3,0.2,0.6,0.3,1,0.4
					c0.2,0,0.4,0.1,0.6,0.1s0.4,0,0.6,0c0.4-0.1,0.8-0.2,1.1-0.4s0.7-0.5,1-0.8c0.3-0.3,0.5-0.7,0.7-1.2c0.2-0.4,0.3-0.9,0.3-1.4
					c0.1-0.5,0.1-1,0.1-1.4c0-0.5,0-1,0-1.5c0-0.3,0-0.5,0-0.8c0-0.1,0-0.2,0-0.4c0-0.1,0-0.2-0.1-0.4c0-0.1-0.1-0.2-0.2-0.3
					c-0.1-0.1-0.2-0.2-0.3-0.2c-0.2-0.1-0.4-0.2-0.7-0.3c-0.2-0.1-0.5-0.1-0.7-0.1c-0.2,0-0.5-0.1-0.7-0.1c-0.5-0.1-0.9-0.1-1.3-0.2
					c-0.4,0-0.9-0.1-1.3-0.1c-0.4,0-0.8,0.1-1.2,0.2c-0.4,0.1-0.7,0.3-0.9,0.6c-0.1,0.1-0.2,0.3-0.3,0.4c-0.1,0.2-0.1,0.3-0.1,0.5
					c0,0.3,0,0.6,0,0.9c0,0.1,0,0.3,0,0.4s0,0.3-0.1,0.4c-0.1,0.3-0.1,0.5-0.2,0.7c-0.1,0.2-0.1,0.4-0.1,0.6c0,0.2,0,0.3,0,0.5
					s0.1,0.3,0.1,0.3c0,0,0,0,0,0.1c0,0,0,0,0,0.1C43.9,145.2,43.9,145.3,44,145.3C44,145.3,44,145.3,44,145.3
					C44,145.3,44,145.3,44,145.3z"/>
			</g>
		</g>
	</g>
	<g>
		<path class="st10" d="M51.8,144.6c0.2-0.3,0.3-0.6,0.3-1c0-0.1,0-0.2,0-0.3c0-0.1-0.1-0.2-0.2-0.2C51.8,143.5,51.7,144,51.8,144.6
			"/>
		<g>
			<g>
				<path d="M51.8,144.5c0,0,0,0,0-0.1s0-0.2,0-0.3c0-0.1,0-0.3,0-0.5c0-0.1,0-0.2,0-0.3c0-0.1,0-0.1,0-0.2l0,0l0,0l0,0
					c0,0,0,0,0.1,0c0,0,0.1,0.1,0.1,0.1c0,0,0,0.1,0,0.1c0,0.1,0,0.2,0,0.3c0,0.2-0.1,0.3-0.1,0.5S51.8,144.4,51.8,144.5
					C51.8,144.5,51.8,144.6,51.8,144.5C51.8,144.6,51.8,144.6,51.8,144.5C51.8,144.5,51.8,144.5,51.8,144.5c0.1-0.1,0.1-0.2,0.2-0.4
					c0.1-0.1,0.1-0.3,0.1-0.5c0-0.1,0-0.2,0-0.3c0-0.1,0-0.1,0-0.2c0,0-0.1-0.1-0.1-0.1c0,0-0.1,0-0.1,0l0,0l0,0l0,0c0,0,0,0,0,0v0
					l0,0c0,0.1,0,0.1,0,0.2c0,0.1,0,0.2,0,0.3c0,0.2,0,0.4,0,0.5c0,0.1,0,0.3,0,0.3C51.8,144.4,51.8,144.5,51.8,144.5
					C51.8,144.5,51.8,144.5,51.8,144.5z"/>
			</g>
		</g>
	</g>
	<g>
		<path class="st11" d="M51.9,143.9c0-0.1,0.1-0.2,0.1-0.2c0-0.1,0.1-0.1,0.1-0.2c0-0.1,0-0.1,0-0.2c0,0.1-0.1,0.2-0.1,0.3
			c0,0,0,0.1,0,0.1C51.8,143.7,51.8,143.8,51.9,143.9"/>
		<g>
			<g>
				<path d="M51.9,143.8C51.9,143.8,51.9,143.8,51.9,143.8c0-0.1,0-0.1,0-0.2c0-0.1,0-0.1,0.1-0.2c0-0.1,0.1-0.1,0.1-0.2l0,0
					c0,0,0,0,0,0c0,0,0,0,0,0c0,0,0,0,0,0.1c0,0,0,0.1,0,0.1c0,0.1-0.1,0.1-0.1,0.2C51.9,143.8,51.9,143.9,51.9,143.8
					c0,0,0,0,0.1-0.1c0-0.1,0.1-0.1,0.1-0.2c0,0,0-0.1,0-0.1c0,0,0,0,0-0.1c0,0,0,0,0,0c0,0,0,0,0,0c0,0,0,0,0,0l0,0l0,0
					c0,0,0,0,0,0v0l0,0c0,0,0,0,0,0c0,0,0,0,0,0.1c0,0,0,0.1,0,0.1c0,0.1-0.1,0.1-0.1,0.2C51.8,143.7,51.8,143.8,51.9,143.8
					C51.9,143.8,51.9,143.8,51.9,143.8z"/>
			</g>
		</g>
	</g>
	<g>
		<path class="st11" d="M43.2,144.2c-0.1-0.2-0.1-0.4-0.1-0.7c0-0.2,0-0.5,0.1-0.6c0,0,0-0.1,0.1-0.1c0.1,0,0.1,0,0.2,0
			c0.1,0.1,0.2,0.2,0.2,0.3c0.1,0.2,0.1,0.3,0.2,0.5c0.1,0.2,0.1,0.5,0.1,0.7c0,0,0,0.1-0.1,0.1c0,0-0.1,0-0.1,0
			c-0.3-0.2-0.4-0.5-0.4-0.9"/>
		<g>
			<g>
				<path d="M43.5,143.6c0,0,0,0.1,0,0.2c0,0.1,0,0.3,0.2,0.5c0.1,0.1,0.1,0.2,0.2,0.2c0,0,0,0,0,0c0,0,0,0,0,0c0,0,0-0.1,0-0.1
					c0-0.1,0-0.1,0-0.2c0-0.3-0.1-0.6-0.2-0.9c0-0.1-0.1-0.1-0.1-0.2c0-0.1-0.1-0.1-0.1-0.2s-0.1-0.1-0.2-0.1c0,0-0.1,0-0.1,0
					c0,0-0.1,0-0.1,0.1c0,0.1-0.1,0.1-0.1,0.2c0,0.1,0,0.1,0,0.2c0,0.1,0,0.2,0,0.3c0,0.2,0.1,0.4,0.1,0.5c0,0.1,0,0.1,0,0.1
					c0,0,0,0,0,0c0,0,0,0,0,0s0,0,0,0c0,0,0,0,0,0c0,0,0-0.1,0-0.1c0-0.1-0.1-0.3-0.1-0.5c0-0.1,0-0.2,0-0.3c0-0.1,0-0.1,0-0.2
					c0-0.1,0-0.1,0.1-0.2c0,0,0,0,0.1,0c0,0,0.1,0,0.1,0c0.1,0,0.1,0.1,0.2,0.1c0,0.1,0.1,0.1,0.1,0.2s0.1,0.1,0.1,0.2
					c0.1,0.3,0.2,0.6,0.2,0.9c0,0.1,0,0.1,0,0.2c0,0,0,0.1,0,0.1c0,0-0.1,0-0.1,0c-0.1-0.1-0.2-0.2-0.2-0.2
					c-0.1-0.2-0.2-0.3-0.2-0.5C43.5,143.7,43.5,143.7,43.5,143.6C43.5,143.6,43.5,143.6,43.5,143.6
					C43.5,143.6,43.5,143.6,43.5,143.6z"/>
			</g>
		</g>
	</g>
	<g>
		<path class="st10" d="M43.5,142.5c-0.1,0-0.3,0-0.3,0.2c-0.1,0.1-0.1,0.2-0.1,0.4c-0.1,0.3-0.1,0.5,0,0.8c0,0.2,0.1,0.3,0.1,0.5
			c0.1,0.2,0.1,0.5,0.2,0.7c0,0.2,0.1,0.4,0.2,0.5s0.3,0.2,0.5,0.1c0.2-0.1,0.2-0.3,0.2-0.5c0-0.4-0.1-0.8,0-1.2
			c0.1-0.3,0.2-0.5,0.2-0.8c0-0.3-0.1-0.5-0.3-0.7c-0.2-0.2-0.5-0.2-0.7,0"/>
		<g>
			<g>
				<path d="M43.3,142.5C43.3,142.5,43.3,142.5,43.3,142.5C43.3,142.4,43.3,142.4,43.3,142.5C43.3,142.4,43.3,142.4,43.3,142.5
					c0.1-0.1,0.2-0.1,0.3-0.1c0.1,0,0.2,0,0.4,0.1c0.1,0.1,0.2,0.2,0.3,0.4c0,0.1,0,0.2,0.1,0.3c0,0.1,0,0.2,0,0.3
					c-0.1,0.2-0.2,0.4-0.2,0.7c0,0.2,0,0.5,0,0.8c0,0.1,0,0.3,0,0.4c0,0.1,0,0.1,0,0.2s0,0.1-0.1,0.2c0,0.1-0.1,0.1-0.2,0.1
					c0,0-0.1,0-0.1,0c0,0-0.1,0-0.1,0c-0.1,0-0.1-0.1-0.2-0.1c0,0-0.1-0.1-0.1-0.2c-0.1-0.1-0.1-0.2-0.1-0.4c0-0.1-0.1-0.2-0.1-0.4
					c0-0.2-0.1-0.5-0.1-0.7c0-0.2-0.1-0.4,0-0.6c0-0.2,0-0.3,0.1-0.5s0.1-0.3,0.2-0.3s0.2-0.1,0.2-0.1c0.1,0,0.1,0,0.1,0s0,0-0.1,0
					c-0.1,0-0.1,0-0.2,0.1c-0.1,0.1-0.1,0.2-0.2,0.3c0,0.1-0.1,0.3-0.1,0.5c0,0.2,0,0.4,0,0.6c0,0.2,0.1,0.4,0.1,0.7
					c0,0.1,0.1,0.2,0.1,0.4c0,0.1,0.1,0.3,0.1,0.4c0,0.1,0.1,0.1,0.1,0.2c0,0,0.1,0.1,0.2,0.1c0,0,0.1,0,0.1,0c0,0,0.1,0,0.1,0
					c0.1,0,0.1-0.1,0.2-0.1c0-0.1,0.1-0.1,0.1-0.2s0-0.1,0-0.2c0-0.1,0-0.3,0-0.4c0-0.3,0-0.5,0-0.7c0-0.2,0.1-0.4,0.2-0.7
					c0-0.1,0-0.2,0-0.3s0-0.2-0.1-0.3c-0.1-0.2-0.2-0.3-0.3-0.4s-0.3-0.1-0.4-0.1C43.5,142.3,43.4,142.4,43.3,142.5
					C43.3,142.4,43.3,142.4,43.3,142.5C43.3,142.4,43.3,142.4,43.3,142.5C43.3,142.5,43.3,142.5,43.3,142.5z"/>
			</g>
		</g>
	</g>
	<g>
		<path class="st11" d="M43.7,144c-0.1,0.1-0.2,0.1-0.2,0.2"/>
		<g>
			<g>
				<path d="M43.5,144.1c0,0,0.1,0,0.1-0.1c0.1,0,0.1-0.1,0.1-0.1c0,0-0.1,0-0.1,0.1C43.6,144.1,43.5,144.1,43.5,144.1z"/>
			</g>
		</g>
	</g>
	<g>
		<path class="st11" d="M44,144.9c-0.2,0-0.4-0.1-0.5-0.3c0,0,0-0.1-0.1-0.1c0,0-0.1-0.1-0.1-0.1"/>
		<g>
			<g>
				<path d="M43.4,144.4C43.4,144.4,43.4,144.4,43.4,144.4c0.1,0.1,0.1,0.2,0.1,0.2c0,0,0.1,0.1,0.1,0.1c0.1,0.1,0.2,0.1,0.3,0.1
					c0.1,0,0.1,0,0.1,0c0,0,0,0-0.1,0c-0.1,0-0.2-0.1-0.3-0.1c0,0-0.1-0.1-0.1-0.1c0,0,0-0.1-0.1-0.1
					C43.5,144.4,43.4,144.4,43.4,144.4C43.4,144.4,43.4,144.4,43.4,144.4z"/>
			</g>
		</g>
	</g>
	<g>
		<path class="st11" d="M44,144.3c-0.1,0-0.2-0.2-0.2-0.3c0-0.1,0-0.3,0-0.4c0-0.1-0.1-0.2-0.1-0.3c-0.1-0.1-0.3-0.2-0.4-0.1
			c-0.1,0.1-0.2,0.3-0.1,0.4c0.1,0.1,0.3,0.1,0.4,0"/>
		<g>
			<g>
				<path d="M43.6,143.6C43.6,143.6,43.5,143.7,43.6,143.6c-0.1,0-0.2,0.1-0.2,0s-0.1,0-0.1,0s-0.1-0.1-0.1-0.1c0-0.1,0-0.1,0-0.2
					c0,0,0-0.1,0.1-0.1c0,0,0.1,0,0.1,0c0.1,0,0.2,0,0.2,0.1c0.1,0,0.1,0.1,0.2,0.2c0,0.1,0.1,0.1,0.1,0.2c0,0.1,0,0.1,0,0.2
					c0,0.1,0,0.1,0,0.2c0,0.1,0.1,0.2,0.1,0.2c0,0,0,0,0.1,0c0,0,0,0,0,0c0,0,0,0-0.1,0c0,0-0.1-0.1-0.1-0.2c0-0.1,0-0.1,0-0.2
					c0-0.1,0-0.1,0-0.2c0-0.1,0-0.2-0.1-0.2c0-0.1-0.1-0.1-0.2-0.2c-0.1,0-0.2-0.1-0.3-0.1c0,0-0.1,0-0.1,0.1s-0.1,0.1-0.1,0.1
					c0,0.1,0,0.2,0,0.2c0,0,0,0.1,0,0.1c0,0,0,0,0.1,0.1c0.1,0,0.1,0,0.2,0C43.4,143.7,43.4,143.7,43.6,143.6
					C43.5,143.7,43.5,143.7,43.6,143.6C43.6,143.7,43.6,143.6,43.6,143.6z"/>
			</g>
		</g>
	</g>
	<path class="st12" d="M43.4,141.7c0,0.2,0,0.5,0,0.7c0,0,0,0.1,0,0.1c0,0.1,0.1,0.1,0.2,0.1c0.1,0,0.2,0.2,0.3,0.3
		c0.1,0.1,0.1,0.2,0.2,0.4c0,0,0,0.1,0,0.1c0,0,0,0.1,0,0.1c0,0.1,0,0.2,0,0.3c0-0.1,0.1-0.1,0.1-0.2c0-0.1,0.1-0.1,0.1-0.2
		c0-0.1,0-0.1,0-0.2c0-0.1,0-0.2,0-0.3c0-0.1,0-0.2,0-0.3c0-0.1,0.1-0.1,0.1-0.2c0.1-0.1,0.1-0.2,0.1-0.4c0-0.1,0.1-0.1,0.1-0.2
		c0-0.1,0-0.2,0.1-0.3c0,0,0,0,0,0c0,0,0,0,0,0c0,0,0,0,0,0c0,0-0.1,0-0.1,0c0,0,0.1-0.1,0.1-0.1c-0.4,0-0.8,0-1.1,0.1
		c-0.1,0-0.2,0-0.2,0.1C43.6,141.5,43.5,141.5,43.4,141.7C43.5,141.6,43.5,141.6,43.4,141.7C43.5,141.7,43.5,141.7,43.4,141.7z"/>
	<path d="M43.4,141.5c0-0.1,0-0.2,0-0.4c0,0,0,0,0,0c0,0,0,0,0,0c0,0,0,0,0-0.1c0,0,0-0.1,0-0.2c0-0.1,0-0.1,0.1-0.1c0,0,0,0,0,0
		c0-0.1,0-0.1,0-0.2c0,0,0,0,0,0c0,0,0-0.1,0-0.1c0,0,0,0,0-0.1c0,0,0,0,0-0.1c0-0.1,0-0.2,0-0.3c0,0-0.1-0.1,0-0.1c0,0,0,0,0,0
		c0,0,0-0.1,0.1-0.1c0-0.1,0-0.2-0.1-0.2c0.1,0,0.1,0,0.2-0.1c0-0.1,0-0.1-0.1-0.2c0.1-0.1,0.1-0.2,0-0.2c0.3,0,0.5,0,0.8,0
		c0.1,0,0.1,0,0.2,0c0.1,0,0.2,0.1,0.2,0.2c0.1,0.1,0.1,0.2,0.2,0.3c0,0.1,0.1,0.1,0.1,0.2c0,0,0,0,0,0.1c0,0,0,0,0,0.1
		c0,0.2,0,0.3,0,0.5c0,0,0,0.1,0,0.1c0,0,0,0,0,0c0,0,0,0,0,0.1c0,0.1,0,0.2-0.1,0.3c0,0,0,0.1,0,0.1c0,0,0,0,0,0c0,0,0,0,0,0.1
		c0,0.1,0,0.2-0.1,0.3c-0.1,0.1-0.2,0.1-0.3,0.1c-0.2,0.1-0.4,0.1-0.6,0.2c-0.2,0.1-0.3,0.1-0.5,0.1c-0.1,0-0.1,0-0.1-0.1
		C43.4,141.6,43.4,141.5,43.4,141.5z"/>
	<path d="M45,140.9c0,0,0.1-0.1,0.1-0.1C45.1,140.8,45,140.8,45,140.9c0-0.2,0.1-0.2,0.1-0.3c0,0,0-0.1,0-0.1c0,0,0-0.1,0.1-0.1
		c0,0-0.1,0-0.1,0c0,0,0.1-0.1,0.1-0.1c0,0,0.1-0.1,0-0.1c0,0,0,0,0,0c0-0.1,0-0.1,0.1-0.2c0,0-0.1,0-0.1,0c0,0,0.1-0.1,0.2-0.1
		c0-0.1,0-0.2,0-0.3c-0.1,0-0.2-0.1-0.4-0.1c0,0,0.1-0.1,0-0.2c0-0.1-0.1-0.1-0.2-0.1c0,0-0.1-0.1-0.1-0.1c0-0.1-0.1-0.1-0.2-0.2
		c0,0,0.1,0,0.1,0c-0.1,0-0.2-0.1-0.3-0.1c0,0-0.1,0-0.1,0c0,0-0.1,0-0.1,0c-0.1,0-0.1,0-0.2,0c-0.1,0-0.1,0-0.2,0
		c0,0-0.1,0.1-0.1,0.1c0,0,0,0.1,0,0.1c0,0,0,0.1-0.1,0.1c0,0,0.1,0,0.1,0.1c0,0-0.1,0.1-0.1,0.1c0,0,0.1,0,0.1,0.1c0,0,0,0,0,0
		c0,0,0,0.1,0,0.1c0,0.1,0,0.1,0,0.2c0,0.1,0,0.2,0,0.3c0,0.1,0,0.1,0,0.2c0,0.1,0.1,0.2,0.2,0.3c0,0,0.1,0.1,0.1,0.2
		c0,0.1,0,0.1,0.1,0.2c0,0,0.1,0.1,0.1,0.1c0.1,0.1,0.2,0.1,0.3,0.2c0.1,0.1,0.2,0.1,0.3,0.2c0,0,0.1,0.1,0.1,0
		C45,141,45,140.9,45,140.9z"/>
	<path d="M43.9,138.2c-0.1,0-0.1-0.1,0-0.1c0.1-0.2,0.2-0.4,0.4-0.5c0.2-0.2,0.5-0.3,0.7-0.6c0,0,0,0,0.1,0c0.2-0.2,0.5-0.1,0.7-0.3
		c0,0,0.1-0.1,0.2-0.1s0.1,0,0.2,0c0.2,0,0.3-0.1,0.5-0.2c0.1,0,0.3-0.1,0.4-0.1c0.1-0.1,0.2-0.2,0.1-0.3c0.1,0.1,0.4,0.1,0.5,0.1
		c0-0.1,0.1-0.1,0.1-0.2c0,0.1,0.1,0.1,0.1,0.1c0.2,0,0.3-0.1,0.5-0.1c0.2,0,0.4,0.1,0.4,0.2c0-0.1,0.1-0.1,0.2,0
		c0.1,0,0.1,0.1,0.2,0.1c0.1,0,0.3,0,0.4,0c0.1,0,0.1,0.1,0.2,0.2c0.1,0.1,0.3,0.3,0.5,0.3c0.1,0,0.1-0.1,0.2,0
		c-0.1,0-0.1,0.1-0.2,0.1c0.1,0,0.2,0.1,0.2,0.1c0,0-0.1,0.1-0.1,0.1c0.1,0.1,0.2,0.1,0.3,0.1c0,0-0.1,0-0.1,0
		c0.1,0.1,0.2,0.1,0.3,0.1c0,0-0.1,0-0.2,0.1c0,0,0.1,0,0.1,0.1c0,0.1,0,0.1-0.1,0.1s-0.1,0.1-0.1,0.1c0,0-0.1,0.1-0.1,0.1
		c0,0.1-0.1,0.2-0.1,0.3c-0.1,0.4-0.3,0.8-0.6,1.1c-0.1,0.1-0.2,0.2-0.2,0.3c0,0.1,0,0.1,0.1,0.2c0.1,0.1,0.2,0.2,0.3,0.3
		c-0.1,0-0.3,0-0.4-0.1c0,0,0,0.1,0.1,0.1c0,0-0.1,0-0.1-0.1c0,0,0,0-0.1,0c0-0.1-0.1-0.1-0.1-0.2c-0.1,0-0.2,0.1-0.2,0c0,0,0,0,0,0
		c0,0,0,0-0.1,0c-0.1,0-0.1,0-0.2,0.1c0,0,0-0.1,0-0.1c0,0-0.1,0-0.1,0c0-0.1-0.1-0.1-0.1-0.2c-0.1,0.1-0.1,0.2-0.1,0.2
		c0,0,0-0.1,0-0.1c0,0-0.1,0-0.1,0c0-0.1-0.1-0.1-0.1-0.2c-0.1,0-0.2-0.1-0.3-0.2c0,0-0.1,0.1-0.1,0.1c0,0,0-0.1-0.1-0.1
		c0,0-0.1,0-0.1-0.1c-0.1-0.1-0.2-0.2-0.3-0.2c0,0-0.1,0-0.1,0c0,0-0.1,0-0.1,0c-0.3,0.1-0.6,0.1-0.9,0.2c-0.1,0-0.2,0-0.3,0.1
		c-0.1,0-0.1,0.1-0.2,0.2c-0.1,0.1-0.3,0.2-0.5,0.2c0,0-0.1,0-0.1,0c0,0-0.1,0-0.1-0.1c-0.2-0.2-0.4-0.4-0.6-0.6
		c-0.2-0.2-0.5-0.3-0.7-0.3c0,0,0,0.1,0,0.1c-0.1-0.1-0.1-0.2,0-0.3C43.7,138.3,43.8,138.2,43.9,138.2z"/>
	<path d="M46.5,139.6c0.1,0,0.1,0,0.2,0c0.1,0,0.1-0.1,0.2-0.1c0.1,0,0.2,0,0.3,0.1c0.1,0.1,0.3,0.1,0.4,0.2
		c0.1,0.1,0.3,0.1,0.3,0.2c0-0.1,0.1-0.1,0.2-0.1c0.3,0.1,0.6,0.2,0.9,0.2c0.1,0,0.2,0.1,0.3,0.2c0,0,0.1,0.1,0.1,0.1
		c0.1,0.1,0.4-0.1,0.5,0c0.2,0.1,0.2,0.3,0.3,0.4c0.2,0.1,0.3,0,0.4-0.2c0.1,0.3,0.3,0.5,0.6,0.6c0,0,0.1,0,0.1-0.1
		c0,0,0.1,0.1,0.1,0.1c0,0,0.1,0,0.1-0.1c0.1,0.1,0.2,0.3,0.3,0.3c0,0,0-0.1,0-0.1c0.2,0,0.3-0.1,0.4-0.2c0,0,0,0.1,0,0.1
		c0,0,0.1-0.1,0.1-0.1c0,0,0,0.1,0.1,0.1c0,0,0.1-0.1,0.1-0.1c0,0,0,0,0,0c0.1-0.1,0.1-0.3,0.1-0.4c0,0.1,0,0.2,0,0.2
		c0.1-0.1,0.1-0.3,0.1-0.4c0,0.1,0,0.1,0,0.2c0-0.2,0-0.3,0-0.5c0,0.1,0,0.1,0,0.2c0-0.1,0-0.2,0-0.3c0,0,0,0.1,0,0.2
		c0-0.1,0-0.3,0-0.4c0,0.1,0,0.2,0,0.3c0-0.2,0-0.3,0-0.5c0,0,0,0.1,0,0.1c0-0.4-0.2-0.7-0.3-1c0,0,0,0.1,0,0.1
		c-0.1-0.2-0.2-0.3-0.3-0.5c0,0,0,0.1,0,0.1c0,0,0-0.1,0-0.1c-0.1-0.1-0.2-0.1-0.3-0.2c0-0.1,0-0.1-0.1-0.2c0,0-0.1,0-0.1,0
		c0-0.1,0-0.2,0.1-0.4c0,0,0,0.1,0.1,0.1c0,0,0.1,0,0.1,0c0,0-0.1,0-0.1,0c-0.1-0.1-0.2-0.2-0.4-0.3c0,0,0,0.1-0.1,0
		c-0.2-0.1-0.4-0.2-0.6-0.2c-0.1-0.1-0.3-0.1-0.4-0.2c-0.2-0.1-0.5-0.1-0.7-0.1c-0.2,0-0.3,0.1-0.5,0.2c-0.3,0.1-0.6,0.3-0.9,0.4
		c-0.3,0.2-0.5,0.4-0.8,0.6c-0.6,0.4-1.2,0.6-1.8,0.9c-0.2,0.1-0.3,0.2-0.4,0.4c0.1,0,0.2,0.1,0.3,0.1c0.1,0,0.2,0,0.4,0
		C45.9,139.6,46.2,139.6,46.5,139.6z"/>
	<path d="M52.6,139.5c0,0,0-0.1-0.1-0.1c0-0.1,0-0.2-0.1-0.3c0-0.2-0.1-0.4-0.2-0.5c0,0-0.1,0.1-0.1,0s-0.1-0.1-0.1-0.1
		c-0.1-0.2-0.1-0.4-0.1-0.5c-0.1,0-0.1-0.1-0.2-0.2c0,0,0,0.1-0.1,0.1c0-0.1,0-0.2,0-0.3c-0.1,0-0.2,0-0.2,0c-0.1,0-0.1-0.1-0.1-0.2
		c-0.1-0.1-0.1-0.2-0.2-0.4c0,0,0,0,0,0c0,0,0,0,0,0c-0.1-0.1-0.2-0.2-0.3-0.4c0,0.1-0.1,0.1-0.1,0.1c-0.1,0-0.1-0.1-0.1-0.2
		c0,0-0.1,0-0.1,0c-0.1,0-0.2,0-0.3,0c-0.1-0.1-0.2-0.2-0.3-0.2c0,0,0,0-0.1,0c-0.1,0-0.1-0.1-0.1-0.1c0,0-0.1,0-0.1,0
		c-0.2,0-0.4,0-0.6,0.1c-0.1,0-0.2,0.1-0.4,0.2c-0.1,0.1-0.2,0.1-0.3,0.2c0,0-0.1,0-0.1,0.1c0,0,0,0.1,0,0.1c0,0.3,0.2,0.6,0.3,0.9
		c0.5,0.7,1.1,1.4,1.9,1.8c0.3,0.1,0.6,0.2,0.8,0.3c0.3,0.1,0.6,0.2,0.9,0.3c0.2,0,0.4,0,0.5-0.1c0.1-0.1,0-0.2,0-0.3
		C52.6,139.8,52.7,139.6,52.6,139.5z"/>
	<path d="M45.4,140.3c0,0,0.1,0,0.1,0c0.1,0,0.1-0.1,0.2-0.1c0.1,0,0.2,0,0.2,0c0.1-0.1,0.2-0.1,0.3-0.1c0.1,0,0.3-0.1,0.4-0.1
		c0.1,0,0.2-0.1,0.3-0.1c0.3,0,0.5,0,0.8,0.1c0,0,0.1,0,0.1,0c0,0,0.1,0,0.1-0.1c0.1-0.1,0.1-0.3,0-0.4c0-0.1-0.1-0.1-0.2-0.1
		c-0.4-0.2-0.9-0.3-1.4-0.3c-0.5,0-1,0.2-1.4,0.4c-0.1,0-0.1,0.1-0.1,0.1c0,0.1,0,0.1-0.1,0.2c0,0.2,0,0.7,0.2,0.8
		c0.1,0,0.2,0,0.3-0.1C45.3,140.5,45.3,140.3,45.4,140.3z"/>
	<path d="M50.6,140.9c0.1,0.1,0.1,0.1,0.2,0.2c0.1,0.1,0.1,0.2,0.1,0.4c0,0,0.1-0.1,0.1-0.1c0.1,0,0.1,0.1,0.1,0.2
		c0-0.1,0.1-0.1,0.2-0.1c0.1,0,0.1,0.1,0.2,0.1c0,0,0,0,0.1,0.1c0,0,0,0,0,0.1c0.1,0.2,0.1,0.5,0.2,0.7c0,0.1,0.1,0.3,0.1,0.4
		c0,0.2,0,0.4,0,0.6c0-0.1,0-0.2,0.1-0.3c0,0,0-0.1,0-0.1c0,0,0.1,0,0.1,0c0.1-0.2,0.1-0.4,0.2-0.6c0,0,0,0.1,0,0.1
		c-0.1-0.2,0-0.3,0.1-0.5c0-0.1,0.1-0.2,0.1-0.3c0,0,0.1,0.1,0.1,0c0,0,0-0.1,0.1-0.1c0-0.1,0.1-0.3,0.1-0.4c0-0.1,0-0.1,0-0.2
		c0-0.1-0.2-0.2-0.3-0.2c-0.4-0.2-0.9-0.3-1.4-0.5c-0.1,0-0.2,0-0.4,0c-0.1,0-0.2,0.1-0.2,0.2C50.3,140.7,50.5,140.9,50.6,140.9z"/>
	<path class="st13" d="M54.4,141.9C54.4,141.9,54.4,141.9,54.4,141.9"/>
	<g>
		<g>
			<g>
				<path d="M49,147.6C49,147.6,49,147.6,49,147.6C49,147.6,49,147.6,49,147.6C49,147.6,49,147.6,49,147.6
					C48.9,147.6,48.9,147.7,49,147.6C48.9,147.7,48.9,147.7,49,147.6C48.9,147.7,48.9,147.7,49,147.6C49,147.7,49,147.7,49,147.6
					C49,147.6,49,147.6,49,147.6C49,147.6,49,147.6,49,147.6z"/>
			</g>
		</g>
	</g>
	<g>
		<g>
			<g>
				<path d="M49,147.7C49,147.7,49,147.7,49,147.7c0,0.1,0,0.1,0,0.1C49,147.8,49,147.8,49,147.7C49,147.8,49,147.7,49,147.7
					C49,147.7,49,147.7,49,147.7z"/>
			</g>
		</g>
	</g>
	<g>
		<g>
			<g>
				<path d="M48.9,147.8C48.9,147.8,48.9,147.8,48.9,147.8C48.9,147.8,48.9,147.8,48.9,147.8C48.9,147.7,48.9,147.7,48.9,147.8
					C48.9,147.7,48.9,147.7,48.9,147.8c0-0.1,0-0.1,0-0.1s0,0,0,0s0,0,0,0c0,0,0,0,0,0C48.8,147.7,48.8,147.7,48.9,147.8
					C48.8,147.7,48.8,147.7,48.9,147.8C48.8,147.7,48.8,147.7,48.9,147.8C48.9,147.7,48.9,147.8,48.9,147.8
					C48.9,147.8,48.9,147.8,48.9,147.8z"/>
			</g>
		</g>
	</g>
	<g>
		<g>
			<g>
				<path d="M48.7,147.6C48.7,147.6,48.7,147.6,48.7,147.6C48.7,147.6,48.7,147.6,48.7,147.6c0,0.1,0,0.1,0,0.1c0,0,0,0,0,0
					c0,0,0,0,0,0c0,0,0,0,0,0s0,0,0,0c0,0,0,0,0,0c0,0,0,0,0,0s0,0,0,0C48.7,147.7,48.7,147.7,48.7,147.6
					C48.7,147.7,48.7,147.6,48.7,147.6C48.7,147.6,48.7,147.6,48.7,147.6z"/>
			</g>
		</g>
	</g>
	<g>
		<g>
			<g>
				<path d="M48.6,147.8C48.6,147.8,48.6,147.8,48.6,147.8C48.6,147.7,48.6,147.7,48.6,147.8C48.6,147.7,48.6,147.7,48.6,147.8
					C48.6,147.7,48.6,147.8,48.6,147.8z"/>
			</g>
		</g>
	</g>
	<g>
		<g>
			<g>
				<path d="M48.6,147.8C48.6,147.8,48.6,147.8,48.6,147.8C48.6,147.8,48.6,147.7,48.6,147.8c0-0.1,0-0.1,0-0.1
					C48.6,147.7,48.5,147.7,48.6,147.8C48.5,147.7,48.5,147.8,48.6,147.8C48.5,147.8,48.5,147.8,48.6,147.8z"/>
			</g>
		</g>
	</g>
	<g>
		<g>
			<g>
				<path d="M49,147.8C49,147.8,49.1,147.8,49,147.8C49.1,147.8,49.1,147.8,49,147.8C49.1,147.7,49.1,147.7,49,147.8
					C49.1,147.7,49.1,147.7,49,147.8c0-0.1,0-0.1,0-0.1c0,0,0,0,0,0c0,0,0,0,0,0c0,0,0,0,0,0c0,0,0,0,0,0
					C49,147.7,49,147.7,49,147.8C49.1,147.7,49.1,147.7,49,147.8C49.1,147.7,49.1,147.7,49,147.8C49.1,147.7,49.1,147.8,49,147.8
					C49.1,147.8,49,147.8,49,147.8z"/>
			</g>
		</g>
	</g>
	<g>
		<g>
			<g>
				<path d="M48.8,147.8C48.8,147.8,48.8,147.8,48.8,147.8C48.8,147.8,48.8,147.7,48.8,147.8c0-0.1,0-0.1,0-0.1c0,0,0,0,0,0
					c0,0,0,0,0,0C48.8,147.7,48.8,147.7,48.8,147.8C48.8,147.7,48.8,147.8,48.8,147.8C48.8,147.8,48.8,147.8,48.8,147.8z"/>
			</g>
		</g>
	</g>
	<g>
		<g>
			<g>
				<path d="M48.9,147.8C48.9,147.8,48.9,147.8,48.9,147.8C48.9,147.8,48.9,147.8,48.9,147.8C48.9,147.8,48.9,147.8,48.9,147.8
					C48.9,147.8,49,147.8,48.9,147.8C49,147.7,48.9,147.7,48.9,147.8C48.9,147.7,48.9,147.7,48.9,147.8c0.1-0.1,0.1-0.1,0.1-0.1
					c0,0,0,0,0,0c0,0,0,0,0,0s0,0,0,0c0,0,0,0,0,0c0,0,0,0,0,0c0,0,0,0,0,0C48.9,147.7,48.9,147.7,48.9,147.8
					C48.9,147.7,48.9,147.7,48.9,147.8L48.9,147.8C48.9,147.7,48.9,147.7,48.9,147.8C48.9,147.7,48.9,147.7,48.9,147.8
					C48.9,147.8,48.9,147.8,48.9,147.8C48.9,147.8,48.9,147.8,48.9,147.8C48.9,147.8,48.9,147.8,48.9,147.8
					C48.9,147.8,48.9,147.8,48.9,147.8z"/>
			</g>
		</g>
	</g>
	<g>
		<g>
			<g>
				<path d="M48.2,147.8C48.2,147.8,48.2,147.8,48.2,147.8c0-0.1,0-0.1,0-0.1c0,0,0,0,0-0.1c0,0,0,0,0,0c0,0,0,0,0,0c0,0,0,0,0,0
					c0,0,0,0,0,0.1C48.1,147.7,48.1,147.7,48.2,147.8C48.1,147.7,48.1,147.8,48.2,147.8C48.1,147.8,48.2,147.8,48.2,147.8z"/>
			</g>
		</g>
	</g>
	<g>
		<g>
			<g>
				<path d="M48.3,147.8C48.3,147.8,48.3,147.7,48.3,147.8c0-0.1,0-0.2-0.1-0.2C48.2,147.6,48.2,147.7,48.3,147.8
					C48.3,147.8,48.3,147.8,48.3,147.8z"/>
			</g>
		</g>
	</g>
	<g>
		<g>
			<g>
				<path d="M48.4,147.8C48.4,147.8,48.4,147.8,48.4,147.8C48.3,147.8,48.3,147.8,48.4,147.8c0-0.1,0-0.1,0-0.1c0,0,0,0,0-0.1
					c0,0,0,0,0,0c0,0,0,0,0,0c0,0,0,0,0,0.1C48.3,147.7,48.3,147.8,48.4,147.8C48.3,147.8,48.3,147.8,48.4,147.8
					C48.3,147.8,48.4,147.8,48.4,147.8z"/>
			</g>
		</g>
	</g>
	<g>
		<g>
			<g>
				<path d="M48.4,147.8C48.4,147.8,48.4,147.8,48.4,147.8C48.4,147.8,48.4,147.7,48.4,147.8c0-0.1,0-0.1,0-0.1c0,0,0,0,0,0
					c0,0,0,0,0,0s0,0,0,0C48.4,147.7,48.4,147.7,48.4,147.8C48.4,147.7,48.4,147.8,48.4,147.8C48.4,147.8,48.4,147.8,48.4,147.8z"/>
			</g>
		</g>
	</g>
	<g>
		<g>
			<path class="st14" d="M48.3,147.7"/>
		</g>
	</g>
	<g>
		<g>
			<g>
				<path d="M48.5,147.8C48.5,147.8,48.5,147.8,48.5,147.8c0-0.1,0-0.1,0-0.2C48.5,147.7,48.5,147.7,48.5,147.8
					C48.5,147.8,48.5,147.8,48.5,147.8z"/>
			</g>
		</g>
	</g>
	<g>
		<g>
			<g>
				<path d="M48.6,147.8C48.6,147.8,48.6,147.8,48.6,147.8C48.6,147.8,48.6,147.8,48.6,147.8c0.1-0.1,0.1-0.1,0.1-0.1c0,0,0,0,0,0
					C48.7,147.7,48.7,147.7,48.6,147.8C48.6,147.8,48.6,147.8,48.6,147.8z"/>
			</g>
		</g>
	</g>
	<g>
		<g>
			<g>
				<path d="M48.9,147.9C48.9,147.9,48.9,147.9,48.9,147.9c0.1-0.1,0.1-0.1,0.1-0.1c0,0,0-0.1,0-0.1s0,0,0,0c0,0,0,0,0,0
					c0,0,0,0.1-0.1,0.1S48.9,147.8,48.9,147.9C48.9,147.8,48.9,147.9,48.9,147.9z"/>
			</g>
		</g>
	</g>
	<g>
		<g>
			<g>
				<path d="M48.6,147.8C48.6,147.8,48.7,147.8,48.6,147.8C48.7,147.8,48.7,147.8,48.6,147.8c0.1,0,0.1,0,0.1,0c0,0,0,0,0.1,0l0,0
					c0,0,0,0,0,0c0,0,0,0,0,0l0,0c0,0,0,0,0,0c0,0,0,0,0,0c0,0,0,0,0,0c0,0,0,0,0,0c0,0,0,0,0,0.1c0,0,0,0,0,0l0,0l0,0l0,0l0,0
					c0,0,0,0,0,0C48.7,147.8,48.7,147.8,48.6,147.8C48.7,147.8,48.7,147.8,48.6,147.8C48.7,147.8,48.6,147.8,48.6,147.8z"/>
			</g>
		</g>
	</g>
	<g>
		<g>
			<g>
				<path d="M48.4,147.9C48.4,147.9,48.4,147.9,48.4,147.9C48.4,147.8,48.5,147.8,48.4,147.9c0-0.1,0-0.1,0.1-0.1c0,0,0,0,0,0
					c0,0,0-0.1,0-0.1c0,0,0,0,0,0c0,0,0,0,0,0c0,0,0,0,0,0c0,0,0.1,0,0.1,0.1c0,0,0,0,0,0C48.4,147.8,48.4,147.8,48.4,147.9
					C48.4,147.9,48.4,147.9,48.4,147.9z"/>
			</g>
		</g>
	</g>
	<g>
		<g>
			<g>
				<path d="M48.2,147.8C48.3,147.8,48.3,147.8,48.2,147.8C48.3,147.8,48.3,147.7,48.2,147.8c0-0.1,0-0.1-0.1-0.1s0-0.1,0-0.1
					c0,0,0,0,0,0c0,0,0,0,0,0c0,0,0,0,0,0c0,0,0,0,0,0c0,0,0,0,0,0.1C48.2,147.7,48.2,147.7,48.2,147.8
					C48.2,147.7,48.2,147.7,48.2,147.8C48.2,147.8,48.2,147.8,48.2,147.8z"/>
			</g>
		</g>
	</g>
	<g>
		<g>
			<g>
				<path d="M48.1,147.8C48.1,147.8,48.1,147.8,48.1,147.8c0-0.1,0-0.1,0-0.1c0,0,0,0,0-0.1c0,0,0,0,0,0c0,0,0,0,0-0.1c0,0,0,0,0,0
					s0,0,0,0c0,0,0,0,0,0c0,0,0,0,0,0c0,0,0,0,0,0c0,0,0,0,0,0c0,0,0,0,0,0c0,0,0,0,0,0c0,0,0,0.1,0,0.1S48,147.8,48.1,147.8
					C48,147.8,48.1,147.8,48.1,147.8z"/>
			</g>
		</g>
	</g>
	<g>
		<g>
			<g>
				<path d="M47.2,146.1C47.2,146.1,47.2,146.1,47.2,146.1c-0.1,0.1-0.1,0.2-0.1,0.2h0c0,0,0,0,0,0c0,0,0,0,0,0v0l0,0c0,0,0,0,0-0.1
					C47.2,146.2,47.2,146.1,47.2,146.1z"/>
			</g>
		</g>
	</g>
	<g>
		<g>
			<g>
				<path d="M47,146.4C47,146.4,47,146.4,47,146.4c0-0.1-0.1-0.1-0.1-0.1C47,146.3,46.9,146.3,47,146.4
					C46.9,146.3,46.9,146.4,47,146.4C47,146.4,47,146.4,47,146.4C47,146.4,47,146.4,47,146.4z"/>
			</g>
		</g>
	</g>
	<g>
		<g>
			<g>
				<path d="M47.1,146.4C47.1,146.4,47.1,146.4,47.1,146.4C47.1,146.3,47.1,146.3,47.1,146.4c0-0.1,0-0.2,0-0.2c0,0,0,0,0,0
					C47,146.3,47,146.3,47.1,146.4C47,146.3,47,146.4,47.1,146.4C47.1,146.4,47.1,146.4,47.1,146.4z"/>
			</g>
		</g>
	</g>
	<g>
		<g>
			<g>
				<path d="M47.1,146.4C47.1,146.4,47.1,146.4,47.1,146.4C47.1,146.4,47.1,146.3,47.1,146.4c0-0.1,0-0.1,0-0.1
					C47.1,146.2,47.1,146.3,47.1,146.4C47.1,146.3,47.1,146.3,47.1,146.4C47.1,146.4,47.1,146.4,47.1,146.4
					C47.1,146.4,47.1,146.4,47.1,146.4C47.1,146.4,47.1,146.4,47.1,146.4z"/>
			</g>
		</g>
	</g>
	<g>
		<g>
			<g>
				<path d="M47.6,146.3c0,0,0-0.1,0-0.1s0-0.1,0-0.1c0,0,0,0.1,0,0.1C47.6,146.2,47.6,146.3,47.6,146.3z"/>
			</g>
		</g>
	</g>
	<g>
		<g>
			<g>
				<path d="M47.8,146.2c0,0,0-0.1,0-0.1c0-0.1,0-0.1,0-0.1c0,0,0,0,0,0.1C47.7,146.2,47.8,146.2,47.8,146.2z"/>
			</g>
		</g>
	</g>
	<g>
		<g>
			<g>
				<path d="M48.8,146.2c0,0,0-0.1,0-0.1c0,0,0-0.1,0-0.1c0,0,0,0,0,0c0,0,0,0,0,0c0,0,0,0,0,0.1C48.8,146.1,48.8,146.2,48.8,146.2
					C48.8,146.2,48.8,146.2,48.8,146.2z"/>
			</g>
		</g>
	</g>
	<g>
		<g>
			<g>
				<path d="M47.4,146.3C47.4,146.3,47.4,146.3,47.4,146.3c0,0,0-0.1,0-0.1c0-0.1,0-0.1,0-0.1c0,0,0,0,0,0.1
					C47.3,146.2,47.3,146.2,47.4,146.3C47.3,146.3,47.3,146.3,47.4,146.3C47.4,146.3,47.4,146.3,47.4,146.3z"/>
			</g>
		</g>
	</g>
	<g>
		<g>
			<g>
				<path d="M47,146.5C47,146.5,46.9,146.5,47,146.5c0-0.1-0.1-0.1-0.1-0.1s0-0.1,0-0.1c0,0,0,0,0,0c0,0,0,0,0,0
					c0,0-0.1,0.1-0.1,0.1C46.9,146.4,46.9,146.4,47,146.5C46.9,146.5,47,146.5,47,146.5z"/>
			</g>
		</g>
	</g>
	<g>
		<g>
			<g>
				<path d="M47,146.4C47,146.4,47,146.4,47,146.4c0-0.1-0.1-0.1-0.1-0.1s0-0.1,0-0.1c0,0,0,0,0,0c0,0,0,0,0,0c0,0-0.1,0.1-0.1,0.1
					C46.9,146.4,46.9,146.4,47,146.4C47,146.4,47,146.4,47,146.4z"/>
			</g>
		</g>
	</g>
	<g>
		<g>
			<g>
				<path d="M47.1,146.4C47.1,146.4,47.1,146.4,47.1,146.4c0-0.1-0.1-0.1-0.1-0.1s0-0.1,0-0.1c0,0,0,0,0,0c0,0,0,0,0,0
					c0,0-0.1,0.1-0.1,0.1C47,146.3,47,146.4,47.1,146.4C47,146.4,47.1,146.4,47.1,146.4z"/>
			</g>
		</g>
	</g>
	<g>
		<g>
			<g>
				<path d="M47.1,146.4C47.1,146.4,47.1,146.4,47.1,146.4c0-0.1-0.1-0.1-0.1-0.1c0,0,0-0.1,0-0.1c0,0,0,0,0,0c0,0,0,0,0,0
					c0,0-0.1,0.1-0.1,0.1C47,146.3,47.1,146.4,47.1,146.4C47.1,146.4,47.1,146.4,47.1,146.4z"/>
			</g>
		</g>
	</g>
	<g>
		<g>
			<g>
				<path d="M47.2,146.4C47.2,146.4,47.2,146.4,47.2,146.4C47.2,146.4,47.2,146.4,47.2,146.4C47.2,146.4,47.2,146.4,47.2,146.4
					C47.2,146.3,47.2,146.3,47.2,146.4c0-0.1,0-0.1,0-0.1c0,0,0-0.1,0-0.1c0,0,0,0,0,0s0,0,0,0c0,0,0,0,0,0.1c0,0,0,0,0,0.1
					C47.1,146.3,47.1,146.3,47.2,146.4C47.2,146.4,47.2,146.4,47.2,146.4C47.2,146.4,47.2,146.4,47.2,146.4
					C47.2,146.4,47.2,146.4,47.2,146.4C47.2,146.4,47.2,146.4,47.2,146.4z"/>
			</g>
		</g>
	</g>
	<g>
		<g>
			<g>
				<path d="M47.3,146.4c0,0,0-0.1,0-0.1s0-0.1,0-0.1c0,0,0,0,0,0c0,0,0,0.1,0,0.1S47.2,146.3,47.3,146.4
					C47.3,146.4,47.3,146.4,47.3,146.4z"/>
			</g>
		</g>
	</g>
	<g>
		<g>
			<g>
				<path d="M47.2,146.4C47.2,146.4,47.2,146.4,47.2,146.4C47.2,146.3,47.2,146.3,47.2,146.4c0-0.1,0-0.2,0-0.2c0,0,0,0,0,0
					C47.2,146.2,47.2,146.3,47.2,146.4C47.2,146.3,47.2,146.3,47.2,146.4C47.2,146.4,47.2,146.4,47.2,146.4z"/>
			</g>
		</g>
	</g>
	<g>
		<g>
			<g>
				<path d="M47.3,146.3C47.3,146.3,47.3,146.3,47.3,146.3C47.3,146.3,47.3,146.3,47.3,146.3C47.3,146.3,47.3,146.3,47.3,146.3
					c0-0.1,0-0.1,0-0.1c0-0.1,0-0.1,0-0.1c0,0,0,0,0,0C47.3,146.2,47.3,146.2,47.3,146.3C47.3,146.2,47.3,146.3,47.3,146.3
					C47.3,146.3,47.3,146.3,47.3,146.3C47.3,146.3,47.3,146.3,47.3,146.3z"/>
			</g>
		</g>
	</g>
	<g>
		<g>
			<g>
				<path d="M47.5,146.3C47.6,146.3,47.6,146.2,47.5,146.3c0-0.1,0-0.1,0-0.2c0,0,0,0,0,0c0,0,0,0,0,0
					C47.5,146.1,47.5,146.1,47.5,146.3C47.5,146.2,47.5,146.3,47.5,146.3z"/>
			</g>
		</g>
	</g>
	<g>
		<g>
			<g>
				<path d="M47.4,146.2C47.4,146.2,47.4,146.2,47.4,146.2c0-0.1,0-0.1,0-0.1C47.4,146.1,47.4,146.1,47.4,146.2
					C47.4,146.2,47.4,146.2,47.4,146.2z"/>
			</g>
		</g>
	</g>
	<g>
		<g>
			<g>
				<path d="M47.5,146.3C47.5,146.3,47.5,146.3,47.5,146.3c-0.1,0-0.1-0.1-0.1-0.1c0,0,0-0.1,0-0.1c0,0,0,0,0,0c0,0,0,0,0,0
					c0,0,0,0.1,0,0.1C47.4,146.3,47.4,146.3,47.5,146.3C47.5,146.3,47.5,146.3,47.5,146.3z"/>
			</g>
		</g>
	</g>
	<g>
		<g>
			<g>
				<path d="M47.4,146.3C47.5,146.3,47.5,146.3,47.4,146.3c0,0,0-0.1,0-0.1c0,0,0-0.1,0-0.1c0,0,0,0,0,0c0,0,0,0,0,0c0,0,0,0,0,0.1
					C47.5,146.2,47.4,146.2,47.4,146.3C47.4,146.3,47.4,146.3,47.4,146.3z"/>
			</g>
		</g>
	</g>
	<g>
		<g>
			<g>
				<path d="M47.5,146.2C47.5,146.2,47.5,146.2,47.5,146.2C47.5,146.2,47.5,146.2,47.5,146.2C47.5,146.2,47.5,146.2,47.5,146.2
					c0-0.1,0-0.1,0-0.1c0,0,0,0,0-0.1c0,0,0,0,0,0c0,0,0,0,0,0C47.5,146.1,47.5,146.1,47.5,146.2C47.5,146.2,47.5,146.2,47.5,146.2
					C47.5,146.2,47.5,146.2,47.5,146.2C47.5,146.2,47.5,146.2,47.5,146.2z"/>
			</g>
		</g>
	</g>
	<g>
		<g>
			<g>
				<path d="M47.6,146.3C47.6,146.3,47.6,146.3,47.6,146.3c0-0.1,0-0.1,0-0.1c0,0,0,0,0-0.1c0,0,0,0,0,0c0,0,0,0,0,0c0,0,0,0,0,0
					c0,0,0,0,0,0c0,0,0,0,0,0C47.6,146.2,47.6,146.2,47.6,146.3C47.6,146.2,47.6,146.3,47.6,146.3C47.6,146.3,47.6,146.3,47.6,146.3
					z"/>
			</g>
		</g>
	</g>
	<g>
		<g>
			<g>
				<path d="M47.6,146.2C47.6,146.2,47.7,146.2,47.6,146.2C47.7,146.2,47.7,146.2,47.6,146.2c0.1-0.1,0.1-0.1,0-0.1c0,0,0-0.1,0-0.1
					c0,0,0,0,0,0c0,0,0,0,0,0c0,0,0,0,0,0C47.6,146.1,47.6,146.1,47.6,146.2C47.7,146.1,47.7,146.1,47.6,146.2
					C47.7,146.2,47.7,146.2,47.6,146.2C47.6,146.2,47.6,146.2,47.6,146.2z"/>
			</g>
		</g>
	</g>
	<g>
		<g>
			<g>
				<path d="M48.4,146.2C48.4,146.2,48.3,146.1,48.4,146.2c0-0.1,0-0.2,0-0.2c0,0,0,0,0,0C48.3,146,48.3,146.1,48.4,146.2
					C48.3,146.1,48.3,146.1,48.4,146.2C48.3,146.2,48.4,146.2,48.4,146.2z"/>
			</g>
		</g>
	</g>
	<g>
		<g>
			<g>
				<path d="M47.9,146.2C47.9,146.2,47.9,146.2,47.9,146.2c0-0.1-0.1-0.1-0.1-0.1c0,0,0-0.1,0-0.1c0,0,0,0,0,0c0,0,0,0,0,0
					c0,0-0.1,0.1-0.1,0.1C47.8,146.1,47.8,146.2,47.9,146.2C47.9,146.2,47.9,146.2,47.9,146.2z"/>
			</g>
		</g>
	</g>
	<g>
		<g>
			<g>
				<path d="M47.7,146.2C47.7,146.2,47.7,146.2,47.7,146.2C47.8,146.2,47.8,146.2,47.7,146.2C47.8,146.2,47.8,146.2,47.7,146.2
					c0-0.1,0-0.1,0-0.1c0,0,0,0,0,0c0,0,0,0,0,0c0,0,0,0,0,0c0,0,0,0,0,0c0,0,0,0,0,0c0,0,0,0,0,0c0,0,0,0,0,0c0,0,0,0,0,0
					C47.7,146.1,47.7,146.1,47.7,146.2C47.7,146.2,47.7,146.2,47.7,146.2C47.7,146.2,47.7,146.2,47.7,146.2z"/>
			</g>
		</g>
	</g>
	<g>
		<g>
			<g>
				<path d="M47.9,146.2C47.9,146.2,47.8,146.2,47.9,146.2c0-0.1-0.1-0.1-0.1-0.1s0-0.1,0-0.1c0,0,0,0,0,0c0,0,0,0,0,0
					c0,0-0.1,0.1-0.1,0.1C47.8,146.1,47.8,146.2,47.9,146.2C47.8,146.2,47.9,146.2,47.9,146.2z"/>
			</g>
		</g>
	</g>
	<g>
		<g>
			<g>
				<path d="M48,146.2C48,146.2,47.9,146.2,48,146.2c0-0.1-0.1-0.1-0.1-0.1s0-0.1,0-0.1c0,0,0,0,0,0c0,0,0,0,0,0
					c0,0-0.1,0.1-0.1,0.1C47.9,146.1,47.9,146.1,48,146.2C47.9,146.2,48,146.2,48,146.2z"/>
			</g>
		</g>
	</g>
	<g>
		<g>
			<g>
				<path d="M48,146.2C48,146.2,48,146.2,48,146.2c0-0.1-0.1-0.1-0.1-0.1s0-0.1,0-0.1c0,0,0,0,0,0c0,0,0,0,0,0s-0.1,0.1-0.1,0.1
					C47.9,146.1,47.9,146.1,48,146.2C48,146.2,48,146.2,48,146.2z"/>
			</g>
		</g>
	</g>
	<g>
		<g>
			<g>
				<path d="M48,146.2C48.1,146.2,48,146.2,48,146.2c0-0.1-0.1-0.1-0.1-0.1s0-0.1,0-0.1c0,0,0,0,0,0c0,0,0,0,0,0
					c0,0-0.1,0.1-0.1,0.1C47.9,146.1,48,146.1,48,146.2C48,146.2,48,146.2,48,146.2z"/>
			</g>
		</g>
	</g>
	<g>
		<g>
			<g>
				<path d="M48.1,146.2C48.1,146.2,48.1,146.1,48.1,146.2c0-0.1-0.1-0.1-0.1-0.1s0-0.1,0-0.1c0,0,0,0,0,0c0,0,0,0,0,0
					c0,0-0.1,0.1-0.1,0.1C48,146.1,48,146.1,48.1,146.2C48.1,146.2,48.1,146.2,48.1,146.2z"/>
			</g>
		</g>
	</g>
	<g>
		<g>
			<g>
				<path d="M48.1,146.2C48.1,146.2,48.1,146.2,48.1,146.2c0-0.1-0.1-0.1-0.1-0.1s0-0.1,0-0.1c0,0,0,0,0,0c0,0,0,0,0,0
					c0,0-0.1,0.1-0.1,0.1C48,146.1,48.1,146.1,48.1,146.2C48.1,146.2,48.1,146.2,48.1,146.2z"/>
			</g>
		</g>
	</g>
	<g>
		<g>
			<g>
				<path d="M48.2,146.2C48.2,146.2,48.2,146.2,48.2,146.2c0-0.1-0.1-0.1-0.1-0.1s0-0.1,0-0.1c0,0,0,0,0,0c0,0,0,0,0,0
					c0,0-0.1,0.1-0.1,0.1C48.1,146.1,48.1,146.2,48.2,146.2C48.2,146.2,48.2,146.2,48.2,146.2z"/>
			</g>
		</g>
	</g>
	<g>
		<g>
			<g>
				<path d="M48.2,146.2C48.2,146.2,48.2,146.2,48.2,146.2c0-0.1-0.1-0.1-0.1-0.1s0-0.1,0-0.1c0,0,0,0,0,0c0,0,0,0,0,0
					c0,0-0.1,0.1-0.1,0.1C48.1,146.1,48.2,146.2,48.2,146.2C48.2,146.2,48.2,146.2,48.2,146.2z"/>
			</g>
		</g>
	</g>
	<g>
		<g>
			<g>
				<path d="M48.3,146.2C48.3,146.2,48.3,146.2,48.3,146.2c0-0.1-0.1-0.1-0.1-0.1s0-0.1,0-0.1c0,0,0,0,0,0c0,0,0,0,0,0
					c0,0-0.1,0.1-0.1,0.1C48.2,146.1,48.2,146.2,48.3,146.2C48.3,146.2,48.3,146.2,48.3,146.2z"/>
			</g>
		</g>
	</g>
	<g>
		<g>
			<g>
				<path d="M48.3,146.2C48.3,146.2,48.3,146.2,48.3,146.2c0-0.1-0.1-0.1-0.1-0.1s0-0.1,0-0.1c0,0,0,0,0,0c0,0,0,0,0,0
					c0,0-0.1,0.1-0.1,0.1C48.2,146.1,48.3,146.2,48.3,146.2C48.3,146.2,48.3,146.2,48.3,146.2z"/>
			</g>
		</g>
	</g>
	<g>
		<g>
			<g>
				<path d="M48.5,146.2C48.5,146.2,48.5,146.1,48.5,146.2c0,0,0-0.1,0-0.1c0-0.1,0-0.1,0-0.1c0,0,0,0,0,0c0,0,0,0.1,0,0.1
					C48.4,146.1,48.4,146.1,48.5,146.2C48.4,146.1,48.4,146.1,48.5,146.2C48.4,146.2,48.5,146.2,48.5,146.2z"/>
			</g>
		</g>
	</g>
	<g>
		<g>
			<g>
				<path d="M49.3,146.1C49.3,146.1,49.3,146.1,49.3,146.1C49.3,146.1,49.3,146.1,49.3,146.1c0-0.1,0-0.1,0-0.1c0,0,0,0,0,0
					C49.3,146,49.3,146,49.3,146.1C49.3,146.1,49.3,146.1,49.3,146.1z"/>
			</g>
		</g>
	</g>
	<g>
		<g>
			<g>
				<path d="M48.7,146.2C48.7,146.2,48.7,146.1,48.7,146.2c0-0.1,0-0.2,0-0.2C48.7,146,48.6,146,48.7,146.2
					C48.6,146.1,48.7,146.2,48.7,146.2z"/>
			</g>
		</g>
	</g>
	<g>
		<g>
			<g>
				<path d="M48.7,146.2C48.7,146.2,48.7,146.2,48.7,146.2c0-0.1,0-0.1,0-0.1c0-0.1,0-0.1,0-0.1c0,0,0,0,0,0c0,0,0,0.1,0,0.1
					C48.6,146.1,48.6,146.2,48.7,146.2C48.6,146.2,48.7,146.2,48.7,146.2z"/>
			</g>
		</g>
	</g>
	<g>
		<g>
			<g>
				<path d="M48.5,146.2C48.5,146.2,48.6,146.1,48.5,146.2c0-0.1,0-0.2,0-0.2C48.5,146,48.5,146,48.5,146.2
					C48.5,146.1,48.5,146.1,48.5,146.2z"/>
			</g>
		</g>
	</g>
	<g>
		<g>
			<g>
				<path d="M48.4,146.2C48.4,146.2,48.4,146.2,48.4,146.2c0,0,0-0.1,0-0.1c0-0.1,0-0.1,0-0.1c0,0,0,0.1,0,0.1
					C48.4,146.1,48.4,146.1,48.4,146.2C48.4,146.2,48.4,146.2,48.4,146.2C48.4,146.2,48.4,146.2,48.4,146.2
					C48.4,146.2,48.4,146.2,48.4,146.2z"/>
			</g>
		</g>
	</g>
	<g>
		<g>
			<g>
				<path d="M48.5,146.2c0,0,0-0.1,0-0.1c0-0.1,0-0.1,0-0.1c0,0,0,0,0,0c0,0,0,0,0,0.1C48.4,146.1,48.4,146.1,48.5,146.2
					C48.5,146.2,48.5,146.2,48.5,146.2z"/>
			</g>
		</g>
	</g>
	<g>
		<g>
			<g>
				<path d="M48.7,146.2C48.7,146.2,48.8,146.1,48.7,146.2c0-0.1,0-0.2,0-0.2S48.7,146,48.7,146.2C48.7,146.1,48.7,146.2,48.7,146.2
					z"/>
			</g>
		</g>
	</g>
	<g>
		<g>
			<g>
				<path d="M48.6,146.2C48.6,146.2,48.6,146.2,48.6,146.2c0,0,0-0.1,0-0.1s0-0.1,0-0.1c0,0,0,0,0,0c0,0,0,0,0,0c0,0,0,0-0.1,0.1
					C48.5,146.1,48.5,146.1,48.6,146.2C48.6,146.2,48.6,146.2,48.6,146.2C48.6,146.2,48.6,146.2,48.6,146.2z"/>
			</g>
		</g>
	</g>
	<g>
		<g>
			<g>
				<path d="M48.7,146.2c0,0,0,0,0-0.1c0-0.1,0-0.1,0-0.1c0,0,0,0,0,0.1C48.7,146.1,48.7,146.2,48.7,146.2z"/>
			</g>
		</g>
	</g>
	<g>
		<g>
			<g>
				<path d="M48.8,146.2c0,0,0-0.1,0-0.1c0-0.1,0-0.1,0-0.1c0,0,0,0.1,0,0.1C48.8,146.1,48.8,146.2,48.8,146.2z"/>
			</g>
		</g>
	</g>
	<g>
		<g>
			<g>
				<path d="M49,146.2c0,0,0,0,0-0.1c0-0.1,0-0.1,0-0.1s0,0,0,0.1C48.9,146.1,49,146.2,49,146.2z"/>
			</g>
		</g>
	</g>
	<g>
		<g>
			<g>
				<path d="M48.9,146.3c0,0,0-0.1,0-0.2c0-0.1,0-0.2,0-0.2c0,0,0,0.1,0,0.2C48.9,146.2,48.9,146.3,48.9,146.3z"/>
			</g>
		</g>
	</g>
	<g>
		<g>
			<g>
				<path d="M48.9,146.3c0,0,0.1,0,0.1-0.1s0.1-0.2,0.1-0.2c0,0,0,0.1-0.1,0.2C48.9,146.2,48.9,146.3,48.9,146.3z"/>
			</g>
		</g>
	</g>
	<g>
		<g>
			<g>
				<path d="M49,146.3c0,0,0.1,0,0.1-0.1c0.1-0.1,0.1-0.2,0.1-0.2s0,0.1-0.1,0.1C49.1,146.2,49,146.3,49,146.3z"/>
			</g>
		</g>
	</g>
	<g>
		<g>
			<g>
				<path d="M49,146.2C49,146.2,49.1,146.2,49,146.2c0.1-0.2,0.1-0.2,0.1-0.2c0,0,0,0-0.1,0.1C49.1,146.1,49,146.2,49,146.2z"/>
			</g>
		</g>
	</g>
	<g>
		<g>
			<g>
				<path d="M49.5,146.3C49.5,146.3,49.5,146.3,49.5,146.3c0.1,0,0.1,0,0.1,0c0,0,0,0,0.1-0.1s0-0.1,0-0.1c0,0,0,0,0-0.1
					c0,0-0.1,0-0.1,0s0,0,0,0c0,0,0,0,0,0.1c0,0,0,0,0,0.1C49.6,146.2,49.5,146.2,49.5,146.3C49.5,146.3,49.5,146.3,49.5,146.3z"/>
			</g>
		</g>
	</g>
	<g>
		<g>
			<path class="st14" d="M49.6,146.2"/>
		</g>
	</g>
	<g>
		<g>
			<g>
				<path d="M49.1,146.2C49.1,146.2,49.1,146.2,49.1,146.2c0.1,0,0.1,0,0.1-0.1c0,0,0-0.1,0-0.1s0,0,0,0c0,0,0,0.1-0.1,0.1
					C49.2,146.2,49.1,146.2,49.1,146.2z"/>
			</g>
		</g>
	</g>
	<g>
		<g>
			<g>
				<path d="M49.1,146.2C49.1,146.2,49.2,146.2,49.1,146.2c0.1,0,0.1,0,0.1,0c0,0,0,0,0.1-0.1c0,0,0-0.1,0-0.1s0,0,0-0.1
					c0,0-0.1,0-0.1,0s0,0,0,0c0,0,0,0,0,0.1c0,0,0,0,0,0.1C49.3,146.2,49.2,146.2,49.1,146.2C49.2,146.2,49.1,146.2,49.1,146.2z"/>
			</g>
		</g>
	</g>
	<g>
		<g>
			<g>
				<path d="M49.9,146.5C49.9,146.5,49.9,146.5,49.9,146.5c0.1,0,0.1,0,0.1,0c0,0,0,0,0.1-0.1c0,0,0-0.1,0-0.1c0,0,0,0,0-0.1
					c0,0-0.1,0-0.1,0s0,0,0,0c0,0,0,0,0,0.1c0,0,0,0,0,0.1C50,146.4,50,146.4,49.9,146.5C49.9,146.5,49.9,146.5,49.9,146.5z"/>
			</g>
		</g>
	</g>
	<g>
		<g>
			<g>
				<path d="M49.8,146.4C49.8,146.4,49.8,146.4,49.8,146.4c0.1,0,0.1,0,0.1,0c0,0,0,0,0.1-0.1c0,0,0-0.1,0-0.1c0,0,0,0,0-0.1
					c0,0-0.1,0-0.1,0c0,0,0,0,0,0c0,0,0,0,0,0.1c0,0,0,0,0,0.1C49.9,146.3,49.8,146.3,49.8,146.4C49.8,146.4,49.8,146.4,49.8,146.4z
					"/>
			</g>
		</g>
	</g>
	<g>
		<g>
			<g>
				<path d="M49.8,146.4C49.8,146.4,49.8,146.4,49.8,146.4c0.1,0,0.1,0,0.1,0c0,0,0,0,0.1-0.1s0-0.1,0-0.1c0,0,0,0,0-0.1
					c0,0-0.1,0-0.1,0s0,0,0,0c0,0,0,0,0,0.1c0,0,0,0,0,0.1C49.9,146.4,49.9,146.4,49.8,146.4C49.8,146.4,49.8,146.4,49.8,146.4z"/>
			</g>
		</g>
	</g>
	<g>
		<g>
			<g>
				<path d="M49.7,146.4C49.7,146.4,49.7,146.4,49.7,146.4c0.1,0,0.1,0,0.1,0c0,0,0,0,0.1-0.1c0,0,0-0.1,0-0.1c0,0,0,0,0-0.1
					c0,0-0.1,0-0.1,0c0,0,0,0,0,0c0,0,0,0,0,0.1c0,0,0,0,0,0.1C49.8,146.3,49.8,146.3,49.7,146.4C49.7,146.4,49.7,146.4,49.7,146.4z
					"/>
			</g>
		</g>
	</g>
	<g>
		<g>
			<g>
				<path d="M49.6,146.3C49.6,146.3,49.6,146.3,49.6,146.3c0.1,0,0.1,0,0.1,0c0,0,0,0,0.1-0.1c0,0,0-0.1,0-0.1c0,0,0,0,0-0.1
					c0,0-0.1,0-0.1,0c0,0,0,0,0,0c0,0,0,0,0,0.1c0,0,0,0,0,0.1C49.7,146.3,49.7,146.3,49.6,146.3C49.6,146.3,49.6,146.3,49.6,146.3z
					"/>
			</g>
		</g>
	</g>
	<g>
		<g>
			<g>
				<path d="M49.2,146.2C49.2,146.2,49.2,146.2,49.2,146.2c0.1,0,0.1,0,0.1,0c0,0,0,0,0.1-0.1c0,0,0-0.1,0-0.1s0,0,0-0.1
					c0,0-0.1,0-0.1,0s0,0,0,0c0,0,0,0,0,0.1c0,0,0,0,0,0.1C49.3,146.2,49.3,146.2,49.2,146.2C49.2,146.2,49.2,146.2,49.2,146.2z"/>
			</g>
		</g>
	</g>
	<g>
		<g>
			<g>
				<path d="M49.3,146.2C49.3,146.3,49.3,146.3,49.3,146.2c0.1,0,0.1,0,0.1,0c0,0,0,0,0.1-0.1s0-0.1,0-0.1c0,0,0,0,0-0.1
					c0,0-0.1,0-0.1,0s0,0,0,0c0,0,0,0,0,0.1c0,0,0,0,0,0.1C49.4,146.2,49.4,146.2,49.3,146.2C49.3,146.2,49.3,146.2,49.3,146.2z"/>
			</g>
		</g>
	</g>
	<g>
		<g>
			<g>
				<path d="M49.3,146.3C49.3,146.3,49.3,146.3,49.3,146.3c0.1,0,0.1,0,0.1,0c0,0,0,0,0.1-0.1c0,0,0-0.1,0-0.1c0,0,0,0,0-0.1
					c0,0-0.1,0-0.1,0s0,0,0,0c0,0,0,0,0,0.1c0,0,0,0,0,0.1C49.4,146.2,49.4,146.2,49.3,146.3C49.3,146.3,49.3,146.3,49.3,146.3z"/>
			</g>
		</g>
	</g>
	<g>
		<g>
			<g>
				<path d="M49.5,146.2C49.5,146.3,49.5,146.3,49.5,146.2C49.5,146.2,49.6,146.2,49.5,146.2c0.1-0.1,0.1-0.1,0.1-0.2c0,0,0,0,0,0
					C49.5,146.1,49.5,146.1,49.5,146.2C49.5,146.2,49.5,146.2,49.5,146.2z"/>
			</g>
		</g>
	</g>
	<g>
		<g>
			<g>
				<path d="M49.4,146.3C49.4,146.3,49.4,146.3,49.4,146.3c0.1,0,0.1,0,0.1,0c0,0,0,0,0.1-0.1c0,0,0-0.1,0-0.1c0,0,0,0,0-0.1
					c0,0-0.1,0-0.1,0s0,0,0,0c0,0,0,0,0,0.1c0,0,0,0,0,0.1C49.6,146.2,49.5,146.2,49.4,146.3C49.4,146.3,49.4,146.3,49.4,146.3z"/>
			</g>
		</g>
	</g>
	<g>
		<g>
			<g>
				<path d="M49.5,146.3C49.5,146.3,49.5,146.3,49.5,146.3c0.1,0,0.1,0,0.2-0.1c0,0,0,0,0-0.1c0,0,0,0,0-0.1c0,0,0,0,0,0
					c0,0,0,0,0,0.1c0,0,0,0.1,0,0.1C49.6,146.3,49.6,146.3,49.5,146.3C49.5,146.3,49.5,146.3,49.5,146.3z"/>
			</g>
		</g>
	</g>
	<g>
		<g>
			<g>
				<path d="M49.6,146.4C49.6,146.4,49.7,146.4,49.6,146.4c0.1,0,0.1,0,0.2-0.1c0,0,0,0,0-0.1c0,0,0,0,0-0.1c0,0,0,0,0,0
					c0,0,0,0,0,0c0,0,0,0.1,0,0.1C49.7,146.3,49.7,146.3,49.6,146.4C49.6,146.4,49.6,146.4,49.6,146.4z"/>
			</g>
		</g>
	</g>
	<g>
		<g>
			<g>
				<path d="M49.7,146.5C49.7,146.5,49.7,146.5,49.7,146.5c0.1,0,0.1-0.1,0.2-0.1c0-0.1,0-0.1,0-0.2c0,0,0-0.1,0-0.1c0,0,0,0,0,0.1
					c0,0,0,0.1,0,0.1C49.8,146.4,49.8,146.4,49.7,146.5C49.7,146.4,49.7,146.5,49.7,146.5z"/>
			</g>
		</g>
	</g>
	<g>
		<g>
			<g>
				<path d="M49.9,146.5C49.9,146.5,49.9,146.5,49.9,146.5c0.1,0,0.1,0,0.1,0c0,0,0,0,0.1,0s0-0.1,0-0.1c0,0,0,0,0-0.1c0,0,0,0,0,0
					c0,0,0,0,0,0c0,0,0,0.1,0,0.1C50,146.4,49.9,146.4,49.9,146.5C49.9,146.4,49.8,146.5,49.9,146.5z"/>
			</g>
		</g>
	</g>
	<g>
		<g>
			<g>
				<path d="M50,146.5C50,146.5,50,146.5,50,146.5c0.1,0,0.1,0,0.1,0c0,0,0,0,0.1-0.1c0-0.1,0-0.1,0-0.1c0,0,0,0,0,0s0,0,0,0.1
					c0,0,0,0.1,0,0.1S50,146.5,50,146.5C50,146.5,50,146.5,50,146.5z"/>
			</g>
		</g>
	</g>
	<path class="st15" d="M46.5,141.9c-0.1,0-0.2-0.1-0.2-0.2c-0.1-0.1-0.1-0.2,0-0.3c0-0.1,0.1-0.2,0.2-0.3c0.3-0.2,0.6-0.4,1-0.4
		c0.3-0.1,0.7-0.1,1.1-0.1c0.1,0,0.2,0,0.3,0c0.1,0,0.2,0.1,0.3,0.1c0.2,0.1,0.4,0.2,0.6,0.4c0,0,0.1,0.1,0.1,0.1c0,0.1,0,0.2,0,0.2
		c0,0.1,0.1,0.2,0.2,0.4c0,0,0,0.1,0,0.1c0,0.1,0,0.2-0.1,0.2c-0.2,0.1-0.3,0.2-0.5,0.3c0,0-0.1,0-0.1,0c0,0,0,0.1,0,0.1
		c-0.1,0.2-0.2,0.5-0.2,0.7c0,0.1-0.1,0.3,0,0.4c-0.1,0.1-0.4,0.1-0.5,0c-0.1-0.1-0.2-0.3-0.3-0.5c-0.1-0.2-0.2-0.5-0.5-0.6
		c-0.1-0.1-0.3-0.1-0.4-0.2c-0.2-0.1-0.3-0.1-0.5-0.2C46.8,142.1,46.7,142,46.5,141.9z"/>
	<path class="st15" d="M48.3,143.6c0,0.2,0.1,0.4,0.1,0.7c0,0.1,0.1,0.2,0.1,0.4c0,0.1-0.1,0.1-0.2,0.2c-0.1,0-0.1,0.1-0.2,0.1
		c-0.1,0-0.2,0-0.3,0.1c-0.2,0.1-0.2,0.3-0.2,0.5c0,0,0,0,0,0c0,0,0.1,0,0.1,0c0,0,0-0.1,0.1-0.1c0.1-0.1,0.2-0.1,0.3-0.1
		c0.1,0,0.2,0,0.2,0c0,0,0.1,0.1,0.1,0.1c0.1,0,0.2,0.1,0.2,0c0.1,0,0.1-0.1,0.2-0.1c0,0,0.1-0.1,0.1-0.1c0,0,0.1,0,0.1,0.1
		c0.1,0,0.1,0.1,0.2,0.1c0.1,0,0.2,0,0.2-0.1c0,0,0,0,0,0c0,0,0,0,0,0c-0.1-0.1-0.2-0.1-0.2-0.2c-0.1-0.1-0.1-0.1-0.2-0.2
		c-0.2-0.2-0.3-0.5-0.2-0.8c0-0.1,0-0.2,0.1-0.3c0-0.2,0.1-0.4,0.1-0.6c0-0.1,0-0.2,0-0.3c-0.1,0.1-0.3,0.2-0.4,0.3
		c-0.1,0.1-0.1,0.2-0.2,0.2C48.4,143.6,48.4,143.6,48.3,143.6C48.4,143.6,48.4,143.6,48.3,143.6z"/>
	<g>
		<path class="st11" d="M46.5,143.9c0.4,0.1,0.8,0.2,1.1,0.1"/>
		<g>
			<g>
				<path d="M47.6,144.1c0,0-0.3,0-0.6,0c-0.3,0-0.6-0.1-0.6-0.1c0,0,0.1,0,0.2,0.1c0.1,0,0.2,0.1,0.4,0.1c0.2,0,0.3,0,0.4,0
					C47.6,144.1,47.6,144.1,47.6,144.1z"/>
			</g>
		</g>
	</g>
	<g>
		<path class="st11" d="M49.7,144c0.4,0.1,0.8,0.2,1.1,0.1"/>
		<g>
			<g>
				<path d="M50.9,144.1c0,0-0.3,0-0.6,0c-0.3,0-0.6-0.1-0.6-0.1c0,0,0.1,0,0.2,0.1c0.1,0,0.2,0.1,0.4,0.1c0.2,0,0.3,0,0.4,0
					C50.8,144.1,50.9,144.1,50.9,144.1z"/>
			</g>
		</g>
	</g>
	<g>
		<path d="M46.2,143.5c0.2-0.1,0.4-0.2,0.6-0.3s0.4,0,0.6,0c0.2,0.1,0.4,0.2,0.5,0.4c0,0,0,0,0,0.1c0,0,0,0,0,0
			c-0.1,0-0.3,0-0.4,0.1c-0.2,0-0.4,0.1-0.6,0c-0.2,0-0.4-0.1-0.6-0.2C46.2,143.6,46.2,143.5,46.2,143.5
			C46.2,143.5,46.2,143.4,46.2,143.5"/>
	</g>
	<g>
		<path d="M49.4,143.7c0.2,0.1,0.5,0.2,0.7,0.2c0.1,0,0.3,0,0.4,0c0.2,0,0.3,0,0.5-0.1c0,0,0.1,0,0.1,0c0,0,0,0,0-0.1
			c-0.1-0.1-0.3-0.2-0.4-0.3c-0.2-0.1-0.5-0.1-0.7-0.1C49.7,143.4,49.5,143.5,49.4,143.7C49.4,143.7,49.4,143.7,49.4,143.7"/>
	</g>
	<g>
		<path class="st1" d="M46.2,143.5c0.2-0.1,0.5-0.2,0.8-0.2c0.2,0,0.3,0,0.5,0.1s0.3,0.2,0.4,0.3"/>
	</g>
	<g>
		<path class="st1" d="M46.2,143.4c0.1,0.1,0.3,0.2,0.5,0.2c0.2,0,0.4,0,0.5,0c0.2,0,0.5,0,0.7,0"/>
	</g>
	<ellipse cx="47" cy="143.5" rx="0.2" ry="0.2"/>
	<g>
		<path d="M45.6,142.8c0,0,0.1-0.1,0.1-0.1C45.7,142.7,45.7,142.7,45.6,142.8c0.1-0.1,0.1-0.1,0.1-0.1c0.1,0,0.2,0,0.2-0.1
			c0,0,0,0,0,0.1c0,0,0-0.1,0-0.1c0,0,0,0,0,0c0-0.1,0.1-0.1,0.1-0.1c0,0,0.1,0,0.1-0.1c0,0,0,0,0,0.1c0,0,0.1,0,0.1,0
			c0,0,0,0.1,0.1,0.1c0,0,0.1,0,0.1,0c0,0,0.1,0,0.1,0c0,0,0,0,0,0.1c0.1,0,0.1,0,0.2,0c0,0,0,0,0,0c0.2,0,0.3,0,0.5,0
			c0,0,0,0-0.1,0.1c0.1,0,0.2,0,0.3,0c0,0,0,0-0.1,0c0.1,0,0.2,0,0.4,0c0,0,0,0,0,0.1c0,0,0,0,0.1,0c0,0,0,0-0.1,0c0,0,0.1,0,0.1,0
			c0,0,0.1,0,0.1,0.1c0,0,0,0,0.1,0c0,0,0.1,0,0.1,0c0,0,0,0,0,0c0,0,0.1,0,0.2,0c0,0,0,0.1,0,0.1c0,0,0.1,0,0.1,0
			c-0.1,0-0.2,0-0.3,0c0,0,0,0,0,0c-0.2,0-0.3,0-0.5,0c0.1,0,0.2,0,0.3,0c-0.3,0-0.6,0-0.8-0.1c0,0,0.1,0,0.1,0.1
			c-0.2,0-0.3,0-0.5-0.1c0,0,0,0,0,0c-0.1,0-0.2,0-0.3,0.1c0,0,0,0,0,0c-0.1,0-0.1,0-0.2,0c0,0-0.1,0-0.1,0
			C45.7,142.8,45.6,142.8,45.6,142.8"/>
	</g>
	<g>
		<path d="M49.5,143c0.1-0.1,0.2-0.2,0.4-0.3c0,0,0,0,0,0c0,0,0,0,0.1,0c0,0,0,0,0,0.1c0,0,0.1,0,0.1-0.1c0,0,0,0,0.1,0s0,0,0,0.1
			c0.1,0,0.1,0,0.2-0.1c0,0,0.1,0,0.1,0c0,0,0.1,0,0.1,0c0.1,0,0.2,0,0.2,0.1c0,0,0.1,0,0.1-0.1c0,0,0,0,0.1,0c0,0,0.1,0,0.1,0
			c0.1,0,0.2,0.1,0.2,0.1c0,0,0.1,0,0.1,0.1c0,0,0.1,0,0.1,0.1c0,0,0.1,0.1,0.1,0.1c0,0.1,0,0.1-0.1,0.1c0,0-0.1,0-0.1,0
			c-0.1,0-0.2-0.1-0.3-0.1c-0.1,0-0.2-0.1-0.3-0.1c0,0-0.1,0-0.1,0c-0.1,0-0.1,0-0.2,0c-0.1,0-0.2,0-0.3,0c-0.1,0-0.1,0-0.2,0
			C49.8,143.1,49.7,143.1,49.5,143"/>
	</g>
	<g>
		<path class="st1" d="M49.5,143.8c0.1-0.2,0.3-0.3,0.5-0.4c0.2,0,0.4,0,0.6,0.1c0.2,0.1,0.3,0.2,0.5,0.3"/>
	</g>
	<g>
		<path class="st1" d="M51.1,143.8c-0.2,0-0.3,0-0.5,0c-0.4,0-0.8,0-1.2-0.1"/>
	</g>
	<ellipse cx="50.2" cy="143.6" rx="0.2" ry="0.2"/>
	<circle class="st1" cx="47" cy="143.4" r="0.1"/>
	<circle class="st1" cx="46.9" cy="143.6" r="0"/>
	<circle class="st1" cx="50.1" cy="143.5" r="0.1"/>
	<circle class="st1" cx="50.2" cy="143.7" r="0"/>
	<g>
		<g>
			<g>
				<path d="M49.5,144.9c0,0,0,0,0.1,0.1c0,0,0.1,0.1,0.1,0.2c0,0.1,0,0.2,0,0.2c0,0.1-0.1,0.2-0.2,0.2c0,0-0.1,0-0.2,0
					c0,0,0,0,0-0.1s0-0.1-0.1-0.1s-0.1,0-0.1,0c0,0,0,0-0.1,0c0,0,0,0-0.1,0c0,0-0.1,0-0.1,0c0,0-0.1,0-0.1,0c-0.1,0-0.1,0-0.2,0
					c-0.1,0-0.1,0-0.2-0.1s-0.1-0.1-0.2-0.1c-0.1,0-0.1,0-0.2,0c0,0-0.1,0-0.1,0c0,0-0.1,0-0.1,0.1c-0.1,0-0.1,0.1-0.2,0.1
					s-0.1,0-0.2-0.1s-0.1-0.1-0.1-0.1c0-0.1,0-0.2,0-0.3c0-0.1,0.1-0.2,0.1-0.2c0.1-0.1,0.1-0.1,0.2-0.1c0.1-0.1,0.2-0.1,0.2-0.1
					c0,0,0,0,0,0c0,0-0.1,0-0.1,0.1c0,0-0.1,0.1-0.2,0.1c-0.1,0.1-0.1,0.1-0.1,0.2c0,0.1,0,0.2,0,0.3c0,0.1,0.1,0.1,0.1,0.1
					c0.1,0,0.1,0.1,0.2,0.1c0.1,0,0.1,0,0.2-0.1c0,0,0.1,0,0.1-0.1c0,0,0.1,0,0.1,0c0.1,0,0.1,0,0.2,0s0.1,0.1,0.2,0.1
					c0.1,0,0.1,0.1,0.2,0.1c0.1,0,0.1,0,0.2,0c0,0,0.1,0,0.1,0c0,0,0.1,0,0.1,0c0,0,0,0,0,0c0,0,0,0,0,0c0,0,0.1,0,0.1,0
					c0,0,0,0,0.1,0.1c0,0,0,0.1,0.1,0.1c0,0,0.1,0,0.1,0c0,0,0.1,0,0.1,0c0.1,0,0.1-0.1,0.1-0.1c0,0,0.1-0.1,0.1-0.1
					c0-0.1,0-0.2,0-0.3s-0.1-0.1-0.1-0.2C49.6,145,49.6,145,49.5,144.9C49.5,144.9,49.5,144.9,49.5,144.9z"/>
			</g>
		</g>
	</g>
	<g>
		<g>
			<g>
				<path d="M49.6,145C49.6,145,49.6,145,49.6,145c-0.1-0.1-0.1-0.2-0.1-0.2c0-0.1-0.1-0.2-0.1-0.3c0-0.1,0-0.1-0.1-0.2
					c0-0.1-0.1-0.1-0.1-0.2c0-0.1,0-0.1,0-0.2c0-0.1,0-0.1,0-0.2c0-0.1,0.1-0.2,0.1-0.3c0-0.1,0.1-0.1,0.1-0.2c0,0,0-0.1,0-0.1
					c0,0,0,0,0,0.1c0,0-0.1,0.1-0.1,0.2c0,0.1-0.1,0.2-0.1,0.3c0,0.1,0,0.1,0,0.2c0,0.1,0,0.1,0,0.2c0,0.1,0,0.1,0.1,0.2
					c0,0.1,0,0.1,0.1,0.2c0,0.1,0.1,0.2,0.1,0.3C49.5,144.8,49.5,144.9,49.6,145C49.6,145,49.6,145,49.6,145z"/>
			</g>
		</g>
	</g>
	<g>
		<path class="st16" d="M46.9,146.5c0.4,0,0.8-0.3,1.3-0.3c0.1,0,0.3,0.1,0.4,0.1c0.2,0,0.4,0,0.6,0c0.1,0,0.3,0.1,0.4,0.2
			c0.1,0.1,0.3,0.1,0.4,0.1c-0.2,0.2-0.3,0.4-0.5,0.5c-0.2,0.2-0.4,0.3-0.7,0.3c-0.3,0-0.5,0-0.7-0.1c-0.2-0.1-0.4-0.2-0.7-0.4
			C47.2,146.8,47,146.7,46.9,146.5C46.9,146.5,46.9,146.5,46.9,146.5"/>
		<g>
			<g>
				<path d="M47,146.5C47,146.5,47,146.5,47,146.5C46.9,146.5,46.9,146.5,47,146.5c-0.1,0-0.1,0-0.2,0c0.1,0.1,0.2,0.2,0.4,0.3
					c0.1,0.1,0.2,0.1,0.3,0.2c0.1,0.1,0.2,0.1,0.4,0.2c0.1,0.1,0.3,0.1,0.4,0.2c0.2,0,0.3,0.1,0.5,0c0.2,0,0.4-0.1,0.5-0.2
					c0.2-0.1,0.3-0.2,0.4-0.4c0,0,0.1-0.1,0.1-0.1c0,0,0,0,0.1-0.1l0-0.1l0,0c0,0,0,0,0,0h0h0l0,0c0,0,0,0,0,0h0h0c0,0,0,0,0,0
					c0,0-0.1,0-0.1,0c-0.1,0-0.1,0-0.2,0c-0.1,0-0.2-0.1-0.3-0.1c-0.1,0-0.1,0-0.2,0c-0.1,0-0.1,0-0.2,0c-0.1,0-0.2,0-0.3,0
					c0,0-0.1,0-0.1,0c0,0-0.1,0-0.1,0c-0.1,0-0.2-0.1-0.3-0.1c-0.1,0-0.2,0-0.3,0c-0.2,0-0.3,0.1-0.4,0.1c-0.1,0-0.2,0.1-0.3,0.1
					C47.1,146.5,47.1,146.5,47,146.5C47,146.5,47,146.5,47,146.5C46.9,146.5,46.9,146.5,47,146.5C46.9,146.5,46.9,146.5,47,146.5
					C46.9,146.5,46.9,146.5,47,146.5C46.9,146.5,46.9,146.5,47,146.5C47,146.5,47,146.5,47,146.5c0.1,0,0.1,0,0.2,0
					c0.1,0,0.2-0.1,0.3-0.1s0.3-0.1,0.4-0.1c0.1,0,0.2,0,0.3,0c0.1,0,0.2,0,0.3,0.1c0,0,0.1,0,0.1,0c0,0,0.1,0,0.2,0
					c0.1,0,0.2,0,0.3,0c0.1,0,0.1,0,0.2,0c0.1,0,0.1,0,0.2,0c0.1,0,0.2,0.1,0.3,0.1c0.1,0,0.1,0,0.2,0c0,0,0.1,0,0.1,0c0,0,0,0,0,0
					h0h0l0,0l0,0l0,0c0,0,0,0-0.1,0.1c0,0-0.1,0.1-0.1,0.1c-0.1,0.1-0.3,0.3-0.4,0.4s-0.3,0.2-0.5,0.2c-0.2,0-0.3,0-0.5,0
					c-0.2,0-0.3-0.1-0.4-0.2c-0.1-0.1-0.2-0.1-0.4-0.2c-0.1-0.1-0.2-0.1-0.3-0.2c-0.1-0.1-0.2-0.1-0.2-0.2c-0.1,0-0.1-0.1-0.2-0.1
					C46.9,146.5,46.9,146.5,47,146.5C47,146.5,47,146.5,47,146.5z"/>
			</g>
		</g>
	</g>
	<path class="st13" d="M49.3,146.6c-0.1,0-0.2-0.1-0.3-0.1c-0.1,0-0.3,0-0.4,0c-0.1,0-0.2-0.1-0.3-0.1c-0.3,0-0.6,0.2-0.9,0.2l0.1,0
		c0,0-0.1,0-0.1,0c0.1,0.1,0.3,0.2,0.4,0.3c0.2,0.1,0.3,0.2,0.5,0.3c0.2,0.1,0.4,0.1,0.5,0.1c0.2,0,0.3-0.1,0.5-0.2
		c0.1-0.1,0.3-0.2,0.4-0.4C49.5,146.7,49.4,146.6,49.3,146.6z M49.5,146.8C49.5,146.8,49.5,146.8,49.5,146.8
		c-0.2,0.2-0.3,0.3-0.4,0.4c-0.1,0.1-0.2,0.1-0.4,0.1c-0.1,0-0.2,0-0.4,0c-0.1,0-0.2-0.1-0.3-0.1c-0.1-0.1-0.2-0.1-0.3-0.2
		c-0.1-0.1-0.1-0.1-0.2-0.1c-0.1,0-0.1-0.1-0.2-0.1c0,0-0.1-0.1-0.1-0.1c0,0,0,0,0.1,0c0,0,0,0,0,0c0,0,0.1,0,0.1,0s0.1,0,0.2-0.1
		c0.1,0,0.2-0.1,0.3-0.1c0.1,0,0.2,0,0.3,0c0.1,0,0.1,0,0.2,0c0.1,0,0.1,0,0.2,0c0.1,0,0.1,0,0.2,0c0.1,0,0.1,0,0.2,0.1
		c0.1,0,0.1,0.1,0.2,0.1C49.4,146.7,49.5,146.7,49.5,146.8C49.5,146.7,49.5,146.7,49.5,146.8L49.5,146.8
		C49.6,146.7,49.5,146.7,49.5,146.8z"/>
	<polygon class="st17" points="47.9,145.5 48,145.6 48.1,145.6 48.3,145.6 48.3,145.5 48.1,145.4 48,145.4 	"/>
	<path class="st17" d="M48.3,146.1"/>
	<path class="st17" d="M49.1,145.5l-0.2,0c0,0,0,0,0,0l-0.1,0.1c0,0,0,0,0,0l0.1,0.1c0,0,0,0,0,0h0.1h0.2h0l0,0c0,0,0,0,0,0
		L49.1,145.5C49.1,145.5,49.1,145.5,49.1,145.5z"/>
	<g>
		<path class="st18" d="M48.6,147c-0.1,0-0.3,0-0.4,0c-0.1,0-0.3-0.1-0.4-0.1c0.1,0.1,0.3,0.2,0.5,0.2c0.2,0,0.4,0,0.5-0.1
			C48.8,147,48.7,146.9,48.6,147"/>
	</g>
	<path class="st19" d="M47.5,146.5"/>
	<path class="st19" d="M47.5,146.5"/>
	<path class="st20" d="M47.7,146.5c0.1,0,0.2-0.1,0.3,0c0.1,0,0.2,0.1,0.3,0.1c0.2,0.1,0.5,0,0.7,0c0.1,0,0.2,0.1,0.3,0.1
		c0.1,0,0.2,0.1,0.3,0.1c-0.1,0.1-0.3,0.1-0.4,0.1c-0.3,0-0.6,0-1-0.1c-0.1,0-0.2,0-0.3,0c-0.1,0-0.2,0-0.3,0c-0.1,0-0.1,0-0.2,0
		c-0.1,0-0.1,0-0.2,0c0,0-0.1,0-0.1,0c0,0,0.2-0.1,0.2-0.1C47.5,146.5,47.6,146.5,47.7,146.5z"/>
	<g>
		<g>
			<g>
				<path d="M49.9,146.7c0,0,0,0-0.1,0c-0.1,0-0.2,0.1-0.3,0.1c-0.1,0-0.3,0-0.5,0c-0.2,0-0.4,0-0.6-0.1c-0.4-0.1-0.8-0.1-1.1-0.1
					c-0.1,0-0.3,0-0.3,0c-0.1,0-0.1,0-0.1,0c0,0,0,0,0.1,0c0.1,0,0.2,0,0.3,0c0.3,0,0.7,0.1,1.1,0.2c0.2,0,0.4,0.1,0.6,0.1
					c0.2,0,0.4,0,0.5,0c0.1,0,0.3-0.1,0.3-0.1C49.8,146.7,49.9,146.7,49.9,146.7C49.9,146.7,49.9,146.7,49.9,146.7z"/>
			</g>
		</g>
	</g>
</g>
<polygon class="st0" points="11.7,181 12.4,182.9 13.7,183.9 16.8,185.3 20.1,186.6 25.1,188.3 29.6,189.8 33,191 36.1,190.8 
	46.9,189.5 58.2,188 64.6,187.3 73.2,186.3 84.1,185 91.4,184.3 101.1,183.4 105.8,182.8 110.7,182.2 114.6,181.9 116,181.6 
	116.3,180.8 115.9,180 115.3,178.9 112.1,177.4 107.6,175.8 98.6,173.9 90.5,172.3 "/>
<polyline class="st21" points="12,181.2 18.8,183.2 28,186.4 31.9,188.5 32.2,189.1 32.2,190.7 "/>
<polyline points="31.9,188.5 34.1,188.7 37.5,188.7 45.8,187.6 60.9,185.6 76.7,183.9 96.1,181.5 104.8,180.7 114.8,179.7 
	115.5,179.4 "/>
<polygon points="19.6,180.9 28.7,184.6 29.4,184.7 64.1,180.2 99.1,176.6 90.4,173.7 "/>
<text transform="matrix(1 0 0 1 112.9307 93.9482)" class="st4 st5">CODE.</text>
<polygon class="st0" points="84.1,133.8 86.4,147.1 205.8,145.8 212,145.8 214,144 213.8,133.4 213.2,132.7 "/>
</svg>
